<svg width="24" height="24" viewBox="0 0 24 24" fill="none" xmlns="http://www.w3.org/2000/svg">
<path d="M10 21.7498C9.91001 21.7498 9.81903 21.7338 9.73103 21.6998C9.44103 21.5888 9.25001 21.3098 9.25001 20.9998V13.7498H5.00001C4.70401 13.7498 4.43602 13.5758 4.31502 13.3048C4.19402 13.0338 4.24503 12.7178 4.44203 12.4978L13.442 2.4978C13.65 2.2668 13.978 2.1878 14.268 2.2998C14.558 2.4108 14.749 2.6898 14.749 2.9998V10.2498H19C19.296 10.2498 19.564 10.4238 19.685 10.6948C19.806 10.9658 19.755 11.2818 19.558 11.5018L10.558 21.5018C10.413 21.6628 10.208 21.7498 10 21.7498ZM6.68404 12.2498H10C10.414 12.2498 10.75 12.5858 10.75 12.9998V19.0458L17.316 11.7498H14C13.586 11.7498 13.25 11.4138 13.25 10.9998V4.95379L6.68404 12.2498Z" fill="#141514"/>
</svg>
