<svg width="32" height="32" viewBox="0 0 32 32" fill="none" xmlns="http://www.w3.org/2000/svg">
<path opacity="0.5" fill-rule="evenodd" clip-rule="evenodd" d="M27 3.69334C27.0028 3.96164 26.8992 4.22012 26.7117 4.41208C26.5242 4.60404 26.2683 4.71382 26 4.71734H6C5.73147 4.71382 5.47532 4.60386 5.28782 4.41161C5.10031 4.21936 4.99679 3.96054 5 3.69201C4.99679 3.42348 5.10031 3.16465 5.28782 2.9724C5.47532 2.78015 5.73147 2.67019 6 2.66667H26C26.1331 2.66841 26.2645 2.69635 26.3868 2.74889C26.5091 2.80142 26.6198 2.87754 26.7127 2.97287C26.8055 3.06821 26.8787 3.18091 26.928 3.30452C26.9773 3.42814 27.0018 3.56026 27 3.69334ZM27 28.3067C27.0018 28.4397 26.9773 28.5719 26.928 28.6955C26.8787 28.8191 26.8055 28.9318 26.7127 29.0271C26.6198 29.1225 26.5091 29.1986 26.3868 29.2511C26.2645 29.3037 26.1331 29.3316 26 29.3333H6C5.86692 29.3316 5.73549 29.3037 5.61321 29.2511C5.49093 29.1986 5.3802 29.1225 5.28734 29.0271C5.19448 28.9318 5.12131 28.8191 5.07201 28.6955C5.0227 28.5719 4.99823 28.4397 5 28.3067C4.99715 28.0384 5.10083 27.7799 5.28829 27.5879C5.47576 27.396 5.7317 27.2862 6 27.2827H26C26.2685 27.2862 26.5247 27.3961 26.7122 27.5884C26.8997 27.7807 27.0032 28.0395 27 28.308" fill="white"/>
<path d="M21.3333 7.79466C25.104 7.79466 26.9907 7.79466 28.1613 8.996C29.3333 10.2 29.3333 12.1333 29.3333 16C29.3333 19.8667 29.3333 21.8027 28.1613 23.004C26.9907 24.204 25.104 24.204 21.3333 24.204H10.6667C6.896 24.204 5.00934 24.204 3.83867 23.004C2.66667 21.8027 2.66667 19.8667 2.66667 16C2.66667 12.1333 2.66667 10.1987 3.83867 8.996C5.00934 7.796 6.896 7.796 10.6667 7.796L21.3333 7.79466Z" fill="white"/>
</svg>
