<svg width="420" height="226" viewBox="0 0 420 226" fill="none" xmlns="http://www.w3.org/2000/svg">
<path fill-rule="evenodd" clip-rule="evenodd" d="M28.8245 66.3392C28.894 62.2558 28.9708 58.0907 29.552 54.0469C30.1202 50.0936 31.6834 46.5202 34.3698 43.6495C40.0755 37.5517 48.3463 36.0623 56.045 34.6973L69.2076 32.3636C73.2233 31.6518 77.5074 30.514 81.5646 31.5235C83.5638 32.0209 85.2616 33.1766 86.8133 34.5439C88.309 35.8617 89.9171 37.277 90.9305 39.05C91.9458 40.8256 92.295 42.9012 92.625 44.9094C92.9973 47.1735 93.2865 49.4553 93.4919 51.7426C93.9036 56.3251 93.9598 60.9421 93.6612 65.5341C93.5165 67.7614 93.2863 69.9823 92.9924 72.1933C92.8467 73.2897 92.6819 74.3834 92.4959 75.4733C92.4411 75.7946 92.3993 76.1504 92.3432 76.5099C92.7583 77.7432 92.9943 79.0204 92.9753 80.2922C92.9193 84.0384 89.8918 86.397 86.8396 87.6633C85.0699 88.3975 83.2198 88.8964 81.481 89.7167C79.6518 90.5794 78.4067 91.978 77.1561 93.5735C74.7708 96.6165 72.0791 99.3514 69.0055 101.633C62.4891 106.471 54.2354 108.759 46.3286 107.023C44.4315 106.606 42.5177 105.959 40.8124 104.984C39.012 103.954 37.6582 102.463 36.5213 100.699C34.4104 97.4253 32.8966 93.7387 31.7513 89.9872C30.5832 86.1604 29.7541 82.3266 29.3019 78.3363C28.8512 74.359 28.7563 70.3412 28.8245 66.3392Z" fill="white"/>
<path fill-rule="evenodd" clip-rule="evenodd" d="M70.8275 18.1393C65.3805 17.3568 57.8624 19.9001 55.1498 25.0284C42.1989 21.8396 25.8645 21.7352 15.1903 32.3506C4.05219 44.9429 18.0422 61.5459 27.3188 65.2892C26.6434 68.7174 27.6965 90.6794 35.1479 100.476C41.0615 108.776 54.8328 112.607 61.2053 102.693L61.255 102.611C61.9377 101.466 61.3497 101.503 60.6489 102.354C54.4089 108.086 45.9247 108.183 39.3867 102.135C27.1336 91.0797 28.397 63.9728 34.2276 48.291C50.8302 46.3866 68.6064 51.6423 80.0737 64.6952L79.2983 69.5708C79.1661 70.4015 79.016 71.2314 78.9016 72.0649C78.8283 72.599 78.8201 73.1302 79.1743 73.5626C80.3442 74.9898 82.3158 72.8451 83.938 71.992C84.4169 71.9217 84.8967 71.8945 85.3672 71.9291C93.1612 72.9776 91.6256 88.7686 83.0595 86.0006C82.3397 85.5324 81.7214 85.6753 81.4421 86.3548C79.4004 88.3081 78.0541 91.7919 74.6618 95.1473C73.4649 96.4059 72.3757 97.459 71.0294 98.4686C70.2386 99.3038 67.8525 100.155 68.6089 101.585C70.0393 104.837 78.4743 94.621 79.9656 91.7959C84.6382 93.7229 89.8164 93.0684 94.6586 92.5974C120.204 91.2102 116.794 63.0862 95.8549 45.3301C91.9134 42.2995 87.5647 39.8272 83.0443 37.9248C82.4272 37.665 82.6968 36.6067 83.3227 36.8701C86.3137 38.1291 89.2295 39.6276 92.009 41.362L92.0132 40.3251C92.0173 38.5786 91.991 36.7604 91.7006 35.1647C91.5554 34.059 91.3112 32.878 90.9353 31.9895C90.4705 29.2657 83.1902 19.9162 70.8275 18.1393ZM85.7081 75.5545C85.3137 75.1631 84.5774 75.6297 84.2262 75.6181C83.3283 75.7464 82.4752 76.1425 81.8099 76.6314C81.3706 76.8884 81.0628 77.1297 80.8055 77.3517L80.7986 77.3497C80.8005 77.3497 80.8034 77.3512 80.8055 77.3517L80.7808 77.3694C80.4062 77.6473 79.035 79.213 79.9013 78.7919C79.9659 78.7043 80.032 78.62 80.0987 78.5375C80.1059 78.5488 80.1158 78.5599 80.1277 78.5706L80.079 78.6461C79.3427 79.8029 80.614 78.5841 80.8095 78.2604C80.8188 78.2682 80.8293 78.2735 80.8396 78.2792L80.5849 78.603C80.5492 78.6489 80.5213 78.6856 80.498 78.7166L80.4443 78.7708C79.593 79.6448 79.5664 80.4313 80.5554 79.1392C80.5165 79.2001 80.4853 79.2646 80.4809 79.3218L80.4223 79.3999C79.6457 80.445 80.2774 80.0738 80.6633 79.6275L80.6956 79.5891L80.689 79.5995C80.33 80.1771 81.0423 79.7718 81.1681 79.4628L81.1734 79.4489C81.3106 79.332 81.395 79.2008 81.4239 79.1677L81.4293 79.1621C82.097 78.4476 83.0649 77.843 83.8871 77.5683C84.0063 77.5446 84.1269 77.5256 84.2488 77.5121C84.7432 77.3969 85.243 77.318 85.7481 77.2754C85.8099 77.2677 85.8725 77.2203 85.9193 77.1591C86.6831 77.1322 86.4473 76.8052 86.1304 76.7445L86.1249 76.7435L86.1878 76.738C86.6779 76.688 87.0126 76.5043 86.517 76.3916L86.4542 76.3785C86.4619 76.366 86.4687 76.3534 86.4754 76.3408C86.8998 76.2921 86.6228 75.8612 86.3872 75.9655C86.4864 75.627 86.0333 75.796 85.9767 75.7457C85.9336 75.6957 85.8801 75.6516 85.8492 75.6492C85.7127 75.5486 85.7788 75.5577 85.7081 75.5545ZM83.1111 70.0741L83.2106 70.1348C83.2911 70.1838 83.3738 70.2164 83.4569 70.2356C83.3396 70.2877 83.2237 70.344 83.109 70.4042C83.1109 70.3307 83.1122 70.2572 83.1122 70.1839L83.1111 70.0741Z" fill="#1D1E1D"/>
<path fill-rule="evenodd" clip-rule="evenodd" d="M48.5446 92.5391C49.7179 92.0392 50.7647 91.2054 51.53 90.1402C51.796 89.77 51.865 89.3789 51.8092 89.0213C51.7464 88.6191 51.5187 88.2547 51.208 88.0102C50.8964 87.765 50.5066 87.644 50.1297 87.7057C49.8023 87.7593 49.4763 87.9465 49.2183 88.3349L49.1644 88.4125C48.7094 89.0554 48.1165 89.5829 47.441 89.9229C46.7898 90.2506 46.0616 90.4036 45.308 90.3146C43.8727 90.1453 42.8835 89.3346 41.832 88.2337C41.7016 88.0947 41.5712 87.9513 41.4402 87.8057C41.3574 87.6736 41.2426 87.5888 41.1151 87.5443C40.9735 87.4948 40.8133 87.4976 40.6666 87.5511C40.5251 87.6027 40.3986 87.7004 40.3138 87.8304C40.2332 87.9541 40.1875 88.1068 40.2023 88.2824C40.2986 89.4233 40.8697 90.4416 41.6809 91.2411C42.5819 92.129 43.7762 92.7434 44.9006 92.9588C46.1394 93.1961 47.4017 93.0261 48.5446 92.5391ZM44.3163 74.9382C42.9984 75.7749 40.9903 77.7259 42.408 79.8001C44.0769 81.629 46.4797 79.532 47.6637 78.5837C48.7616 77.8487 49.9951 79.739 48.9765 80.5972C40.4206 87.2132 36.9484 75.157 43.6497 73.9545C44.3875 73.822 44.6616 74.6794 44.3163 74.9382ZM59.6486 67.2422C59.5029 65.3545 56.7502 64.9258 56.4764 66.7938C56.2312 68.4671 56.5198 70.0043 57.2415 71.5109C57.931 72.9501 59.6642 72.2786 59.7953 70.9681C59.9709 69.2113 59.7391 68.4165 59.6486 67.2422ZM38.6943 66.4065C38.3105 65.8815 37.7564 65.5231 37.0925 65.7257C35.0183 66.3587 35.6296 69.4343 36.3581 70.9314C36.7539 71.7444 38.0334 71.9505 38.6116 71.2347C39.554 70.0674 40.0054 67.7362 38.8072 66.5864C38.7748 66.527 38.7386 66.467 38.6943 66.4065ZM57.2707 58.982L56.9431 58.9221C55.9294 58.739 54.6691 58.5631 53.9521 59.4142C53.5718 59.8655 53.4409 60.7044 53.9521 61.1364C54.8513 61.8965 55.8454 61.6019 56.9229 61.6663C57.8109 61.7195 58.6643 61.873 59.5197 62.1284C61.3962 62.6885 62.9252 63.7111 64.5279 64.8339C64.7382 64.9812 64.9528 64.7003 64.8525 64.4949C63.9273 62.6023 62.1344 61.0476 60.3385 60.0999C59.38 59.5941 58.3311 59.1745 57.2707 58.982ZM40.5851 58.1342L40.3344 58.1878C37.6053 58.7836 34.0595 59.9738 32.7671 62.7735C32.7179 63.1694 32.7699 63.2543 32.8122 63.3097L32.8263 63.3281C32.8612 63.3755 32.889 63.4407 33.0533 63.4946C33.0989 63.4833 33.1449 63.4712 33.1915 63.4585C33.7839 63.2964 34.2526 63.073 34.7063 62.8412L35.1983 62.5881C35.7691 62.2958 36.3449 62.0141 36.9552 61.8061C38.2575 61.3625 39.5971 61.05 40.9574 60.8831C41.2523 60.8469 41.5362 60.743 41.7602 60.5649C41.9728 60.3958 42.1352 60.1617 42.2092 59.8506C42.3052 59.4479 42.2776 59.1431 42.0708 58.7798C41.9152 58.507 41.6927 58.3179 41.4371 58.2093C41.1766 58.0986 40.88 58.0725 40.5851 58.1342Z" fill="black"/>
<path fill-rule="evenodd" clip-rule="evenodd" d="M126.189 228.022C125.269 229.482 123.459 229.258 122.681 228.127C113.832 230.28 104.76 229.431 95.787 228.903C70.5029 227.829 45.0762 231.197 19.8943 227.674C17.223 227.116 14.1138 227.382 11.9281 225.447C8.43214 221.169 9.18505 214.672 9.74196 209.461C14.2058 180.084 20.5521 150.437 23.7178 120.872C23.8946 118.055 22.7834 114.556 21.7872 111.909C21.5411 111.416 19.9859 110.933 19.1789 110.365C16.7022 108.509 17.1038 105.181 19.2508 103.229C26.2024 98.1111 35.8795 99.8994 43.2537 101.788C44.6669 96.2438 46.2555 92.5978 48.9462 92.2367C54.0676 91.5495 66.4909 89.4493 70.3177 92.2367C72.1484 93.5702 73.3234 98.2689 74.6412 100.558C84.2519 100.38 103.757 86.9502 107.768 102.073C111.026 102.308 114.253 105.279 113.629 108.844C117.855 112.743 114.522 118.591 114.58 123.445C115.136 133.743 120.472 142.953 122.691 152.902C127.765 172.197 133.508 207.295 127.215 226.129C127.351 226.055 127.646 226.167 127.455 226.323C126.742 226.533 126.65 227.471 126.189 228.022Z" fill="white"/>
<path fill-rule="evenodd" clip-rule="evenodd" d="M15.6961 223.115C16.8764 213.218 17.6972 201.271 17.7066 191.292C17.7075 190.352 16.3113 190.354 16.3104 191.292C16.301 201.271 15.4802 213.218 14.2999 223.115C14.1889 224.045 15.5865 224.034 15.6961 223.115ZM24.4398 161.751C26.2636 162.916 28.6587 162.108 30.4636 161.337C31.2855 160.986 30.9235 159.576 30.0926 159.931C28.7189 160.518 26.7111 161.382 25.2613 160.563C23.8143 159.746 23.7491 157.498 23.7383 156.014C23.7314 155.075 22.3354 155.076 22.342 156.014C22.3567 158.033 22.6152 160.586 24.4398 161.751ZM27.8157 207.04C29.6557 206.055 31.2258 204.709 32.4893 202.999C33.0386 202.256 31.8251 201.531 31.2837 202.263C30.1716 203.768 28.7227 204.918 27.111 205.781C26.3102 206.21 27.0176 207.468 27.8157 207.04ZM36.66 156.147C39.8172 169.361 41.9359 182.811 42.9743 196.388C43.1855 199.144 43.3339 201.896 43.4176 204.65C43.5014 205.369 43.5817 206.089 43.6567 206.809C43.9412 209.532 44.1594 212.299 44.1402 215.04C44.1315 216.271 44.0948 217.496 44.0145 218.722C44.1541 218.312 44.2833 217.9 44.4089 217.49C44.6655 216.65 44.8348 215.779 45.0966 214.944C45.313 214.253 45.5922 213.591 45.8523 212.922V212.92C45.7737 210.181 45.9518 207.416 46.0425 204.689C46.1594 201.156 46.3043 197.627 46.3793 194.093C46.5294 187.024 46.4544 179.95 46.2101 172.885C45.7196 158.648 44.4805 144.48 43.2309 130.302C42.8836 126.359 42.5101 122.418 42.2518 118.468C41.9918 114.476 41.887 110.477 41.8574 106.474C41.8556 106.186 42.2745 106.11 42.3513 106.388C42.4193 105.439 42.5398 104.491 42.7405 103.574C39.7299 105.579 36.5553 107.313 33.4435 109.135C31.8047 110.096 30.1728 111.073 28.4834 111.933C27.555 112.407 26.6178 112.843 25.6614 113.255C24.67 113.682 23.7224 114.268 22.6316 113.971C22.5373 113.946 22.4483 113.909 22.3628 113.862C22.4867 114.108 22.6106 114.352 22.7293 114.6C23.1412 115.455 23.5339 116.314 23.9143 117.179C24.0156 117.258 24.1046 117.366 24.1744 117.506C24.3594 117.883 24.5391 118.264 24.7137 118.65C24.7486 118.616 24.7835 118.581 24.8184 118.547C24.965 118.403 25.1674 118.619 25.0383 118.776C24.979 118.847 24.9214 118.917 24.8638 118.988C26.0017 121.545 26.9267 124.234 27.8796 126.859C29.0507 130.085 30.1606 133.335 31.206 136.607C33.2672 143.043 35.0858 149.563 36.66 156.147ZM81.7977 204.101C87.6166 207.355 93.0541 211.245 98.2839 215.44C98.9969 216.012 99.6915 214.744 98.9887 214.181C93.7588 209.986 88.3211 206.096 82.5022 202.841C81.7095 202.398 81.0052 203.657 81.7977 204.101ZM101.451 165.983C101.754 165.959 102.047 165.776 102.124 165.447C102.596 163.432 102.965 161.236 102.526 159.18C102.331 158.263 100.985 158.653 101.18 159.568C101.526 161.189 101.251 162.941 100.892 164.558C95.817 164.79 90.81 162.888 85.9545 161.611C85.0814 161.381 84.7126 162.788 85.5833 163.017C90.7339 164.371 96.0615 166.399 101.451 165.983ZM0.417892 219.749C0.412659 219.736 0.40741 219.721 0.403915 219.709C0.105484 218.764 0.0985107 217.667 0.0653534 216.677C0.00775146 214.916 0.0688477 213.152 0.220688 211.397C0.541809 207.702 1.23293 204.067 2.05844 200.463C3.69374 193.325 6.00447 186.38 7.25931 179.146C9.72188 164.944 9.13722 150.158 13.9698 136.459C15.9786 130.765 18.8478 125.291 22.7468 120.767C22.4623 119.863 22.1848 118.957 21.9143 118.047C21.4413 116.465 20.9579 114.832 20.6664 113.202C20.6594 113.158 20.6507 113.113 20.6455 113.067C18.9857 112.32 17.4761 110.911 17.2178 109.037C17.1061 108.228 17.2352 107.331 17.5703 106.549C16.8862 105.889 16.4464 105.032 16.5511 103.884C16.7466 101.722 19.1637 101.166 20.8462 100.743C22.759 100.264 24.7433 100.131 26.6998 100.357C27.6876 100.47 28.6649 100.659 29.6196 100.944C30.4486 101.19 31.3509 101.443 32.0158 102.037C32.0944 102.107 32.0298 102.242 31.9356 102.242C30.59 102.236 29.2496 101.72 27.89 101.653C26.4659 101.584 25.0453 101.706 23.6491 102.012C22.2843 102.311 20.923 102.748 19.6821 103.425C19.333 103.616 18.8217 103.745 19.2318 104.132C19.532 104.414 20.1219 104.438 20.5076 104.48C21.361 104.573 22.0975 105.094 22.2057 106.046C22.3017 106.886 21.8218 107.838 20.9666 108.027C20.9195 108.038 20.8758 108.051 20.8374 108.067C20.8148 108.113 20.7799 108.151 20.7833 108.089C20.7833 108.089 20.7816 108.087 20.7816 108.089C20.7607 108.222 20.7537 108.275 20.7537 108.284C20.7589 108.273 20.7676 108.228 20.7746 108.191C20.7694 108.224 20.7589 108.277 20.7449 108.355C20.7641 108.27 20.7484 108.479 20.7641 108.512C21.2179 109.387 22.56 109.633 23.3419 110.01C23.4937 110.083 23.6246 110.169 23.7363 110.265C23.9213 110.198 24.1098 110.131 24.3 110.056C25.2373 109.69 26.1727 109.334 27.1221 109.004C28.9547 108.364 30.8099 107.794 32.6424 107.152C36.112 105.938 39.4664 104.405 42.8714 103.016C42.9796 102.597 43.1052 102.187 43.2536 101.788C43.2833 101.704 43.4264 101.677 43.4421 101.788C43.4944 102.141 43.5363 102.497 43.5712 102.854C43.5852 102.887 43.5887 102.923 43.5817 102.958C43.7789 105.036 43.7265 107.163 43.8278 109.239C43.9534 111.828 44.3042 114.398 44.4037 116.988V117.035C44.7702 119.247 45.1018 121.465 45.402 123.691C45.7388 123.581 46.1245 123.603 46.519 123.824C49.3079 125.378 52.4424 126.244 55.5961 126.437C57.1843 126.534 58.7567 126.48 60.3362 126.288C61.3746 126.164 62.3974 125.938 63.4218 125.723C62.8825 123.362 62.3031 121.013 61.6486 118.687C61.1094 116.775 60.509 114.872 59.7673 113.033C59.0185 111.175 58.0866 109.402 57.2192 107.601C56.8195 106.768 57.2907 105.493 58.3292 105.581C58.6363 105.606 58.9435 105.627 59.2524 105.641C62.2577 105.791 65.3835 105.441 68.3504 105.129C71.7275 104.772 75.15 104.401 78.4974 103.82C78.7452 103.778 78.8464 104.13 78.6021 104.216C77.0139 104.773 75.4449 105.404 73.8166 105.822C72.1412 106.254 70.4552 106.647 68.7553 106.955C67.127 107.249 65.4917 107.495 63.8512 107.703C62.7813 107.839 61.6992 107.909 60.6224 108C62.0727 110.421 63.0728 113.151 63.9437 115.84C65.0624 119.292 65.8844 122.845 66.6889 126.39C68.4098 133.989 69.8287 141.665 70.9387 149.388C71.7345 154.926 72.3785 160.486 72.8619 166.06C73.0051 164.366 73.1796 162.678 73.3768 160.992C74.0365 155.394 74.9999 149.833 76.2879 144.356C76.1727 144.144 76.1186 143.891 76.157 143.645C76.3891 142.139 77 140.829 77.5358 139.432C78.0681 137.482 78.6422 135.544 79.2601 133.621C79.9617 131.002 80.7488 128.423 81.7558 125.903C82.5254 123.984 83.4033 122.114 84.3807 120.3C85.5482 117.765 86.831 115.284 88.2394 112.912C88.3127 112.692 88.4314 112.486 88.6007 112.313C88.8573 111.89 89.1173 111.472 89.3826 111.058C89.5554 110.789 90.051 110.953 89.9201 111.295C89.859 111.456 89.798 111.616 89.7351 111.775C95.4718 110.277 101.097 112.568 106.561 114.259C107.94 114.688 109.333 115.074 110.746 115.353C111.858 115.572 113.153 115.838 114.261 115.597C115.003 115.437 115.331 115.085 114.97 114.258C114.596 113.401 113.577 112.838 112.692 112.459C112.359 112.384 112.031 112.251 111.715 112.05C110.978 111.583 110.656 110.61 111.003 109.781C111.319 109.032 112.24 108.386 113.055 108.729C113.172 108.778 113.287 108.826 113.403 108.873C113.415 108.855 113.429 108.829 113.441 108.793C113.558 108.459 113.609 108.859 113.558 108.381C113.474 107.601 112.684 106.892 112.143 106.445C110.797 105.331 108.853 104.507 107.116 104.928C106.985 104.959 106.854 104.998 106.725 105.045C104.936 105.692 104.065 103.002 105.495 101.999C105.582 101.939 105.692 101.862 105.812 101.773C106.408 101.341 107.278 100.614 107.041 99.9578C106.748 99.1428 105.018 98.6744 104.364 98.3973C101.997 97.3948 99.4405 96.826 96.889 96.7094C94.3217 96.5927 91.7212 96.888 89.2447 97.6115C88.03 97.9653 86.7821 98.503 85.6338 99.0464C84.6023 99.5329 82.3579 100.176 82.2148 101.54C82.1834 101.841 81.7732 101.943 81.6842 101.615C80.9809 98.997 83.7105 97.3073 85.5116 96.2263C86.6931 95.5153 88.0335 95.0725 89.3302 94.6369C90.5729 94.2176 91.8417 93.9096 93.1366 93.7234C95.9168 93.3263 98.7302 93.3773 101.488 93.9351C103.999 94.4438 106.793 95.3113 108.823 96.9992C110.069 98.0346 110.633 99.6824 110.132 101.29C110.115 101.343 110.097 101.398 110.08 101.45C112.322 101.87 114.445 103.211 115.863 105.082C117.029 106.618 117.64 108.756 116.596 110.545C116.64 110.577 116.684 110.612 116.726 110.648C117.72 111.48 118.46 112.686 118.68 114.006C119.111 116.609 117.605 118.43 115.499 119.126C116.021 119.659 116.521 120.224 117.012 120.789C118.11 122.055 119.158 123.435 120.083 124.843C121.958 127.693 123.56 130.798 124.961 133.926C127.843 140.349 129.66 147.263 130.623 154.274C131.108 157.806 131.433 161.357 131.557 164.922C131.7 168.987 131.555 173.054 131.63 177.121C131.703 181.029 132.117 184.842 132.953 188.652C133.754 192.295 134.822 195.866 135.789 199.463C136.88 203.513 138.081 207.545 138.657 211.721C138.948 213.846 139.157 215.977 138.995 218.126C138.831 220.315 138.07 222.188 137.369 224.224C137.191 224.743 136.648 224.953 136.213 224.842C136.115 225.817 135.763 226.768 135.238 227.592C134.122 229.338 132.405 230.452 130.438 230.857C128.222 231.311 125.937 231.203 123.693 231.119C121.258 231.028 118.822 230.946 116.387 230.84C113.838 230.73 111.289 230.617 108.74 230.504C108.825 227.775 108.925 225.048 109.039 222.32C109.653 207.577 110.621 192.825 110.647 178.062C110.696 178.031 110.745 177.995 110.791 177.948C111.939 176.79 113.347 176.029 114.671 175.123C115.42 174.609 114.72 173.347 113.966 173.864C112.85 174.628 111.687 175.307 110.642 176.164C110.636 174.627 110.623 173.09 110.593 171.553C110.576 170.615 109.179 170.615 109.197 171.553C109.285 176.185 109.256 180.818 109.155 185.449C108.83 200.458 107.809 215.439 107.344 230.442C100.503 230.136 93.6613 229.829 86.8188 229.568C81.2532 229.357 75.6875 229.145 70.1219 228.934C68.9543 228.89 68.2981 228.018 68.155 226.879C67.8932 224.783 68.3853 222.616 69.4988 220.853C69.614 220.671 69.7501 220.509 69.902 220.37C69.8758 219.114 69.8269 217.856 69.895 216.601C69.9962 214.683 70.1481 212.765 70.2807 210.85C70.5495 207.013 70.7572 203.168 70.8392 199.322C71.0067 191.63 70.8846 183.931 70.4674 176.249C69.6315 160.903 67.6855 145.655 64.5004 130.645C64.2683 129.551 64.0344 128.457 63.7918 127.365C61.3153 128.709 58.303 129.192 55.5961 129.21C52.2033 129.232 48.8855 128.417 45.8209 126.935C45.8418 127.101 45.8627 127.265 45.8819 127.431C46.7371 134.54 47.4579 141.663 48.0862 148.796C49.3393 163.016 50.1072 177.294 50.0008 191.577C49.9711 195.534 49.8262 199.479 49.6465 203.431C49.4632 207.45 49.1822 211.697 48.1106 215.574C47.992 216.003 47.7284 216.249 47.4248 216.338C47.409 216.903 47.3741 217.47 47.3358 218.028C47.2118 219.842 46.8575 223.609 46.1001 225.253C45.3619 226.858 44.1315 228.13 42.5625 228.83C40.5694 229.718 38.414 229.462 36.3092 229.32C27.157 228.697 18.0119 227.862 8.86496 227.129C7.59091 227.027 6.31688 226.927 5.04459 226.823C3.91191 226.732 2.74084 226.651 1.73557 226.037C0.592422 225.339 -0.299408 221.91 0.0950165 220.492C0.16658 220.233 0.27478 219.978 0.417892 219.749Z" fill="#1D1E1D"/>
<path fill-rule="evenodd" clip-rule="evenodd" d="M190.129 90.6861C195.421 90.9589 203.661 93.3285 204.073 94.843C204.717 97.2078 203.334 106.074 205.646 110.849C206.632 112.885 210.375 112.702 211.825 113.365C216.677 115.584 231.042 119.791 234.003 125.088C235.19 127.21 242.482 153.544 246.356 166.978C246.793 168.493 247.287 169.894 247.823 171.191L248.02 170.183C249.6 162.063 250.39 157.148 250.39 155.436C250.39 152.762 248.348 141.481 250.39 138.612C252.412 135.772 257.284 133.449 259.476 133.403L259.542 133.402C260.981 133.402 262.23 132.932 263.289 131.993L264.84 131.177C272.735 127.04 277.348 124.77 278.678 124.369C280.801 123.728 284.413 125.093 282.607 127.143C281.403 128.51 278.377 130.927 273.529 134.396L271.701 135.913L271.922 136.033C274.285 137.332 275.674 138.425 276.089 139.313C276.518 140.228 276.312 141.31 275.472 142.56L275.6 142.689C276.662 143.778 277.193 144.508 277.193 144.88V146.695C278.249 148.311 278.513 149.659 277.985 150.738C277.457 151.817 276.619 152.753 275.472 153.544C274.627 155.865 273.621 157.518 272.453 158.501C271.286 159.484 269.268 160.302 266.4 160.956L263.804 167.438L261.701 176.544L260.641 186.705L260.949 186.938C262.375 188.022 263.289 188.827 263.289 189.658C263.289 190.953 257.534 221.401 248.581 222.764C246.645 223.059 236.603 221.613 233.306 218.812L233.354 219.114C234.13 224.008 233.966 226.55 232.862 226.739C219.294 229.062 180.76 229.78 117.259 228.892C116.882 193.692 118.59 170.249 122.384 158.564C132.089 128.678 142.789 118.47 146.532 117.596C149.811 116.83 161.181 112.104 164.359 110.849C166.434 110.03 166.879 107.575 169.243 107.575L169.434 107.576C171.72 107.6 173.748 108.027 174.887 106.799C177.877 103.576 177.041 99.1147 178.281 94.843C178.965 92.4893 183.634 90.3514 190.129 90.6861Z" fill="white"/>
<path fill-rule="evenodd" clip-rule="evenodd" d="M175.588 99.126C175.899 98.4832 176.723 98.5665 177.267 98.8581C178.899 100.104 177.192 102.519 176.74 104.04C175.579 106.989 173.562 109.871 170.778 111.25C171.009 114.182 171.27 117.107 171.367 120.048C174.926 124.659 180.928 126.343 186.256 127.637C194.623 130.054 204.067 125.102 206.891 116.464C203.677 114.556 202.637 109.562 203.596 106.078C203.679 105.833 204.042 105.725 204.172 105.998C205.052 107.889 204.934 110.195 205.935 112.063C215.539 113.023 227.934 116.808 234.226 124.92C237.015 128.979 238.119 134.257 239.493 138.961C242.423 148.658 244.758 158.551 247.631 168.258L247.97 166.421C248.899 161.362 249.742 156.234 249.115 151.089L249.104 150.842C248.899 146.748 247.672 139.14 250.712 136.376C253.462 134.182 257.446 132.418 260.897 133.43C267.037 130.576 272.338 125.77 278.878 123.898C280.891 123.465 283.786 123.977 283.311 126.829C281.992 131.817 276.47 133.753 272.696 136.325C275.115 137.01 278.065 140.083 276.175 142.763C276.158 142.811 276.144 142.847 276.129 142.875C277.662 143.585 277.877 145.368 277.501 146.897C277.463 147.302 277.361 146.954 277.588 147.321C279.318 149.024 278.553 153.774 275.947 153.935C276.118 156.185 274.734 158.371 272.981 159.598C271.091 160.921 268.359 160.978 266.795 162.788C263.122 169.552 261.855 177.536 261.455 185.282C263.876 186.228 266.048 189.059 263.849 191.46C263.805 191.465 263.762 191.47 263.718 191.474C262.443 195.028 261.95 198.817 261.276 202.528C260.239 208.861 257.535 214.676 254.082 219.952C250.09 226.936 239.353 225.829 233.945 221.322C233.966 222.504 234.153 223.679 233.79 224.822C233.255 226.055 231.95 225.522 231.821 224.308C228.962 225.987 228.288 220.444 231.467 221.323C231.222 217.316 231.081 213.303 230.966 209.288C227.367 210.505 227.212 204.27 230.893 205.517L230.888 203.793C230.861 190.575 231.001 177.313 232.671 164.2C232.826 163.219 233.087 162.27 233.24 161.295C233.256 161.194 233.407 161.223 233.408 161.319C233.666 179.678 232.517 198.076 233.716 216.442C234.714 216.759 235.112 217.955 235.85 218.652C237.491 220.233 239.724 221.004 241.909 221.272C248.025 222.168 250.666 220.216 253.39 214.664C252.162 215.521 250.501 214.007 251.25 212.65L251.274 212.609C252.051 211.171 254.248 212.033 253.969 213.643C256.708 209.063 258.141 203.898 259.2 198.658L259.343 198.031C259.858 195.807 260.526 193.257 261.761 191.245C254.225 189.239 246.854 183.127 245.675 174.742C243.761 181.02 241.169 187.157 238.699 193.263C237.936 195.386 237.618 197.669 236.524 199.638C236.27 200.094 235.625 199.976 235.481 199.496C234.498 194.903 237.478 190.535 239.026 186.4C240.289 184.064 243.916 173.394 246.165 173.368C243.638 161.8 240.268 150.319 237.058 138.895C233.954 123.47 227.629 120.495 214.23 115.638C216.647 128.502 227.681 140.953 221.81 154.445L221.667 154.795C221.066 156.283 220.567 157.782 220.987 159.414C221.393 160.999 222.32 162.374 223.061 163.799C227.205 171.848 224.353 181.248 222.751 189.63C220.727 199.46 218.728 209.298 216.636 219.113C216.223 221.071 215.956 223.088 215.333 224.985C215.012 225.964 213.407 225.871 213.511 224.729C213.709 222.513 214.305 220.352 214.741 218.176C217.346 204.086 220.87 190.162 223.111 176.011C224.553 165.535 218.878 163.925 219.09 157.157C219.861 153.695 221.903 150.605 221.786 146.916C222.24 135.624 214.364 126.308 213.392 115.325L211.675 114.686C210.817 114.365 209.96 114.041 209.105 113.71C213.603 146.558 212.237 180.124 209.989 213.134C209.53 214.658 209.967 225.298 208.041 224.354C207.944 224.948 207.641 225.533 206.984 225.53C201.012 225.587 195.039 225.685 189.068 225.76C186.196 225.483 182.248 226.629 179.805 224.898C176.984 224.057 176.66 216.079 175.906 213.235L175.612 211.167C170.819 177.373 166.529 142.882 169.975 108.754C165.181 108.946 164.192 114.349 163.836 118.283C162.948 126.966 157.576 134.444 157.318 143.226C157.297 145.357 157.682 147.421 158.497 149.377C160.661 154.17 164.403 159.712 161.606 165.065C158.299 169.232 158.585 170.329 159.799 175.479C163.213 192.505 168.884 208.872 174.279 225.287C173.107 231.668 166.057 207.982 165.393 206.196C162.272 207.835 160.568 202.396 164.147 202.008C161.848 193.971 159.732 185.873 157.971 177.686L157.924 177.455C157.146 173.673 155.615 169.243 158.2 165.888C164.864 158.849 153.797 150.981 155.193 142.454C153.987 143.387 152.163 142.405 152.19 140.837C152.135 139.072 154.406 138.168 155.498 139.515C156.622 132.596 160.53 126.557 161.712 119.658L161.766 119.334C162.167 116.897 162.28 114.331 163.426 112.109C161.865 113.168 160.203 114.024 158.494 114.779C161.55 117.445 155.632 119.879 156.121 115.76C139.359 120.825 135.571 127.888 129.417 144.108C130.566 142.942 132.535 144.451 131.847 145.939C131.298 147.506 128.903 147.048 128.904 145.378L128.624 146.076C124.892 155.396 121.495 164.942 119.788 174.916C123.137 174.422 122.284 180.011 119.25 178.435C118.033 187.306 118.014 196.301 118.162 205.243C120.987 203.696 121.072 208.952 118.19 207.454C118.295 214.781 118.449 222.109 118.566 229.437C118.589 230.996 116.286 230.989 116.249 229.437C115.98 218.177 115.49 206.898 115.723 195.635C115.504 176.087 120.884 157.247 128.901 139.736C135.995 119.574 145.793 117.281 163.82 111.418C165.484 108.839 169.039 106.399 171.94 108.019C173.563 105.283 174.387 102.041 175.588 99.126ZM144.702 169.396C144.769 169.148 145.109 169.21 145.12 169.455C145.27 172.618 145.136 175.802 144.929 178.978C144.803 180.917 144.649 182.854 144.518 184.78C144.171 189.861 143.892 194.948 143.679 200.039C143.754 200.007 143.83 199.978 143.91 199.955C144.277 199.851 144.644 199.851 145.011 199.955C145.338 200.051 145.624 200.218 145.87 200.459L145.923 200.511C146.124 200.706 146.268 200.938 146.351 201.206C146.47 201.444 146.531 201.698 146.531 201.97L146.529 202.039C146.528 202.429 146.435 202.792 146.246 203.13C146.063 203.454 145.815 203.712 145.505 203.905C145.181 204.101 144.834 204.198 144.46 204.2C144.42 204.204 144.38 204.207 144.34 204.209C144.062 204.221 143.803 204.16 143.563 204.029L143.526 204.018C143.436 206.6 143.361 209.184 143.307 211.768C143.258 214.02 143.192 216.273 143.149 218.525L143.128 219.651L143.089 222.141C143.076 223.165 143.082 224.146 142.749 225.111L142.709 225.223C142.469 225.867 142.282 226.765 141.641 227.124C141.128 227.41 140.438 227.304 140.144 226.746C139.897 226.279 140.111 225.607 140.476 225.293C140.469 225.272 140.458 225.253 140.449 225.232C140.393 225.061 140.307 224.9 140.257 224.727C140.096 224.181 140.14 223.598 140.138 223.031C140.138 222.029 140.171 221.027 140.197 220.027C140.253 217.898 140.318 215.772 140.398 213.645C140.668 206.51 141.176 199.375 141.759 192.26L141.956 189.858C142.22 186.665 142.492 183.468 142.878 180.291C142.896 180.139 142.914 179.987 142.934 179.836C142.727 179.728 142.535 179.578 142.382 179.411C141.77 178.739 141.399 177.736 141.05 176.872L140.97 176.675C140.593 175.753 140.244 174.819 140.064 173.829L140.047 173.738C139.965 173.316 139.803 172.568 140.231 172.364C140.455 172.258 140.596 172.334 140.669 172.567C140.678 172.597 140.671 172.631 140.654 172.658C140.831 172.94 141.107 173.204 141.281 173.466L141.878 174.358L142.173 174.806C142.547 175.381 142.947 175.931 143.359 176.474C143.684 174.09 144.082 171.717 144.702 169.396ZM169.179 222.502C169.926 221.891 171.141 222.223 171.141 223.35C171.141 224.482 169.924 224.809 169.179 224.198L169.142 224.169L169.107 224.139C168.701 223.808 168.688 222.946 169.076 222.587L169.107 222.561C169.13 222.539 169.154 222.521 169.179 222.502ZM136.653 220.299L136.718 220.301C137.056 220.301 137.37 220.39 137.662 220.568C137.789 220.669 137.915 220.771 138.042 220.874C138.274 221.116 138.434 221.405 138.523 221.737L138.591 222.257C138.6 222.526 138.547 222.777 138.429 223.01C138.353 223.253 138.224 223.463 138.042 223.64C137.871 223.832 137.671 223.966 137.439 224.044C137.234 224.157 137.015 224.215 136.782 224.215L136.718 224.213C136.378 224.213 136.064 224.124 135.771 223.945C135.644 223.845 135.519 223.742 135.391 223.64C135.161 223.397 134.999 223.109 134.91 222.777C134.888 222.604 134.867 222.429 134.843 222.257C134.834 221.987 134.888 221.737 135.005 221.504C135.081 221.261 135.21 221.05 135.391 220.874C135.562 220.682 135.762 220.547 135.995 220.469C136.199 220.357 136.42 220.299 136.653 220.299ZM221.693 216.692L222.169 216.758C222.625 216.867 222.992 217.218 223.237 217.618C223.368 217.832 223.439 218.064 223.45 218.312C223.503 218.559 223.492 218.808 223.417 219.056C223.363 219.299 223.256 219.511 223.097 219.692C223.043 219.781 222.979 219.862 222.907 219.935C222.758 220.194 222.533 220.365 222.3 220.54C222.104 220.671 221.891 220.741 221.662 220.752C221.511 220.794 221.359 220.794 221.206 220.752C220.979 220.741 220.767 220.671 220.57 220.54C220.454 220.447 220.338 220.352 220.223 220.259C220.122 220.136 220.027 220.009 219.938 219.876C219.879 219.73 219.82 219.585 219.762 219.441C219.655 219.094 219.708 218.787 219.766 218.439C219.775 218.381 219.789 218.327 219.809 218.27L219.849 218.16C219.953 217.872 220.009 217.774 220.194 217.523L220.265 217.424C220.3 217.375 220.337 217.327 220.378 217.284C220.494 217.159 220.66 217.054 220.79 216.946C221.07 216.777 221.372 216.694 221.693 216.692ZM160.016 215.477L160.076 215.478C160.34 215.48 160.587 215.548 160.815 215.686L161.113 215.927C161.295 216.119 161.42 216.343 161.491 216.603C161.508 216.739 161.526 216.876 161.544 217.011C161.551 217.221 161.51 217.418 161.417 217.603C161.359 217.792 161.257 217.955 161.113 218.096C160.981 218.244 160.823 218.35 160.641 218.413C160.483 218.499 160.312 218.545 160.131 218.545L160.076 218.544C159.811 218.544 159.564 218.474 159.335 218.335L159.037 218.096C158.855 217.904 158.73 217.679 158.659 217.418C158.643 217.282 158.625 217.147 158.606 217.011C158.599 216.8 158.641 216.603 158.734 216.421C158.794 216.231 158.893 216.066 159.037 215.927C159.17 215.777 159.328 215.671 159.509 215.61C159.668 215.523 159.835 215.479 160.016 215.477ZM148.026 214.85C148.406 214.846 148.791 214.958 149.102 215.187C149.403 215.411 149.632 215.652 149.779 216.015C149.819 216.113 149.859 216.21 149.894 216.309C150.05 216.743 150.079 217.18 149.863 217.605C149.654 218.016 149.204 218.197 148.8 218.32C148.459 218.426 148.072 218.443 147.732 218.316C147.563 218.253 147.398 218.187 147.245 218.09C146.96 217.906 146.806 217.688 146.615 217.418C146.466 217.153 146.391 216.864 146.391 216.557C146.391 216.248 146.466 215.961 146.615 215.694C146.907 215.172 147.449 214.853 148.026 214.85ZM128.77 215.216C129.25 215.216 129.671 215.447 129.96 215.838C130.252 216.235 130.359 216.728 130.23 217.22C130.094 217.739 129.682 218.195 129.171 218.326C128.794 218.422 128.485 218.419 128.109 218.352C127.791 218.295 127.547 218.098 127.304 217.893C127.026 217.656 126.94 217.223 126.986 216.874C127.029 216.525 127.184 216.297 127.418 216.09L127.42 216.085L127.333 216.155C127.366 216.125 127.398 216.092 127.431 216.06C127.442 216.041 127.451 216.02 127.46 215.999C127.594 215.76 127.776 215.573 128.003 215.432C128.241 215.288 128.495 215.216 128.77 215.216ZM240.601 209.469C240.864 209.395 241.129 209.395 241.393 209.469C241.587 209.516 241.756 209.609 241.9 209.747C242.045 209.847 242.164 209.973 242.254 210.13L242.283 210.184C242.49 210.552 242.523 210.973 242.434 211.383C242.323 211.89 241.876 212.351 241.393 212.47L241.377 212.473L241.36 212.478C241.164 212.542 240.966 212.552 240.77 212.505C240.572 212.495 240.388 212.434 240.22 212.32C240.005 212.176 239.825 211.99 239.687 211.766C239.578 211.588 239.52 211.396 239.511 211.189C239.477 211.053 239.477 210.916 239.511 210.78C239.52 210.573 239.578 210.381 239.687 210.203L239.92 209.89L239.943 209.869C240.129 209.675 240.348 209.543 240.601 209.469ZM222.311 199.428C224.693 199.428 224.689 203.287 222.311 203.287C219.929 203.287 219.933 199.428 222.311 199.428ZM135.115 198.94C135.366 198.881 135.617 198.893 135.866 198.974C136.016 199.041 136.165 199.107 136.314 199.172L136.696 199.479C136.767 199.542 136.801 199.61 136.867 199.699L136.948 199.811C137.067 199.976 137.069 200.011 137.199 200.363C137.286 200.701 137.286 201.039 137.199 201.377C137.157 201.54 137.094 201.693 137.012 201.836C136.937 201.972 136.848 202.092 136.747 202.202L136.696 202.257C136.525 202.448 136.323 202.583 136.091 202.663C135.944 202.752 135.786 202.796 135.617 202.796C135.366 202.854 135.115 202.843 134.867 202.761C134.716 202.695 134.567 202.629 134.418 202.564L134.036 202.257L133.742 201.858L133.648 201.625L133.553 201.39L133.486 200.868C133.477 200.597 133.529 200.346 133.647 200.111C133.693 199.946 133.773 199.8 133.889 199.678C133.973 199.53 134.085 199.413 134.227 199.325C134.343 199.204 134.483 199.12 134.641 199.073C134.788 198.984 134.946 198.94 135.115 198.94ZM252.91 196.183C253.109 196.176 253.294 196.219 253.465 196.314C253.525 196.335 253.583 196.362 253.639 196.392C253.859 196.527 254.033 196.709 254.162 196.937C254.268 197.111 254.326 197.299 254.335 197.502C254.374 197.685 254.371 197.869 254.323 198.052L254.308 198.107C254.268 198.257 254.208 198.396 254.128 198.523C254.12 198.538 254.111 198.553 254.1 198.566C253.979 198.768 253.817 198.933 253.617 199.056C253.396 199.189 253.158 199.257 252.9 199.259C252.386 199.259 251.942 198.969 251.672 198.523C251.633 198.46 251.612 198.38 251.585 198.316C251.561 198.255 251.523 198.178 251.502 198.107C251.434 197.838 251.434 197.569 251.502 197.299C251.548 197.102 251.633 196.929 251.762 196.783C251.866 196.618 252.002 196.487 252.171 196.392C252.381 196.264 252.606 196.196 252.845 196.185L252.91 196.183ZM152.355 194.296C152.607 194.224 152.857 194.218 153.107 194.279L153.169 194.296C153.369 194.345 153.542 194.44 153.691 194.58C153.856 194.694 153.989 194.844 154.085 195.03C154.223 195.278 154.292 195.548 154.294 195.836C154.292 196.125 154.223 196.394 154.085 196.642C153.948 196.884 153.765 197.073 153.534 197.216L153.335 197.316C153.167 197.426 152.989 197.485 152.797 197.494C152.668 197.531 152.539 197.531 152.412 197.494C152.281 197.494 152.159 197.46 152.047 197.392C151.923 197.356 151.818 197.291 151.727 197.196C151.569 197.09 151.445 196.95 151.354 196.773L151.207 196.411L151.156 196.009L151.207 195.608L151.287 195.411C151.36 195.14 151.491 194.905 151.681 194.705C151.872 194.508 152.097 194.371 152.355 194.296ZM242.447 191.095C242.712 191.007 242.975 190.996 243.239 191.057C243.417 191.057 243.584 191.104 243.738 191.199C243.907 191.248 244.052 191.335 244.176 191.465C244.392 191.611 244.561 191.804 244.687 192.045L244.886 192.54C245.006 192.861 244.963 193.334 244.89 193.656C244.83 193.922 244.714 194.153 244.541 194.35C244.454 194.504 244.338 194.626 244.19 194.717C244.022 194.877 243.828 194.99 243.608 195.058L243.548 195.075L243.526 195.081C243.522 195.083 243.519 195.083 243.515 195.083C243.513 195.085 243.509 195.085 243.507 195.085C243.42 195.107 243.331 195.121 243.239 195.125C242.975 195.185 242.712 195.174 242.447 195.087C242.29 195.018 242.132 194.948 241.974 194.878C241.84 194.772 241.707 194.663 241.573 194.555C241.469 194.415 241.366 194.274 241.262 194.136C241.117 193.899 241.039 193.641 241.028 193.366C240.98 193.182 240.98 193 241.028 192.815C241.028 192.628 241.073 192.455 241.162 192.294C241.242 192.036 241.378 191.814 241.573 191.626C241.707 191.518 241.84 191.409 241.974 191.303C242.132 191.233 242.29 191.163 242.447 191.095ZM126.581 184.302C126.855 184.224 127.129 184.224 127.404 184.302L127.772 184.463C127.954 184.566 128.098 184.704 128.207 184.881C128.345 185.036 128.437 185.22 128.484 185.431C128.592 185.719 128.579 186.177 128.494 186.471C128.397 186.805 128.248 187.07 128.018 187.321C127.634 187.734 127.046 187.854 126.524 187.729C126.381 187.695 126.245 187.628 126.121 187.547C125.727 187.292 125.462 186.848 125.464 186.357C125.464 186.304 125.467 186.251 125.474 186.198C125.449 186.089 125.44 185.977 125.444 185.86L125.498 185.431L125.502 185.42C125.574 185.148 125.705 184.913 125.896 184.714C126.072 184.532 126.277 184.4 126.512 184.321L126.572 184.302H126.581ZM263.663 141.697C263.167 137.447 261.301 132.876 255.61 135.371L255.187 135.536C253.779 136.093 252.138 136.825 251.281 138.111C250.691 138.997 250.89 140.714 250.809 141.748C250.438 145.11 250.637 148.468 251.023 151.815C251.522 159.663 249.943 167.793 246.798 174.925C249.945 180.245 254.158 185.206 259.904 187.423C260.148 181.375 261.281 175.438 262.488 169.537L262.535 169.28C263.018 166.618 263.259 163.887 264.933 161.674C268.337 157.814 273.019 159.999 275.259 153.798C274.788 153.55 275.048 152.7 275.615 152.863C277.58 153.227 277.899 149.423 276.554 148.506C275.153 147.614 276.564 145.968 275.967 144.78C275.635 144.268 274.917 144.251 274.592 143.66C273.73 141.488 278.045 140.096 272.971 137.647C271.932 137.261 270.771 137.501 269.724 137.496C268.183 137.646 266.958 138.78 265.549 139.137C267.083 143.286 263.212 147.282 259.718 143.968C257.816 145.845 255.69 150.124 260.312 148.129C262.574 146.552 264.522 144.514 267.148 143.543L267.203 143.525C268.178 143.191 272.444 141.026 272.233 142.9C270.635 144.511 267.999 144.492 266.149 145.799C263.583 147.038 261.942 150.041 258.871 149.999C258.163 154.49 263.042 151.758 264.859 150.519L265.362 150.234C267.925 148.788 270.526 147.448 273.515 147.431C274.34 147.425 274.336 148.753 273.515 148.764C269.62 148.79 266.45 151.333 263.187 153.223C262.866 155.844 266.541 154.697 267.936 154.31C269.398 154.095 271.747 152.444 273.026 153.316C273.527 154.659 271.324 154.559 270.557 154.967C274.059 156.723 270.991 157.829 270.052 155.13L269.777 155.228C267.433 156.051 261.748 157.745 262.425 153.597C261.566 153.994 260.52 154.231 259.572 154.011C257.208 157.663 253.436 156.25 258.918 153.76C257.683 153.16 257.27 150.843 258.457 149.981C254.142 149.706 257.346 144.977 259.131 143.401C258.963 143.223 258.8 143.042 258.647 142.858C257.617 143.37 256.535 143.681 255.377 143.791C254.269 143.896 254.023 141.926 255.116 141.765C256.288 141.592 257.367 141.266 258.399 140.651C259.962 139.946 260.496 142.976 262.061 143.084C262.915 143.26 263.492 142.479 263.663 141.697ZM227.334 180.799C227.712 180.799 228.048 180.965 228.322 181.226C228.596 181.488 228.715 181.881 228.731 182.257C228.738 182.458 228.698 182.646 228.611 182.82C228.555 183 228.458 183.156 228.322 183.289C228.068 183.553 227.692 183.716 227.334 183.716C226.956 183.716 226.62 183.551 226.346 183.289C226.071 183.025 225.953 182.634 225.937 182.257C225.93 182.057 225.97 181.87 226.057 181.695C226.107 181.533 226.191 181.389 226.306 181.266L226.346 181.226C226.6 180.961 226.976 180.799 227.334 180.799ZM238.784 171.801L238.844 171.802C239.164 171.804 239.46 171.887 239.736 172.054C239.856 172.151 239.976 172.246 240.094 172.343C240.314 172.574 240.465 172.846 240.548 173.159C240.634 173.485 240.634 173.813 240.548 174.14C240.519 174.328 240.452 174.51 240.347 174.667C240.19 174.938 239.983 175.157 239.722 175.318C239.451 175.483 239.158 175.565 238.844 175.566C238.53 175.565 238.237 175.483 237.967 175.318C237.705 175.157 237.498 174.938 237.344 174.667C237.236 174.51 237.169 174.328 237.14 174.14C237.055 173.813 237.055 173.485 237.14 173.159C237.218 172.868 237.353 172.613 237.548 172.393L237.594 172.343C237.754 172.163 237.943 172.036 238.163 171.961C238.356 171.856 238.563 171.802 238.784 171.801ZM151.403 171.903C151.538 171.865 151.671 171.865 151.805 171.903C152.005 171.912 152.192 171.975 152.364 172.089C152.466 172.172 152.568 172.254 152.67 172.335L152.758 172.447C152.948 172.688 152.953 172.729 153.098 173.096C153.158 173.301 153.167 173.506 153.124 173.711C153.124 173.85 153.089 173.979 153.024 174.098C152.988 174.229 152.926 174.343 152.833 174.438C152.768 174.553 152.681 174.646 152.57 174.715C152.428 174.849 152.261 174.942 152.068 174.99L151.678 175.045C151.627 175.037 151.574 175.03 151.523 175.024C151.462 175.022 151.402 175.015 151.344 175.003L151.285 174.99L151.232 174.975C151.16 174.953 151.091 174.924 151.024 174.887C150.897 174.849 150.786 174.783 150.691 174.684C150.528 174.574 150.397 174.426 150.303 174.242L150.277 174.182C150.243 174.117 150.214 174.051 150.192 173.979C150.13 173.865 150.099 173.743 150.097 173.612C150.061 173.438 150.064 173.266 150.107 173.093L150.123 173.035L150.263 172.688C150.335 172.571 150.412 172.451 150.51 172.354C150.569 172.3 150.713 172.182 150.794 172.123L150.844 172.089C151.017 171.975 151.204 171.912 151.403 171.903ZM129.502 169.19C129.764 168.114 131.115 167.774 131.851 168.543C132.586 169.311 132.261 170.723 131.232 170.996L131.113 171.026C130.118 171.29 129.22 170.351 129.473 169.311L129.502 169.19ZM254.191 160.414C254.184 160.308 254.315 160.27 254.38 160.333C255.256 161.152 255.814 162.135 256.876 162.771C257.945 163.408 259.045 163.357 260.159 163.769C260.537 163.909 260.539 164.437 260.159 164.575C258.052 165.344 254.351 162.738 254.191 160.414ZM155.175 160.247C155.409 160.171 155.645 160.16 155.88 160.215C156.04 160.215 156.188 160.257 156.325 160.34C156.475 160.384 156.605 160.464 156.715 160.577C156.848 160.659 156.953 160.771 157.033 160.909C157.19 161.088 157.295 161.297 157.349 161.536L157.411 162.027L157.349 162.518C157.289 162.664 157.229 162.813 157.171 162.959L157.009 163.188C156.877 163.372 156.856 163.374 156.537 163.621C156.334 163.755 156.114 163.83 155.88 163.839C155.723 163.885 155.567 163.885 155.409 163.839C155.251 163.839 155.102 163.797 154.964 163.714C154.815 163.67 154.684 163.59 154.573 163.477C154.381 163.346 154.23 163.173 154.119 162.959C154.059 162.813 154 162.664 153.941 162.518L153.878 162.027L153.941 161.536L153.945 161.52C154.028 161.213 154.178 160.946 154.392 160.72L154.744 160.435C154.882 160.342 155.026 160.295 155.175 160.247ZM239.978 160.615C240.481 160.471 241.033 160.623 241.402 161.008C241.771 161.393 241.916 161.968 241.778 162.494C241.642 163.006 241.248 163.421 240.755 163.56C240.608 163.602 240.459 163.625 240.308 163.617C240.056 163.615 239.82 163.549 239.6 163.416L239.317 163.186C239.178 163.054 239.082 162.896 239.026 162.714C238.937 162.539 238.897 162.352 238.904 162.149L238.902 162.112C238.897 162.04 238.906 161.968 238.928 161.898C238.928 161.824 238.939 161.752 238.957 161.682C239.09 161.169 239.489 160.756 239.978 160.615ZM131.495 155.477C131.656 155.472 131.807 155.506 131.947 155.584C132.094 155.633 132.22 155.716 132.325 155.838C132.441 155.948 132.521 156.081 132.568 156.232C132.643 156.379 132.676 156.536 132.67 156.705C132.67 156.927 132.616 157.134 132.51 157.323C132.449 157.407 132.387 157.49 132.325 157.572C132.18 157.726 132.007 157.83 131.807 157.889L131.691 157.931C131.52 157.995 131.353 157.999 131.175 157.974C130.988 157.948 130.815 157.895 130.663 157.773C130.514 157.682 130.396 157.559 130.309 157.403L130.209 157.156C130.187 157.073 130.178 156.948 130.172 156.86C130.172 156.847 130.172 156.836 130.17 156.823C130.17 156.749 130.192 156.568 130.21 156.494C130.25 156.339 130.332 156.191 130.425 156.065C130.505 155.935 130.614 155.832 130.748 155.756L130.76 155.747L130.774 155.737C130.815 155.707 130.859 155.677 130.903 155.644C131.084 155.534 131.282 155.477 131.495 155.477ZM225.305 154.13C225.595 154.13 225.866 154.208 226.117 154.36C226.126 154.363 226.135 154.367 226.142 154.371C226.382 154.519 226.573 154.719 226.715 154.969C226.86 155.229 226.932 155.51 226.932 155.81C226.932 156.111 226.86 156.39 226.715 156.65C226.573 156.901 226.382 157.1 226.142 157.248C226.135 157.253 226.126 157.257 226.117 157.261C225.866 157.413 225.595 157.488 225.305 157.49C225.016 157.488 224.745 157.413 224.494 157.261C224.004 156.961 223.697 156.401 223.697 155.81C223.697 155.217 224.004 154.658 224.494 154.36C224.745 154.208 225.016 154.13 225.305 154.13ZM149.863 151.936L149.912 151.935C150.105 151.927 150.284 151.969 150.45 152.062C150.622 152.121 150.773 152.222 150.9 152.364L151.166 152.595L151.243 152.66C151.255 152.671 151.268 152.683 151.28 152.694C151.458 152.882 151.58 153.102 151.649 153.356C151.671 153.502 151.689 153.646 151.703 153.792C151.743 154.172 151.529 154.561 151.293 154.83C151.166 154.973 151.015 155.073 150.84 155.134C150.673 155.225 150.492 155.267 150.299 155.259C149.905 155.223 149.531 155.136 149.247 154.817C149.214 154.779 149.183 154.739 149.151 154.699L148.924 154.426C148.751 154.244 148.631 154.03 148.566 153.783C148.548 153.652 148.531 153.523 148.515 153.394C148.499 153.005 148.68 152.641 148.924 152.364C149.149 152.107 149.53 151.951 149.863 151.936ZM140.693 147.941C142.582 147.941 142.578 151.002 140.693 151.002C138.805 151.002 138.809 147.941 140.693 147.941ZM235.682 143.65L235.741 143.651C236.054 143.653 236.346 143.735 236.617 143.9L236.969 144.182C237.184 144.41 237.333 144.676 237.416 144.983C237.436 145.144 237.456 145.306 237.478 145.465C237.487 145.715 237.436 145.949 237.327 146.165C237.258 146.389 237.138 146.584 236.969 146.749C236.811 146.926 236.626 147.051 236.41 147.123C236.203 147.237 235.979 147.29 235.741 147.281C235.427 147.279 235.135 147.197 234.864 147.032C234.746 146.937 234.63 146.842 234.512 146.749C234.314 146.539 234.172 146.297 234.087 146.019L234.066 145.949L234.003 145.465C233.994 145.216 234.045 144.983 234.154 144.767C234.223 144.541 234.343 144.347 234.512 144.182C234.67 144.006 234.857 143.88 235.071 143.809C235.261 143.704 235.465 143.651 235.682 143.65ZM227.172 137.921C227.341 137.915 227.497 137.951 227.645 138.031C227.795 138.082 227.926 138.171 228.037 138.295C228.271 138.49 228.415 138.881 228.415 139.198C228.415 139.515 228.271 139.906 228.037 140.101C227.884 140.258 227.704 140.369 227.497 140.429L227.172 140.475C226.856 140.49 226.535 140.317 226.309 140.101C226.264 140.058 226.22 140.014 226.175 139.972C225.97 139.775 225.881 139.481 225.868 139.198C225.862 139.048 225.893 138.908 225.959 138.777C226.001 138.64 226.073 138.524 226.175 138.424C226.22 138.382 226.264 138.339 226.309 138.295C226.555 138.058 226.842 137.938 227.172 137.921ZM281.087 127.715C282.28 126.196 281.585 125.116 279.791 125.491C276.701 125.928 273.793 127.967 271.072 129.43C268.101 131.069 265.04 132.42 262.01 133.96C263.26 134.761 264.19 136.016 264.9 137.449C266.318 136.324 268.131 135.786 269.9 135.716C273.11 132.506 278.425 131.77 281.087 127.715ZM140.057 132.757C140.381 132.758 140.684 132.838 140.968 132.996L141.029 133.032L141.417 133.346C141.606 133.529 141.739 133.745 141.817 133.993C141.937 134.233 141.991 134.492 141.982 134.769C141.991 135.047 141.937 135.305 141.817 135.544C141.739 135.794 141.606 136.008 141.417 136.191C141.31 136.337 141.172 136.451 141.007 136.534C140.852 136.6 140.7 136.669 140.545 136.737C140.373 136.794 140.173 136.802 139.986 136.811C139.646 136.809 139.33 136.72 139.036 136.542L138.654 136.234C138.471 136.056 138.34 135.845 138.263 135.601C138.155 135.385 138.101 135.155 138.101 134.909L138.102 134.842C138.102 134.827 138.102 134.809 138.104 134.792C138.126 134.614 138.149 134.436 138.173 134.257C138.233 133.995 138.347 133.766 138.518 133.572C138.562 133.481 138.62 133.407 138.694 133.346C138.934 133.096 139.217 132.925 139.544 132.828C139.715 132.806 139.886 132.781 140.057 132.757ZM224.348 127.729L224.404 127.73C224.649 127.73 224.876 127.795 225.087 127.922C225.179 127.996 225.27 128.07 225.361 128.144C225.53 128.32 225.646 128.529 225.71 128.768L225.759 129.144C225.764 129.339 225.726 129.519 225.641 129.689C225.586 129.863 225.494 130.015 225.361 130.144C225.239 130.282 225.094 130.379 224.925 130.436C224.765 130.525 224.591 130.565 224.404 130.558C224.16 130.558 223.931 130.493 223.721 130.364C223.63 130.292 223.537 130.218 223.446 130.144C223.293 129.982 223.183 129.793 223.116 129.579L223.099 129.519L223.05 129.144C223.043 128.948 223.081 128.768 223.166 128.599C223.221 128.423 223.316 128.271 223.446 128.144C223.57 128.005 223.715 127.909 223.882 127.852C224.028 127.771 224.184 127.731 224.348 127.729ZM150.675 125.674L150.739 125.675C151.1 125.677 151.436 125.772 151.749 125.962C151.883 126.07 152.018 126.178 152.152 126.288C152.401 126.548 152.572 126.856 152.668 127.21L152.739 127.764C152.75 128.053 152.691 128.32 152.566 128.569C152.486 128.829 152.348 129.053 152.152 129.242C151.972 129.446 151.758 129.59 151.509 129.673C151.271 129.804 151.015 129.865 150.739 129.853C150.377 129.853 150.041 129.758 149.728 129.569C149.594 129.461 149.46 129.351 149.324 129.242C149.076 128.981 148.906 128.673 148.809 128.32L148.738 127.764C148.727 127.478 148.786 127.209 148.911 126.96C148.991 126.702 149.129 126.476 149.324 126.288C149.505 126.083 149.719 125.939 149.968 125.856C150.188 125.735 150.423 125.675 150.675 125.674ZM217.942 120.458C218.107 120.412 218.272 120.412 218.438 120.458C218.685 120.469 218.916 120.547 219.13 120.689L219.506 120.993C219.511 120.998 219.517 121.004 219.522 121.012C219.75 121.251 219.907 121.534 219.995 121.858L220.06 122.368C220.069 122.632 220.017 122.879 219.902 123.106C219.834 123.325 219.721 123.516 219.566 123.681L219.506 123.742C219.337 123.932 219.139 124.066 218.908 124.144C218.763 124.234 218.605 124.277 218.438 124.277C218.191 124.336 217.942 124.325 217.695 124.243C217.548 124.176 217.399 124.112 217.25 124.048L217.202 124.019C216.641 123.698 216.294 123.027 216.294 122.368C216.294 121.71 216.641 121.036 217.202 120.716C217.219 120.708 217.233 120.699 217.25 120.689C217.464 120.547 217.695 120.469 217.942 120.458Z" fill="#1D1E1D"/>
<path fill-rule="evenodd" clip-rule="evenodd" d="M195.283 30.9347C222.626 31.8389 224.276 45.4035 224.276 68.1519C224.276 90.9002 210.091 105.235 204.868 107.738C199.645 110.241 185.893 120.993 173.482 116.038C161.071 111.084 164.665 90.1512 164.665 81.1572C164.665 72.1632 167.941 30.0306 195.283 30.9347Z" fill="white"/>
<path fill-rule="evenodd" clip-rule="evenodd" d="M206.375 100.267C201.354 103.195 195.605 103.309 190.204 101.466C186.965 100.364 183.995 98.6602 181.215 96.6224C178.797 94.8484 176.639 92.8808 174.501 90.7916C172.74 86.7372 171.173 82.6901 170.439 78.2787C169.781 74.3189 169.694 70.2073 170.457 66.2551C176.099 61.4074 181.707 56.5198 187.308 51.6172C190.16 49.12 193.019 46.6366 195.913 44.1926C197.383 42.9517 198.838 41.6919 200.302 40.4453C200.544 40.2404 200.784 40.0355 201.026 39.8305C204.048 42.1415 207.289 44.1226 210.291 46.4713C211.862 47.7027 213.39 49.0138 214.845 50.393C215.608 51.1161 216.353 51.8617 217.079 52.6264C217.744 53.3248 218.385 54.3264 219.328 54.5903C219.457 54.6262 219.579 54.6338 219.693 54.6167C220.954 66.1451 221.85 78.5937 216.449 89.0633C214.093 93.6303 210.752 97.7134 206.375 100.267ZM173.71 104.504C173.019 103.843 174.049 102.772 174.738 103.431C179.063 107.568 184.716 109.761 190.427 110.776C191.349 110.94 190.956 112.403 190.041 112.24C184.078 111.18 178.218 108.817 173.71 104.504ZM168.521 110.852C167.696 110.39 168.43 109.08 169.254 109.542C172.624 111.429 176.319 112.409 180.068 113.072C180.99 113.234 180.596 114.697 179.682 114.535C175.806 113.851 172.003 112.802 168.521 110.852ZM182.234 46.906C185.03 44.2856 188.035 41.7922 191.208 39.6882C194.42 37.5594 197.928 36.2863 201.719 36.2559C201.454 36.4779 201.202 36.7246 200.946 36.954C200.23 37.5936 199.516 38.2368 198.802 38.8781C197.374 40.1626 195.942 41.445 194.533 42.7506C191.757 45.3234 188.972 47.883 186.202 50.4615C180.877 55.4174 175.667 60.4813 170.569 65.6916C170.597 65.5645 170.626 65.4374 170.655 65.3104C172.342 57.9485 176.933 51.875 182.234 46.906ZM204.15 36.5766C204.168 36.5197 204.181 36.4644 204.188 36.4115C211.464 37.4019 217.541 42.9933 219.55 50.3552C219.375 50.6095 219.279 50.9111 219.315 51.2316C219.334 51.3931 219.352 51.5563 219.37 51.7175C219.121 51.4597 218.865 51.2185 218.647 50.9889C217.922 50.2224 217.179 49.4766 216.416 48.7499C214.856 47.2644 213.235 45.8755 211.527 44.5797C208.557 42.3256 205.342 40.2537 201.801 39.1722C202.034 38.9729 202.266 38.7737 202.501 38.5764C203.2 37.9823 203.849 37.493 204.15 36.5766ZM217.194 28.7044C212.727 23.6062 206.541 19.8722 200.026 18.5744C193.806 17.3335 187.366 18.1513 181.489 20.5628C169.192 25.6098 159.49 36.7077 154.946 49.5678C152.297 57.0605 151.429 65.2742 152.225 73.2052C153.017 81.0999 155.293 89.2531 159.435 95.9697C159.815 96.5847 160.231 97.1745 160.667 97.7457C160.472 100.064 159.731 102.337 158.565 104.314C158.502 104.42 158.436 104.524 158.371 104.628C157.176 105.562 155.938 106.439 154.728 107.344C153.68 108.128 152.643 108.932 151.657 109.801C150.727 110.62 149.647 111.533 149.017 112.64C148.501 113.546 148.29 114.779 148.995 115.643C149.844 116.684 151.282 116.317 152.432 116.317C152.53 116.317 152.629 116.32 152.727 116.321C153.072 116.547 153.428 116.752 153.773 116.943C157.255 118.871 160.75 120.778 164.249 122.675C171.218 126.457 178.158 130.39 185.27 133.871C188.565 135.486 192.093 136.898 195.784 136.892C199.247 136.886 202.377 135.45 205.08 133.266C208.161 130.779 210.737 127.62 213.237 124.523C214.236 123.284 215.215 122.03 216.176 120.759C218.022 120.116 219.853 119.928 221.499 121.169C222.82 122.165 224.56 120.81 224.591 119.315C224.602 118.784 224.58 118.26 224.526 117.744C224.195 114.556 222.702 111.672 221.019 108.997C220.1 107.534 219.132 106.098 218.158 104.675C217.929 104.339 217.704 104.003 217.486 103.661C221.397 97.647 224.5 90.9778 226.408 84.0086C228.412 76.6754 229.093 69.0708 228.646 61.4719C227.959 49.8259 224.9 37.5006 217.194 28.7044Z" fill="#1D1E1D"/>
<path fill-rule="evenodd" clip-rule="evenodd" d="M207.955 91.8374C206.616 92.2422 205.18 92.2784 203.816 91.8603C202.579 91.4811 201.308 90.6465 200.398 89.5422C199.589 88.5612 199.065 87.369 199.085 86.0964C199.088 85.951 199.137 85.8297 199.214 85.7356C199.296 85.6342 199.411 85.5646 199.535 85.5344C199.662 85.5033 199.796 85.5143 199.91 85.5685C200.013 85.6175 200.102 85.7007 200.157 85.8224C200.297 86.0144 200.436 86.2036 200.576 86.3875C201.701 87.8387 202.791 88.9232 204.483 89.3121C205.401 89.5232 206.318 89.4296 207.159 89.1076C208.06 88.7628 208.874 88.1567 209.512 87.381C209.8 87.0304 210.141 86.8874 210.473 86.8849C210.85 86.8822 211.223 87.0653 211.504 87.3578C211.78 87.6454 211.965 88.0361 211.982 88.4449C211.996 88.8036 211.884 89.1784 211.586 89.5127C210.604 90.6141 209.332 91.4209 207.955 91.8374ZM207.913 73.6622C209.285 74.5331 211.375 76.5639 209.9 78.723C208.163 80.6267 205.662 78.4439 204.429 77.4568C203.286 76.6917 202.002 78.6594 203.063 79.5527C211.968 86.4393 215.583 73.89 208.607 72.6383C207.839 72.5003 207.554 73.3928 207.913 73.6622ZM195.081 69.8301C194.64 69.5356 194.121 69.4345 193.546 69.7077C193.097 69.921 192.309 70.6323 191.761 71.5672C191.386 72.2069 191.12 72.9572 191.175 73.7389C191.188 73.9204 191.124 74.0542 191.023 74.1532C190.943 74.2313 190.827 74.2888 190.691 74.3067C190.576 74.322 190.447 74.3082 190.342 74.274C190.143 74.209 190.037 74.0738 189.997 73.9635C189.614 72.8987 189.779 71.7104 190.209 70.6384C190.79 69.1916 191.844 67.9798 192.535 67.589C193.717 66.9202 195.112 66.8894 196.296 67.5708C197.304 68.1507 197.934 69.087 198.561 70.0414C198.694 70.2442 198.826 70.4456 198.963 70.6435C199.237 71.0399 199.264 71.4331 199.158 71.7703C199.04 72.1438 198.741 72.459 198.366 72.624C198.02 72.7764 197.618 72.7979 197.262 72.6412C196.962 72.5089 196.686 72.2509 196.512 71.8132C196.218 71.076 195.728 70.2626 195.081 69.8301ZM217.474 71.4703C217.172 71.6346 216.936 71.6841 216.601 71.5793C216.415 71.5212 216.232 71.4098 216.089 71.2601C215.947 71.1118 215.844 70.9273 215.805 70.7226C215.707 70.2174 215.442 69.7446 215.065 69.4364C214.743 69.1729 214.336 69.0332 213.885 69.112C213.398 69.1969 212.934 69.5231 212.614 69.9076C212.507 70.0363 212.424 70.1825 212.339 70.3276C212.182 70.5991 212.029 70.8514 211.812 71.0507C211.73 71.1266 211.606 71.1791 211.485 71.1791C211.437 71.1791 211.387 71.1708 211.34 71.1555C210.855 70.6474 210.762 70.262 210.778 69.8797C210.794 69.4788 210.945 69.073 211.19 68.6943C211.764 67.8059 212.853 67.0776 213.588 66.9126C214.594 66.6867 215.594 66.9579 216.395 67.545C217.22 68.1491 217.831 69.0871 218.021 70.1441C218.067 70.3987 218.048 70.6735 217.955 70.9118C217.864 71.1446 217.706 71.344 217.474 71.4703ZM197.301 60.359C196.697 60.9736 195.982 61.0688 195.258 61.1535C194.856 61.201 194.536 61.2393 194.22 61.3137C193.352 61.5183 192.495 61.8264 191.712 62.2701C190.894 62.7339 190.003 63.2934 189.361 64.01C189.209 64.1805 189.065 64.3595 188.921 64.5388C188.79 64.7024 188.664 64.8598 188.53 65.0116C188.377 65.1859 188.232 65.3687 188.087 65.5509C187.998 65.7047 187.98 65.7426 187.962 65.7819C187.935 65.8411 187.904 65.9073 187.868 65.9784C187.818 66.0757 187.761 66.1821 187.7 66.2787C187.6 66.4552 187.546 66.5038 187.499 66.5255C187.422 66.5615 187.348 66.5793 187.277 66.5697C187.21 66.5607 187.147 66.5272 187.085 66.4724C186.775 66.1987 186.684 65.7496 186.693 65.2729C186.707 64.5495 186.963 63.7485 187.198 63.2561C187.746 62.1121 188.505 60.9228 189.418 60.0689C190.461 59.0942 191.601 58.3564 192.91 57.8479C193.724 57.5318 194.666 57.2417 195.552 57.2783C196.191 57.3047 196.8 57.5028 197.303 57.9976C197.612 58.3013 197.76 58.7333 197.76 59.165C197.76 59.6053 197.606 60.0482 197.301 60.359ZM218.702 65.9875C218.664 66.0532 218.611 66.0986 218.552 66.1258C218.49 66.1543 218.42 66.1625 218.354 66.1508C218.288 66.1392 218.225 66.1079 218.175 66.06C218.127 66.0141 218.091 65.9533 218.074 65.8788C217.673 64.0392 216.895 62.6705 215.233 61.7879C214.415 61.3537 213.475 61.0778 212.585 60.8579C212.326 60.794 212.053 60.7525 211.778 60.7106C210.915 60.579 210.047 60.4284 209.484 59.7002C209.146 59.2616 209.003 58.7007 209.084 58.1877C209.159 57.7046 209.43 57.2617 209.921 56.9963C211.144 56.3359 212.664 56.9839 213.899 57.536C213.991 57.577 214.081 57.6172 214.169 57.656C215.376 58.1885 216.478 58.8913 217.384 59.8965C218.102 60.6939 218.768 61.8728 219.036 63.0855C219.259 64.0945 219.206 65.1245 218.702 65.9875Z" fill="#1D1E1D"/>
<path fill-rule="evenodd" clip-rule="evenodd" d="M413.2 218.562C413.441 218.57 413.365 218.499 413.276 218.482C413.251 218.509 413.225 218.536 413.2 218.562ZM406.078 223.858C399.339 224.657 392.592 223.926 385.887 223.193C372.302 222.185 358.812 225.121 345.2 224.225C328.189 223.508 311.132 222.162 294.178 224.431C289.488 224.539 282.009 225.805 283.709 218.543C285.943 199.872 288.93 181.295 292.129 162.767C294.841 152.381 295.037 134.415 302.462 127.192C303.547 126.201 307.441 122.993 308.47 122.563C313.588 120.657 322.814 119.169 326.62 115.129C329.703 109.91 328.269 102.788 333.063 98.5867C337.265 95.1549 346.436 95.8803 350.928 98.4573C354.472 100.756 355.027 105.222 357.236 108.524C357.78 109.315 359.074 111.222 359.805 111.838C361.584 113.551 367.831 115.35 369.635 115.681C379.815 117.768 384.891 119.057 392.898 125.825C413.819 147.192 410.853 184.983 416.642 212.923C416.879 215.995 418.746 220.163 415.416 222.141C412.548 223.515 409.175 223.365 406.078 223.858Z" fill="white"/>
<path fill-rule="evenodd" clip-rule="evenodd" d="M328.954 108.026C328.929 107.953 328.812 107.94 328.794 108.026C328.509 109.332 327.974 110.765 327.432 111.99C326.881 113.231 326.127 114.37 325.176 115.338C323.182 117.367 320.618 118.292 317.806 118.294L317.738 118.295C317.725 118.201 317.711 118.106 317.697 118.012L317.678 117.87C317.421 115.927 315.116 115.984 314.665 117.45C314.437 117.523 314.208 117.595 313.981 117.671L313.936 117.688C313.554 117.833 312.261 118.478 312.023 118.306C311.5 117.93 310.903 118.361 310.705 118.841C310.38 119.628 310.326 120.6 310.221 121.454L310.207 121.564L310.191 121.697C302.792 123.621 298.64 131.026 296.521 137.848C295.372 141.546 294.621 145.361 293.866 149.155C293.058 153.213 292.314 157.281 291.525 161.341C289.971 169.342 288.5 177.36 287.222 185.409L286.852 187.746C285.681 195.147 284.541 202.544 283.583 209.978C283.065 213.986 282.579 217.998 282.112 222.014C282.028 222.73 281.945 223.446 281.862 224.163L281.739 225.238C281.63 226.203 281.444 227.157 281.92 228.059C282.953 230.016 286.083 230.002 286.26 227.495C286.295 226.997 286.127 226.616 285.849 226.35L285.853 226.308C285.856 226.283 285.858 226.264 285.859 226.256C285.952 225.758 285.977 225.231 286.033 224.728C286.157 223.653 286.278 222.579 286.4 221.503C286.636 219.453 286.873 217.404 287.12 215.357C287.617 211.203 288.144 207.055 288.702 202.91L289.255 198.812C291.105 185.151 293.034 171.493 295.571 157.941C296.262 154.252 296.972 150.568 297.701 146.886C298.392 143.398 299.168 139.927 300.327 136.561C302.22 131.061 305.528 125.911 310.122 122.302C310.051 122.992 309.999 123.685 309.934 124.374C309.765 126.145 309.587 127.915 309.406 129.684C308.748 136.094 307.857 142.494 306.336 148.763C305.583 151.869 304.665 154.934 303.547 157.928C302.996 159.403 302.395 160.859 301.736 162.288C301.084 163.701 299.941 165.211 299.872 166.785C299.84 167.514 300.602 168.161 301.307 168.083C300.978 170.983 300.792 173.914 300.595 176.807C300.308 180.998 300.079 185.196 299.744 189.383C299.145 196.884 298.394 204.374 297.607 211.857C297.451 213.341 297.282 214.823 297.114 216.305L296.973 217.55C296.879 218.356 296.736 219.323 297.164 220.039C296.781 220.962 296.519 221.911 296.366 222.9C296.173 224.13 296.877 225.51 298.312 225.456C298.475 225.451 298.638 225.437 298.801 225.419C300.132 225.728 301.46 225.999 302.842 226.008C304.607 226.02 306.375 225.985 308.14 225.972C311.555 225.949 314.97 225.926 318.385 225.898C330.747 225.799 343.115 225.804 355.475 225.605L360.421 225.527C364.955 225.454 369.489 225.37 374.021 225.205C377.141 225.091 380.262 224.976 383.381 224.85L384.016 224.826C386.768 224.726 389.523 224.674 392.245 224.253C392.313 224.241 392.343 224.17 392.332 224.108L392.328 224.091L392.447 224.065C392.516 224.363 393.952 223.111 393.941 222.28C394.536 221.505 394.258 220.267 394.194 219.37C394.132 218.496 394.054 217.621 393.985 216.747C393.838 214.88 393.712 213.011 393.562 211.145C392.954 203.617 392.429 196.07 392.089 188.527C391.917 184.724 391.779 180.92 391.634 177.117C391.568 175.386 391.477 173.653 391.307 171.93L391.263 171.499C391.077 169.751 391.095 167.872 390.452 166.225C390.443 166.202 390.413 166.202 390.404 166.225C389.753 167.828 389.691 169.691 389.56 171.45C389.537 171.442 389.514 171.439 389.489 171.434C388.591 171.006 387.684 170.622 386.833 170.093C386.718 170.022 386.606 169.948 386.493 169.875C385.155 165.78 383.604 161.752 382.178 157.684C377.568 144.528 375.024 130.517 374.46 116.586C377.976 118.854 381.805 120.618 385.527 122.512L385.876 122.69C389.543 124.566 393.053 126.695 395.663 129.948C397.939 132.781 399.426 136.233 400.817 139.56C402.311 143.136 403.657 146.776 404.889 150.449C407.388 157.902 409.323 165.537 410.833 173.251C412.323 180.863 413.388 188.532 414.101 196.255C414.464 200.194 414.795 204.137 415.073 208.085C415.215 210.083 415.341 212.082 415.458 214.084C415.515 215.055 415.557 216.029 415.621 217C415.66 217.56 415.667 218.138 415.851 218.67C416.006 219.113 416.278 219.484 416.534 219.876C417 220.59 418.176 220.719 418.614 219.876L418.804 219.51C419.055 219.023 419.284 218.533 419.318 217.972C419.35 217.44 419.284 216.885 419.254 216.351C419.195 215.272 419.128 214.19 419.061 213.111C418.919 210.84 418.761 208.569 418.584 206.299C418.231 201.754 417.778 197.221 417.207 192.697C415.199 176.807 412.3 161.001 406.768 145.921C405.399 142.193 403.874 138.495 402.151 134.916C400.485 131.455 398.378 128.188 395.32 125.805C392.504 123.611 389.231 122.143 385.979 120.718L385.573 120.54C381.928 118.946 378.29 117.23 374.483 116.046C374.568 116.056 374.651 116.067 374.724 116.092C374.807 116.118 374.857 116.01 374.805 115.952C374.589 115.712 374.499 115.466 374.251 115.23C374.079 115.067 373.901 114.913 373.718 114.765L373.454 114.554C372.971 114.171 372.463 113.779 371.855 113.645C370.995 113.457 370.574 114.239 370.815 114.851C370.691 114.69 370.358 114.737 370.271 114.959C367.443 122.256 365.585 129.98 361.779 136.874C358.968 141.968 355.197 146.671 350.193 149.747C347.504 151.399 344.428 152.668 341.251 152.869C338.398 153.048 335.653 152.323 333.226 150.825C328.523 147.923 325.452 142.828 323.262 137.89C320.854 132.455 319.135 126.663 318.125 120.792C321.325 120.836 324.703 119.375 326.831 116.994C327.951 115.741 328.786 114.214 329.209 112.587C329.636 110.945 329.5 109.596 328.954 108.026ZM355.803 103.762C355.413 103.065 354.548 102.835 353.841 103.118C353.057 103.434 352.821 104.196 352.932 104.971C353.062 105.879 353.645 106.859 354.098 107.651C354.573 108.481 355.185 109.245 355.817 109.96C357.008 111.307 358.283 112.521 359.794 113.514C361.298 114.502 363 115.241 364.749 115.654L365.165 115.751C366.525 116.062 368.461 116.419 369.594 115.679C369.649 115.643 369.647 115.571 369.594 115.535C368.981 115.108 368.16 115.032 367.455 114.83C366.686 114.608 365.915 114.356 365.18 114.041C363.728 113.417 362.339 112.594 361.102 111.612C359.86 110.626 358.658 109.451 357.827 108.095C357.409 107.414 357.052 106.699 356.711 105.98C356.365 105.258 356.191 104.457 355.803 103.762Z" fill="black"/>
<path fill-rule="evenodd" clip-rule="evenodd" d="M310.958 70.0164C312.175 55.1824 315.878 42.0441 333.281 41.4839C341.135 41.5541 349.152 43.2232 356.374 46.3114C373.928 55.1163 379.497 87.2894 364.032 100.24C364.124 100.293 364.146 100.444 364.037 100.517C360.842 102.667 357.291 104.437 353.734 105.923C344.259 109.931 333.105 111.671 323.442 107.324C308.696 101.047 308.475 83.5806 310.958 70.0164Z" fill="white"/>
<path fill-rule="evenodd" clip-rule="evenodd" d="M281.933 63.1019C281.327 62.5559 280.875 61.8397 280.646 61.0366C280.437 60.3044 280.423 59.5049 280.644 58.7745C280.882 57.9909 281.394 57.3669 281.279 56.5514C281.266 56.4716 281.25 56.3883 281.226 56.305C280.783 54.7697 279.693 53.6617 280.083 51.9598C280.193 51.4794 280.4 51.0468 280.689 50.7065C280.657 50.3377 280.628 49.9654 280.605 49.5931C279.966 48.0951 279.989 46.3152 280.671 44.8402C280.754 44.085 280.88 43.3369 281.057 42.6012C280.976 41.9506 281.089 41.2343 281.298 40.6653C281.666 39.664 282.12 38.6772 282.612 37.7068C282.554 37.4414 282.58 37.161 282.727 36.9115C282.993 36.4582 283.345 36.0597 283.704 35.6702C283.959 35.2158 284.215 34.7652 284.469 34.3204C284.586 34.116 284.716 33.8892 284.859 33.649C284.469 32.9247 284.261 32.2187 284.673 31.3669C284.829 31.0469 285.255 30.8109 285.606 30.8319C285.99 30.8547 286.377 30.8719 286.766 30.8866C287.494 30.0077 288.318 29.2186 289.202 28.7644C290.097 28.0056 291.004 27.2611 291.887 26.5005C292.137 26.2843 292.388 26.068 292.638 25.8517C292.64 25.8464 292.642 25.8393 292.643 25.834C292.828 25.1621 293.035 24.499 293.242 23.8325C293.372 23.4194 293.411 22.9868 293.813 22.7617C294.653 22.2919 295.945 22.2174 296.909 22.1377C297.005 22.0526 297.1 21.9692 297.196 21.8841C296.758 20.7176 296.836 19.4784 297.387 18.3102C297.575 17.9131 298.227 17.734 298.585 17.9964C299.411 18.6027 300.391 18.8172 301.36 18.7285C302.785 17.6329 308.532 12.6787 309.42 12.1557C309.431 12.1369 309.44 12.1181 309.452 12.0995C309.951 11.3021 310.557 10.6617 311.239 10.1483C311.336 10.0467 311.433 9.94499 311.531 9.84323C311.445 9.23533 311.22 8.64836 310.857 8.15729C310.818 8.10056 310.774 8.0456 310.73 7.99242C310.095 7.2372 310.87 6.2657 311.756 6.66104C311.819 6.6894 311.883 6.71777 311.947 6.74791C312.628 7.05177 313.382 7.38204 314.167 7.66072C314.454 7.55311 314.747 7.45561 315.014 7.34818L317.873 6.19816C318.344 6.00882 318.842 5.84838 319.297 5.62589C319.456 4.56948 320.514 3.87666 321.613 3.91283C321.55 3.71002 321.455 3.51306 321.322 3.32639C321.283 3.27143 321.24 3.21824 321.196 3.16683C320.63 2.50912 321.385 1.28943 322.193 1.87446C322.25 1.91523 322.309 1.956 322.365 1.99678C322.59 2.15438 322.82 2.30223 323.052 2.44548C323.424 2.28309 323.843 2.24604 324.281 2.41782C325.252 2.79809 326.147 3.18474 327.002 3.78076C327.036 3.80504 327.072 3.82543 327.107 3.8483C327.532 3.3356 328.205 2.99274 328.812 2.99647C328.824 2.99647 328.834 2.99629 328.845 2.99611C329.298 2.30489 330.13 1.90318 330.932 2.00086C330.878 1.00897 331.871 0.123807 332.774 0.0161972C333.83 -0.109318 334.782 0.503897 335.099 1.53425C335.187 1.82109 335.275 2.10811 335.363 2.39513C336.183 1.98118 337.048 1.66402 337.952 1.50571C340.01 1.14512 342.022 1.52911 344.005 2.10067C344.203 2.15775 344.401 2.21643 344.599 2.27493C344.882 1.94714 345.147 1.61155 345.401 1.29829C345.839 0.757586 346.89 1.19015 346.819 1.88509C346.769 2.36464 346.964 2.70963 347.278 2.95481C347.622 3.00515 347.955 3.0204 348.457 3.01029C349.12 2.99682 349.422 2.97608 350.115 2.70555C350.439 2.57968 350.841 2.2487 351.029 1.95157C351.752 0.812189 353.586 0.505316 354.46 1.59169C355.379 1.18909 356.54 1.74433 357.05 2.5272C357.317 2.93655 357.874 3.16541 358.576 3.3622C359.102 3.50969 359.641 3.62138 360.181 3.71906C360.422 3.39198 360.93 3.17268 361.302 3.44694C361.554 3.63326 361.799 3.82454 362.041 4.02062C363.903 4.27732 365.756 4.28654 367.532 3.56004C369.035 2.94488 370.416 4.62497 370.168 6.03541C370.603 6.26216 371.076 6.41302 371.506 6.65058C372.444 7.1693 373.215 7.98923 373.684 8.95257C373.768 9.12506 373.844 9.30022 373.917 9.47626C374.268 9.76186 374.614 10.0551 374.953 10.3644C375.516 10.0755 376.078 9.7865 376.642 9.49753C377.063 9.28125 377.774 9.43194 377.857 9.99214C377.994 10.914 378.325 11.6781 378.798 12.3181C380.337 13.1265 381.816 14.0341 383.232 15.0429C384.861 15.5534 386.592 15.8513 388.015 16.1863C388.502 16.3016 388.768 16.938 388.494 17.3617C388.203 17.8102 387.912 18.2587 387.623 18.7073C388.433 19.4979 389.194 20.3241 389.911 21.1786C391.908 23.5541 393.58 26.1584 395.075 28.9169C395.667 29.1562 396.259 29.3938 396.851 29.6331C397.421 29.8636 397.678 30.5266 397.216 31.0141C396.996 31.2463 396.799 31.491 396.631 31.748C397.469 33.1362 398.456 34.4019 399.837 35.2316C400.257 35.4834 400.572 35.8787 400.741 36.3272C400.884 36.4229 401.026 36.5258 401.166 36.6304C401.556 36.9246 401.791 37.5664 401.334 37.9476C401.014 38.217 400.712 38.5361 400.457 38.8889C400.402 39.0892 400.345 39.2913 400.289 39.4917C401.572 40.6724 402.639 42.0445 403.44 43.5833C403.629 43.5532 403.824 43.5727 403.982 43.6897C405.414 44.7481 405.456 46.434 404.88 47.9409C405.228 50.2118 405.004 52.5395 404.334 54.7396C405.215 55.6189 405.745 56.8882 405.961 58.1115C406.342 60.2601 406.369 63.5646 406.468 65.7576C407.429 66.6848 408.113 67.885 408.494 69.1756C408.814 69.3351 409.135 69.4947 409.456 69.6542C409.741 69.7961 409.95 70.1701 409.934 70.4857C409.851 72.0121 409.222 73.2176 408.387 74.3096C408.091 75.1517 407.654 75.9282 407.079 76.6728C406.683 77.1833 406.294 77.6726 405.952 78.224C405.917 78.2789 405.896 78.3304 405.88 78.3658C406.014 78.5112 406.126 78.7523 406.224 78.9243C407.042 80.3673 407.055 82.0586 405.892 83.3155C406.33 83.6736 406.344 84.3969 405.958 84.8401C403.443 87.7138 401.347 91.208 397.857 92.7344C397.841 92.761 397.827 92.7876 397.815 92.8142C398.522 94.5161 398.618 95.4007 398.04 97.1594C398.036 97.1753 398.031 97.1895 398.026 97.2055C397.717 98.1273 397.15 99.6041 396.128 99.8913C395.805 99.9817 395.488 100.022 395.174 100.021C394.363 100.802 393.553 101.586 392.743 102.37C392.672 102.758 392.628 103.15 392.614 103.545C392.591 104.206 391.969 104.742 391.299 104.547C391.063 104.478 389.759 103.21 389.52 103.217C389.399 103.338 389.282 103.458 389.165 103.58C388.735 104.033 388.137 104.745 388.088 105.219C387.992 106.11 387.407 107.131 386.463 107.312C386.108 107.672 385.541 107.78 385.107 107.31C385.079 107.28 385.05 107.25 385.02 107.224C384.974 107.218 384.93 107.213 384.884 107.208C384.675 107.832 384.466 108.456 384.255 109.078C383.842 110.305 382.265 111.094 381.145 110.377C380.964 110.486 380.787 110.601 380.609 110.716C380.34 110.888 380.067 111.063 379.787 111.228C379.771 111.274 379.755 111.321 379.741 111.365C379.56 111.916 378.809 112.212 378.346 111.895C378.203 111.941 378.056 111.978 377.907 112.008C377.125 112.163 376.339 112.12 375.584 111.859C375.043 111.675 374.528 111.322 373.946 111.274C373.91 111.271 373.873 111.274 373.836 111.273C373.361 112.245 372.278 113.082 371.424 113.367C370.305 113.74 369.16 113.606 368.142 113.15C367.867 113.699 367.522 114.22 367.109 114.701C366.881 114.967 366.468 114.91 366.232 114.701C365.785 114.304 365.34 113.905 364.896 113.506C364.574 113.382 364.25 113.233 363.911 113.095C362.853 112.663 361.692 112.483 360.713 111.858C360.248 111.561 359.811 111.183 359.451 110.744C358.773 110.352 358.149 109.864 357.588 109.305C357.308 109.307 357.015 109.241 356.732 109.097C355.546 108.495 354.923 107.268 354.868 106.013C353.907 103.752 353.34 101.341 353.184 98.8737C353.135 98.0635 353.126 97.2462 353.188 96.4361C353.23 95.8652 353.374 95.484 353.59 94.9682C353.663 94.7997 353.728 94.6455 353.78 94.4753C353.767 93.9293 353.76 93.3833 353.753 92.839C353.606 92.3799 353.344 91.9526 352.979 91.5927C352.413 91.0361 352.155 89.8802 352.668 89.1924C353.003 88.7474 353.337 88.3024 353.671 87.8574C353.578 85.9481 353.12 82.9095 354.134 82.5904C354.093 82.3068 354.006 82.0267 353.957 81.7448C353.719 80.3904 353.861 79.1795 354.581 77.9953C354.731 77.7489 354.859 77.5308 354.963 77.3181C355.029 76.9281 355.094 76.538 355.16 76.148C355.261 75.5471 355.36 74.9408 355.445 74.3309C355.49 73.5544 355.53 72.7779 355.575 71.9997C355.615 71.2834 355.662 70.5672 355.709 69.8492C355.69 69.5284 355.662 69.2075 355.621 68.8866C355.378 66.9737 354.597 66.2664 353.243 64.9368C353.03 64.9031 352.819 64.8659 352.612 64.8233C351.646 64.623 350.636 64.3128 349.642 64.4244C348.562 64.545 347.597 65.0112 346.548 64.4156C346.239 64.2383 345.561 63.749 345.502 63.3608C345.498 63.3359 345.493 63.3147 345.486 63.2987C345.413 63.2881 345.32 63.2792 345.261 63.2774C344.428 63.2491 343.632 63.577 342.792 63.4866C341.798 63.3803 340.909 62.9388 340.324 62.2847C339.574 62.469 338.809 62.5524 338.031 62.4495C337.379 62.3644 336.794 62.1517 336.216 61.8361C335.796 61.6092 335.929 61.5436 335.472 61.728C334.432 62.1499 333.491 62.7066 332.319 62.4176C331.711 62.2687 331.187 61.9407 330.746 61.4993C330.641 61.3965 330.464 61.2423 330.345 61.0969C329.789 61.3788 328.389 62.0152 328.158 62.0719C327.506 62.2315 326.815 62.2067 326.181 61.9939C325.715 61.8379 325.144 61.4124 324.735 61.3256C324.205 61.2121 323.028 61.9496 322.395 62.2031C321.286 62.6481 320.111 62.758 318.988 62.2989C318.601 62.1411 317.85 61.5117 317.561 61.517C317.091 62.0968 315.78 65.2683 315.387 66.4259C313.794 71.1062 313.381 85.7194 314.116 89.4476C314.144 89.5576 314.175 89.6657 314.205 89.7756C315.108 93.0181 316.049 96.3155 317.561 99.3364C318.988 102.183 320.96 104.747 323.79 106.302C326.725 107.915 330.17 108.339 333.469 108.121C335.594 107.982 337.683 107.555 339.739 107.02C340.813 106.741 341.878 106.431 342.938 106.108C343.4 105.968 343.87 105.837 344.324 105.674C345.125 105.385 345.545 105.362 346.312 105.733C347.01 106.069 347.189 107.064 346.826 107.69C346.234 108.711 345.149 108.782 344.102 109.08C343.035 109.383 341.965 109.674 340.887 109.934C338.823 110.431 336.725 110.812 334.609 110.987C330.82 111.305 326.916 110.815 323.468 109.161C323.078 108.973 322.702 108.773 322.339 108.557C322.473 108.745 322.61 108.933 322.748 109.119C323.131 109.635 322.847 110.512 322.31 110.794C322.14 110.883 321.97 110.968 321.798 111.051C321.775 111.106 321.75 111.161 321.722 111.216C321.231 112.202 320.203 112.783 319.156 113.035C317.912 113.333 316.519 113.122 315.254 113.084C314.081 113.049 312.908 113.014 311.736 112.978C311.46 112.971 311.183 112.962 310.907 112.953C309.514 112.911 308.123 112.87 306.732 112.827C305.491 112.79 305.55 112.886 304.385 112.39C303.866 112.166 303.441 111.851 303.083 111.43C302.86 111.331 302.643 111.218 302.436 111.088C301.77 110.673 301.178 110.117 300.632 109.503C299.705 109.796 298.406 109.525 298.226 108.36C297.935 106.497 295.514 105.701 294.384 104.353C293.471 103.267 292.819 101.843 292.853 100.476C290.552 99.363 289.301 96.429 289.009 93.9399C288.872 92.7858 288.894 91.5502 288.697 90.3766C288.61 90.2826 288.532 90.1834 288.467 90.077C287.889 89.1427 287.386 88.1801 286.943 87.1944C286.34 86.7601 285.615 86.4924 284.857 86.4481C282.992 86.3399 282.642 83.8243 284.419 83.218C284.428 83.2144 284.435 83.2127 284.444 83.2091C283.962 82.0036 284.003 80.5765 284.587 79.4348C284.563 79.3107 284.54 79.1884 284.516 79.0643C283.519 77.9918 282.946 76.5008 283.01 75.0489C282.555 74.728 282.044 74.4798 281.486 74.3256C280.623 74.088 280.618 73.035 281.256 72.5634C281.513 72.3737 281.725 72.1521 281.903 71.9075C281.461 70.5814 281.635 69.0479 282.537 67.9594C281.965 67.2255 281.392 66.4915 280.82 65.7576C280.441 65.2719 280.24 64.4475 280.82 63.9866C281.19 63.6905 281.561 63.3962 281.933 63.1019Z" fill="black"/>
<path fill-rule="evenodd" clip-rule="evenodd" d="M322.88 94.3074L322.758 94.2791C321.778 94.0481 320.836 93.7341 319.925 94.341C319.056 94.9191 318.935 95.9884 319.612 96.7685C320.308 97.5704 321.232 97.5256 322.208 97.5366L322.269 97.5373C323.079 97.5485 323.902 97.5364 324.709 97.4646C325.461 97.3976 326.218 97.2906 326.962 97.15L327.401 97.0638C327.851 96.9728 328.293 96.8545 328.525 96.4196C328.928 95.6613 325.928 95.0664 325.563 94.9623C324.679 94.7097 323.777 94.5108 322.88 94.3074ZM321.216 85.165C321.694 85.6612 322.326 86.0002 323.035 86.2111C324.818 86.7413 327.092 86.4589 328.548 85.9186C328.85 85.8066 329.132 85.5781 329.294 85.2924C329.442 85.0315 329.493 84.7246 329.38 84.4117C329.348 84.3228 329.309 84.2355 329.269 84.1495C329.163 83.9157 328.945 83.7337 328.689 83.6297C328.424 83.5216 328.122 83.4996 327.88 83.5758C327.847 83.586 327.814 83.5965 327.78 83.6073C326.857 83.8982 325.345 84.3799 324.091 84.2865C323.339 84.2305 322.678 83.9647 322.335 83.2762C322.155 82.9131 322.205 82.5541 322.365 82.2253C322.606 81.7297 323.089 81.2984 323.496 81.0012C324.07 80.5822 324.681 80.4149 325.314 80.2383C325.553 80.1717 325.794 80.1042 326.038 80.0235C326.118 79.997 326.189 79.9449 326.241 79.8771C326.293 79.8102 326.328 79.7285 326.338 79.6465C326.349 79.5616 326.336 79.4769 326.296 79.404C326.26 79.3363 326.201 79.2768 326.114 79.2378C324.876 78.6829 323.275 79.0495 322.067 79.9225C321.462 80.3588 320.959 80.9192 320.648 81.5455C320.36 82.1267 320.238 82.7643 320.35 83.4146C320.477 84.1426 320.785 84.7177 321.216 85.165ZM341.506 72.7837C341.159 72.6304 340.873 73.3482 340.801 73.5439L340.653 73.9499C340.411 74.6047 340.134 75.2703 339.626 75.7562C339.201 76.1631 338.52 76.5079 338.027 76.0319C337.559 75.5803 337.787 75.0717 337.718 74.5177C337.594 73.5157 336.228 72.5143 335.407 73.5599C333.552 75.9223 336.422 79.2077 339.065 78.6313C340.41 78.3381 341.492 77.2597 341.937 75.9772L341.96 75.9095C342.226 75.0971 342.495 73.22 341.506 72.7837ZM317.568 74.429L317.581 74.3991C318.464 72.3885 315.313 71.5245 315.045 73.3297L315.028 73.4515C314.768 75.4555 315.316 78.1505 317.77 78.3503C320.524 78.5747 321.671 75.5005 321.425 73.2446C321.381 72.8408 320.891 72.7849 320.74 73.1519L320.707 73.232C320.263 74.3657 319.84 76.5461 318.274 76.5438C317.227 76.5422 317.277 75.1285 317.568 74.429ZM315.57 68.6089C313.987 68.5527 313.989 71.0314 315.57 71.0686C320.851 71.1929 326.136 71.3581 331.419 71.3865L332.379 71.3924C337.342 71.4256 342.321 71.4935 347.269 71.0768C347.691 71.0413 347.612 70.4481 347.26 70.4721C342.072 69.7335 336.822 69.5176 331.595 69.237C326.258 68.9503 320.911 68.7985 315.57 68.6089Z" fill="black"/>
<path fill-rule="evenodd" clip-rule="evenodd" d="M306.072 75.217C307.762 86.6497 319.556 87.914 321.652 76.5642C321.315 76.4168 321.073 76.1268 321.124 75.5638C321.136 73.0903 320.368 70.4762 318.138 69.1006C315.833 67.6813 313.136 67.5406 310.468 67.5764C305.379 67.4551 305.486 71.7111 306.072 75.217ZM323.498 70.2448C325.095 70.1774 327.116 70.2338 328.547 71.2074C328.941 70.1477 329.963 69.0161 330.996 68.411C327.157 68.5234 323.205 68.1454 319.338 67.852C320.264 68.4833 321.125 69.4318 321.685 70.5283C322.204 70.2512 322.948 70.2771 323.498 70.2448ZM330.539 76.4291C334.968 91.6816 346.025 85.0336 347.23 83.0789C349.404 79.8442 349.813 71.9811 347.919 69.8787C345.208 67.9776 341.371 68.4669 338.168 68.4202C332.284 68.4997 328.106 70.2604 330.539 76.4291ZM300.842 69.4139C302.046 69.2565 303.332 69.2247 304.451 69.7548C304.795 68.2899 305.877 67.0653 307.098 66.5263C307.246 66.3409 307.224 66.2413 307.728 66.2691C310.829 65.337 314.298 65.8302 317.277 66.7861C321.983 67.1825 326.919 67.495 331.664 68.0412C336.109 66.0443 349.522 65.7516 350.356 70.6735C351.405 70.5166 353.19 69.691 354.072 70.8109C360.535 69.7147 367.213 71.2381 373.704 71.9166C375.338 72.2176 376.179 75.4615 374.325 75.4172C373.282 75.134 374.357 73.3972 372.953 73.2666C366.69 72.5823 360.564 71.6115 354.237 71.4978C354.457 72.5908 350.052 72.6619 349.987 72.0236C349.978 72.0284 349.968 72.0316 349.958 72.0359C351.047 76.0938 350.064 81.9338 348.097 84.4501C345.341 87.7451 338.422 88.6903 335.354 86.5704C331.396 84.6138 327.279 74.7921 328.436 71.529C326.337 70.8635 324.262 71.0633 322.084 71.4023C322.582 72.8115 323.443 76.2805 322.205 76.5814C322.432 83.4687 316.166 87.7662 310.39 84.9409C305.391 82.5931 303.643 75.1619 304.254 70.6513C303.632 71.8543 298.406 70.5446 300.842 69.4139Z" fill="black"/>
</svg>
