<svg width="141" height="25" viewBox="0 0 141 25" fill="none" xmlns="http://www.w3.org/2000/svg">
<path d="M11.5156 15.0469C11.5156 16.2865 11.2812 17.4531 10.8125 18.5469C10.3438 19.6302 9.70312 20.5781 8.89062 21.3906C8.08854 22.1927 7.14062 22.8281 6.04688 23.2969C4.96354 23.7656 3.80208 24 2.5625 24C1.8125 24 1.0625 23.9062 0.3125 23.7188V18.9062C0.645833 19.1042 1.00521 19.2552 1.39062 19.3594C1.77604 19.4635 2.16667 19.5156 2.5625 19.5156C3.17708 19.5156 3.75521 19.401 4.29688 19.1719C4.84896 18.9323 5.32812 18.6094 5.73438 18.2031C6.14062 17.7969 6.45833 17.3229 6.6875 16.7812C6.92708 16.2396 7.04688 15.6615 7.04688 15.0469V1.59375H11.5156V15.0469ZM30.8906 15.4844C30.8906 16.7344 30.6667 17.901 30.2188 18.9844C29.7708 20.0573 29.1615 20.9896 28.3906 21.7812C27.6198 22.5625 26.7135 23.1823 25.6719 23.6406C24.6406 24.0885 23.5312 24.3125 22.3438 24.3125C21.1667 24.3125 20.0573 24.0885 19.0156 23.6406C17.9844 23.1823 17.0781 22.5625 16.2969 21.7812C15.526 20.9896 14.9167 20.0573 14.4688 18.9844C14.0208 17.901 13.7969 16.7344 13.7969 15.4844C13.7969 14.2135 14.0208 13.0365 14.4688 11.9531C14.9167 10.8698 15.526 9.9375 16.2969 9.15625C17.0781 8.36458 17.9844 7.74479 19.0156 7.29688C20.0573 6.84896 21.1667 6.625 22.3438 6.625C23.5312 6.625 24.6406 6.83854 25.6719 7.26562C26.7135 7.68229 27.6198 8.28125 28.3906 9.0625C29.1615 9.83333 29.7708 10.7656 30.2188 11.8594C30.6667 12.9427 30.8906 14.151 30.8906 15.4844ZM26.5938 15.4844C26.5938 14.7969 26.4792 14.1771 26.25 13.625C26.0312 13.0625 25.7292 12.5833 25.3438 12.1875C24.9583 11.7812 24.5052 11.474 23.9844 11.2656C23.474 11.0469 22.9271 10.9375 22.3438 10.9375C21.7604 10.9375 21.2083 11.0469 20.6875 11.2656C20.1771 11.474 19.7292 11.7812 19.3438 12.1875C18.9688 12.5833 18.6719 13.0625 18.4531 13.625C18.2344 14.1771 18.125 14.7969 18.125 15.4844C18.125 16.1302 18.2344 16.7292 18.4531 17.2812C18.6719 17.8333 18.9688 18.3125 19.3438 18.7188C19.7292 19.125 20.1771 19.4479 20.6875 19.6875C21.2083 19.9167 21.7604 20.0312 22.3438 20.0312C22.9271 20.0312 23.474 19.9219 23.9844 19.7031C24.5052 19.4844 24.9583 19.1771 25.3438 18.7812C25.7292 18.3854 26.0312 17.9062 26.25 17.3438C26.4792 16.7812 26.5938 16.1615 26.5938 15.4844ZM50 15.4844C50 16.7969 49.776 17.9948 49.3281 19.0781C48.8802 20.1615 48.2708 21.0938 47.5 21.875C46.7292 22.6458 45.8229 23.2448 44.7812 23.6719C43.75 24.099 42.6406 24.3125 41.4531 24.3125C40.276 24.3125 39.1667 24.0938 38.125 23.6562C37.0938 23.2188 36.1875 22.6094 35.4062 21.8281C34.6354 21.0469 34.026 20.1198 33.5781 19.0469C33.1302 17.9635 32.9062 16.776 32.9062 15.4844V0.609375H37.1875V8.42188C37.4167 8.13021 37.6927 7.86979 38.0156 7.64062C38.349 7.41146 38.7031 7.22396 39.0781 7.07812C39.4635 6.93229 39.8594 6.82292 40.2656 6.75C40.6719 6.66667 41.0677 6.625 41.4531 6.625C42.6406 6.625 43.75 6.84896 44.7812 7.29688C45.8229 7.73438 46.7292 8.34896 47.5 9.14062C48.2708 9.93229 48.8802 10.8698 49.3281 11.9531C49.776 13.026 50 14.2031 50 15.4844ZM45.7031 15.4844C45.7031 14.8385 45.5885 14.2396 45.3594 13.6875C45.1406 13.125 44.8385 12.6406 44.4531 12.2344C44.0677 11.8281 43.6146 11.5104 43.0938 11.2812C42.5833 11.0521 42.0365 10.9375 41.4531 10.9375C40.8698 10.9375 40.3177 11.0677 39.7969 11.3281C39.2865 11.5781 38.8385 11.9167 38.4531 12.3438C38.0677 12.7604 37.7656 13.2448 37.5469 13.7969C37.3281 14.3385 37.2188 14.901 37.2188 15.4844C37.2188 16.1302 37.3281 16.7292 37.5469 17.2812C37.7656 17.8333 38.0677 18.3125 38.4531 18.7188C38.8385 19.125 39.2865 19.4479 39.7969 19.6875C40.3177 19.9167 40.8698 20.0312 41.4531 20.0312C42.0365 20.0312 42.5833 19.9167 43.0938 19.6875C43.6146 19.4479 44.0677 19.125 44.4531 18.7188C44.8385 18.3125 45.1406 17.8333 45.3594 17.2812C45.5885 16.7292 45.7031 16.1302 45.7031 15.4844ZM70.75 17.2812C70.75 18.2083 70.5729 19.0781 70.2188 19.8906C69.8646 20.7031 69.3802 21.4167 68.7656 22.0312C68.1615 22.6354 67.4531 23.1146 66.6406 23.4688C65.8281 23.8229 64.9583 24 64.0312 24H52.8281V1.59375H64.0312C64.9583 1.59375 65.8281 1.77083 66.6406 2.125C67.4531 2.47917 68.1615 2.96354 68.7656 3.57812C69.3802 4.18229 69.8646 4.89062 70.2188 5.70312C70.5729 6.51562 70.75 7.38542 70.75 8.3125C70.75 8.72917 70.6927 9.15625 70.5781 9.59375C70.4635 10.0312 70.3021 10.4531 70.0938 10.8594C69.8854 11.2656 69.6354 11.6354 69.3438 11.9688C69.0521 12.3021 68.7292 12.5781 68.375 12.7969C68.7396 12.9948 69.0677 13.2656 69.3594 13.6094C69.651 13.9427 69.901 14.3125 70.1094 14.7188C70.3177 15.125 70.474 15.5521 70.5781 16C70.6927 16.4375 70.75 16.8646 70.75 17.2812ZM57.3125 19.5156H64.0312C64.3438 19.5156 64.6354 19.4583 64.9062 19.3438C65.1771 19.2292 65.4115 19.0729 65.6094 18.875C65.8177 18.6667 65.9792 18.4271 66.0938 18.1562C66.2083 17.8854 66.2656 17.5938 66.2656 17.2812C66.2656 16.9688 66.2083 16.6771 66.0938 16.4062C65.9792 16.1354 65.8177 15.901 65.6094 15.7031C65.4115 15.4948 65.1771 15.3333 64.9062 15.2188C64.6354 15.1042 64.3438 15.0469 64.0312 15.0469H57.3125V19.5156ZM57.3125 10.5625H64.0312C64.3438 10.5625 64.6354 10.5052 64.9062 10.3906C65.1771 10.276 65.4115 10.1198 65.6094 9.92188C65.8177 9.71354 65.9792 9.47396 66.0938 9.20312C66.2083 8.92188 66.2656 8.625 66.2656 8.3125C66.2656 8 66.2083 7.70833 66.0938 7.4375C65.9792 7.16667 65.8177 6.93229 65.6094 6.73438C65.4115 6.52604 65.1771 6.36458 64.9062 6.25C64.6354 6.13542 64.3438 6.07812 64.0312 6.07812H57.3125V10.5625ZM89.8594 15.4844C89.8594 16.7344 89.6354 17.901 89.1875 18.9844C88.7396 20.0573 88.1302 20.9896 87.3594 21.7812C86.5885 22.5625 85.6823 23.1823 84.6406 23.6406C83.6094 24.0885 82.5 24.3125 81.3125 24.3125C80.1354 24.3125 79.026 24.0885 77.9844 23.6406C76.9531 23.1823 76.0469 22.5625 75.2656 21.7812C74.4948 20.9896 73.8854 20.0573 73.4375 18.9844C72.9896 17.901 72.7656 16.7344 72.7656 15.4844C72.7656 14.2135 72.9896 13.0365 73.4375 11.9531C73.8854 10.8698 74.4948 9.9375 75.2656 9.15625C76.0469 8.36458 76.9531 7.74479 77.9844 7.29688C79.026 6.84896 80.1354 6.625 81.3125 6.625C82.5 6.625 83.6094 6.83854 84.6406 7.26562C85.6823 7.68229 86.5885 8.28125 87.3594 9.0625C88.1302 9.83333 88.7396 10.7656 89.1875 11.8594C89.6354 12.9427 89.8594 14.151 89.8594 15.4844ZM85.5625 15.4844C85.5625 14.7969 85.4479 14.1771 85.2188 13.625C85 13.0625 84.6979 12.5833 84.3125 12.1875C83.9271 11.7812 83.474 11.474 82.9531 11.2656C82.4427 11.0469 81.8958 10.9375 81.3125 10.9375C80.7292 10.9375 80.1771 11.0469 79.6562 11.2656C79.1458 11.474 78.6979 11.7812 78.3125 12.1875C77.9375 12.5833 77.6406 13.0625 77.4219 13.625C77.2031 14.1771 77.0938 14.7969 77.0938 15.4844C77.0938 16.1302 77.2031 16.7292 77.4219 17.2812C77.6406 17.8333 77.9375 18.3125 78.3125 18.7188C78.6979 19.125 79.1458 19.4479 79.6562 19.6875C80.1771 19.9167 80.7292 20.0312 81.3125 20.0312C81.8958 20.0312 82.4427 19.9219 82.9531 19.7031C83.474 19.4844 83.9271 19.1771 84.3125 18.7812C84.6979 18.3854 85 17.9062 85.2188 17.3438C85.4479 16.7812 85.5625 16.1615 85.5625 15.4844ZM108.422 24H107.391L105.734 21.7031C105.328 22.0677 104.896 22.4115 104.438 22.7344C103.99 23.0469 103.516 23.3229 103.016 23.5625C102.516 23.7917 102 23.974 101.469 24.1094C100.948 24.2448 100.417 24.3125 99.875 24.3125C98.6979 24.3125 97.5885 24.1146 96.5469 23.7188C95.5156 23.3229 94.6094 22.75 93.8281 22C93.0573 21.2396 92.4479 20.3125 92 19.2188C91.5521 18.125 91.3281 16.8802 91.3281 15.4844C91.3281 14.1823 91.5521 12.9896 92 11.9062C92.4479 10.8125 93.0573 9.875 93.8281 9.09375C94.6094 8.3125 95.5156 7.70833 96.5469 7.28125C97.5885 6.84375 98.6979 6.625 99.875 6.625C100.417 6.625 100.953 6.69271 101.484 6.82812C102.016 6.96354 102.531 7.15104 103.031 7.39062C103.531 7.63021 104.005 7.91146 104.453 8.23438C104.911 8.55729 105.339 8.90625 105.734 9.28125L107.391 7.29688H108.422V24ZM104.125 15.4844C104.125 14.901 104.01 14.3385 103.781 13.7969C103.562 13.2448 103.26 12.7604 102.875 12.3438C102.49 11.9167 102.036 11.5781 101.516 11.3281C101.005 11.0677 100.458 10.9375 99.875 10.9375C99.2917 10.9375 98.7396 11.0365 98.2188 11.2344C97.7083 11.4323 97.2604 11.724 96.875 12.1094C96.5 12.4948 96.2031 12.974 95.9844 13.5469C95.7656 14.1094 95.6562 14.7552 95.6562 15.4844C95.6562 16.2135 95.7656 16.8646 95.9844 17.4375C96.2031 18 96.5 18.474 96.875 18.8594C97.2604 19.2448 97.7083 19.5365 98.2188 19.7344C98.7396 19.9323 99.2917 20.0312 99.875 20.0312C100.458 20.0312 101.005 19.9062 101.516 19.6562C102.036 19.3958 102.49 19.0573 102.875 18.6406C103.26 18.2135 103.562 17.7292 103.781 17.1875C104.01 16.6354 104.125 16.0677 104.125 15.4844ZM115.953 24H111.688V7.26562H112.719L114.125 9.25C114.812 8.625 115.594 8.14583 116.469 7.8125C117.344 7.46875 118.25 7.29688 119.188 7.29688H122.953V11.5469H119.188C118.74 11.5469 118.318 11.6302 117.922 11.7969C117.526 11.9635 117.182 12.1927 116.891 12.4844C116.599 12.776 116.37 13.1198 116.203 13.5156C116.036 13.9115 115.953 14.3333 115.953 14.7812V24ZM140.797 24H139.766L138.109 21.7031C137.703 22.0677 137.271 22.4115 136.812 22.7344C136.365 23.0469 135.891 23.3229 135.391 23.5625C134.891 23.7917 134.375 23.974 133.844 24.1094C133.323 24.2448 132.792 24.3125 132.25 24.3125C131.073 24.3125 129.964 24.0938 128.922 23.6562C127.891 23.2083 126.984 22.5938 126.203 21.8125C125.432 21.0208 124.823 20.0885 124.375 19.0156C123.927 17.9323 123.703 16.7552 123.703 15.4844C123.703 14.224 123.927 13.0521 124.375 11.9688C124.823 10.8854 125.432 9.94792 126.203 9.15625C126.984 8.36458 127.891 7.74479 128.922 7.29688C129.964 6.84896 131.073 6.625 132.25 6.625C132.625 6.625 133.01 6.65625 133.406 6.71875C133.812 6.78125 134.203 6.88542 134.578 7.03125C134.964 7.16667 135.323 7.34896 135.656 7.57812C135.99 7.80729 136.271 8.08854 136.5 8.42188V0.609375H140.797V24ZM136.5 15.4844C136.5 14.901 136.385 14.3385 136.156 13.7969C135.938 13.2448 135.635 12.7604 135.25 12.3438C134.865 11.9167 134.411 11.5781 133.891 11.3281C133.38 11.0677 132.833 10.9375 132.25 10.9375C131.667 10.9375 131.115 11.0417 130.594 11.25C130.083 11.4583 129.635 11.7604 129.25 12.1562C128.875 12.5417 128.578 13.0156 128.359 13.5781C128.141 14.1406 128.031 14.776 128.031 15.4844C128.031 16.099 128.141 16.6823 128.359 17.2344C128.578 17.7865 128.875 18.2708 129.25 18.6875C129.635 19.1042 130.083 19.4323 130.594 19.6719C131.115 19.9115 131.667 20.0312 132.25 20.0312C132.833 20.0312 133.38 19.9062 133.891 19.6562C134.411 19.3958 134.865 19.0573 135.25 18.6406C135.635 18.2135 135.938 17.7292 136.156 17.1875C136.385 16.6354 136.5 16.0677 136.5 15.4844Z" fill="#00E676"/>
</svg>
