<svg width="32" height="32" viewBox="0 0 32 32" fill="none" xmlns="http://www.w3.org/2000/svg">
<path d="M16 4.33334C15.7348 4.33334 15.4804 4.43869 15.2929 4.62623C15.1054 4.81377 15 5.06812 15 5.33334C15 5.59855 15.1054 5.85291 15.2929 6.04044C15.4804 6.22798 15.7348 6.33334 16 6.33334C17.2694 6.33334 18.5265 6.58337 19.6993 7.06917C20.8721 7.55496 21.9377 8.267 22.8354 9.16464C23.733 10.0623 24.445 11.1279 24.9308 12.3007C25.4166 13.4735 25.6667 14.7306 25.6667 16C25.6667 17.2694 25.4166 18.5265 24.9308 19.6993C24.445 20.8721 23.733 21.9377 22.8354 22.8354C21.9377 23.733 20.8721 24.445 19.6993 24.9308C18.5265 25.4166 17.2694 25.6667 16 25.6667C15.7348 25.6667 15.4804 25.772 15.2929 25.9596C15.1054 26.1471 15 26.4015 15 26.6667C15 26.9319 15.1054 27.1862 15.2929 27.3738C15.4804 27.5613 15.7348 27.6667 16 27.6667C19.0942 27.6667 22.0617 26.4375 24.2496 24.2496C26.4375 22.0617 27.6667 19.0942 27.6667 16C27.6667 12.9058 26.4375 9.93835 24.2496 7.75042C22.0617 5.5625 19.0942 4.33334 16 4.33334Z" fill="white"/>
<path d="M13.96 12.7067C13.7834 12.5171 13.6872 12.2664 13.6918 12.0073C13.6963 11.7482 13.8013 11.5011 13.9845 11.3178C14.1677 11.1346 14.4149 11.0297 14.674 11.0251C14.933 11.0205 15.1838 11.1167 15.3733 11.2933L19.3733 15.2933C19.5606 15.4808 19.6658 15.735 19.6658 16C19.6658 16.265 19.5606 16.5192 19.3733 16.7067L15.3733 20.7067C15.2818 20.8049 15.1714 20.8837 15.0487 20.9384C14.9261 20.993 14.7936 21.0224 14.6594 21.0248C14.5251 21.0272 14.3917 21.0025 14.2672 20.9522C14.1427 20.9019 14.0296 20.827 13.9346 20.732C13.8397 20.6371 13.7648 20.524 13.7145 20.3995C13.6642 20.2749 13.6395 20.1416 13.6419 20.0073C13.6442 19.873 13.6736 19.7406 13.7283 19.6179C13.783 19.4953 13.8618 19.3849 13.96 19.2933L16.2533 17H5.33334C5.06812 17 4.81377 16.8946 4.62623 16.7071C4.43869 16.5196 4.33334 16.2652 4.33334 16C4.33334 15.7348 4.43869 15.4804 4.62623 15.2929C4.81377 15.1054 5.06812 15 5.33334 15H16.2533L13.96 12.7067Z" fill="white"/>
</svg>
