<svg width="32" height="32" viewBox="0 0 32 32" fill="none" xmlns="http://www.w3.org/2000/svg">
<path fill-rule="evenodd" clip-rule="evenodd" d="M16 1.66667C14.3203 1.66667 12.7094 2.33393 11.5217 3.52166C10.3339 4.70939 9.66666 6.3203 9.66666 8.00001C9.66666 9.67971 10.3339 11.2906 11.5217 12.4783C12.7094 13.6661 14.3203 14.3333 16 14.3333C17.6797 14.3333 19.2906 13.6661 20.4783 12.4783C21.6661 11.2906 22.3333 9.67971 22.3333 8.00001C22.3333 6.3203 21.6661 4.70939 20.4783 3.52166C19.2906 2.33393 17.6797 1.66667 16 1.66667ZM11.6667 8.00001C11.6667 6.85073 12.1232 5.74853 12.9359 4.93588C13.7485 4.12322 14.8507 3.66667 16 3.66667C17.1493 3.66667 18.2515 4.12322 19.0641 4.93588C19.8768 5.74853 20.3333 6.85073 20.3333 8.00001C20.3333 9.14928 19.8768 10.2515 19.0641 11.0641C18.2515 11.8768 17.1493 12.3333 16 12.3333C14.8507 12.3333 13.7485 11.8768 12.9359 11.0641C12.1232 10.2515 11.6667 9.14928 11.6667 8.00001Z" fill="white"/>
<path d="M26.4747 19.4307C26.6646 19.6155 26.7734 19.8682 26.7772 20.1332C26.7809 20.3982 26.6793 20.6539 26.4947 20.844L24.0507 23.364C23.9529 23.4645 23.8352 23.5433 23.7051 23.5953C23.5749 23.6473 23.4353 23.6714 23.2952 23.666C23.1552 23.6606 23.0178 23.6258 22.8921 23.5639C22.7663 23.502 22.655 23.4144 22.5653 23.3067L21.4533 21.9733C21.2836 21.7695 21.2018 21.5065 21.2259 21.2423C21.2501 20.9782 21.3781 20.7344 21.582 20.5647C21.7859 20.3949 22.0488 20.3131 22.313 20.3372C22.5772 20.3614 22.8209 20.4895 22.9907 20.6933L23.3907 21.1733L25.06 19.452C25.2447 19.2619 25.4972 19.1528 25.7623 19.1488C26.0273 19.1448 26.283 19.2462 26.4733 19.4307" fill="white"/>
<path fill-rule="evenodd" clip-rule="evenodd" d="M19.7 16.684C18.4808 16.4486 17.2417 16.3311 16 16.3333C12.916 16.3333 10.0733 17.0347 7.968 18.2187C5.89333 19.3867 4.33333 21.1547 4.33333 23.3333V23.4693C4.332 25.0187 4.33067 26.9627 6.036 28.352C6.87467 29.0347 8.04933 29.5213 9.636 29.8413C11.2253 30.164 13.2987 30.3333 16 30.3333C19.824 30.3333 22.4133 29.9947 24.16 29.3453C25.732 28.7587 26.6627 27.9027 27.16 26.8227C27.9319 26.3775 28.6012 25.7745 29.1241 25.053C29.6471 24.3315 30.0118 23.5078 30.1947 22.6356C30.3775 21.7635 30.3742 20.8626 30.185 19.9919C29.9959 19.1211 29.6251 18.3001 29.097 17.5824C28.5688 16.8647 27.8951 16.2665 27.12 15.827C26.3449 15.3875 25.4857 15.1165 24.5987 15.0317C23.7117 14.9469 22.8167 15.0502 21.9724 15.335C21.128 15.6197 20.3546 16.0794 19.7 16.684ZM19.6667 21.3333C19.6667 20.1841 20.1232 19.0819 20.9359 18.2692C21.7485 17.4566 22.8507 17 24 17C25.1493 17 26.2515 17.4566 27.0641 18.2692C27.8768 19.0819 28.3333 20.1841 28.3333 21.3333C28.3333 22.4826 27.8768 23.5848 27.0641 24.3975C26.2515 25.2101 25.1493 25.6667 24 25.6667C22.8507 25.6667 21.7485 25.2101 20.9359 24.3975C20.1232 23.5848 19.6667 22.4826 19.6667 21.3333ZM18.3413 18.4867C17.8905 19.3826 17.6589 20.3727 17.6655 21.3757C17.6722 22.3786 17.9169 23.3656 18.3796 24.2554C18.8423 25.1453 19.5097 25.9125 20.3269 26.494C21.1441 27.0754 22.0877 27.4545 23.08 27.6C21.6533 28.0493 19.436 28.3333 16 28.3333C13.3667 28.3333 11.44 28.1667 10.0307 27.8813C8.61733 27.596 7.79067 27.2027 7.29733 26.8013C6.38533 26.0587 6.332 25.0773 6.332 23.3333C6.332 22.1987 7.16133 20.9667 8.94667 19.9627C10.7013 18.976 13.192 18.3333 16 18.3333C16.8067 18.3333 17.592 18.3867 18.3413 18.4867Z" fill="white"/>
</svg>
