<svg width="370" height="204" viewBox="0 0 370 204" fill="none" xmlns="http://www.w3.org/2000/svg">
<path fill-rule="evenodd" clip-rule="evenodd" d="M5.56118 202.915C5.34227 202.923 5.41127 202.857 5.4917 202.841C5.51486 202.865 5.53802 202.89 5.56118 202.915ZM12.0248 207.879C18.1414 208.628 24.2655 207.943 30.3519 207.256C42.6825 206.311 54.9263 209.062 67.2811 208.223C82.7212 207.551 98.2032 206.289 113.592 208.416C117.848 208.517 124.637 209.704 123.094 202.897C121.066 185.397 118.355 167.985 115.451 150.62C112.99 140.885 112.812 124.046 106.073 117.276C105.088 116.346 101.554 113.34 100.619 112.937C95.9743 111.15 87.6003 109.756 84.1455 105.969C81.3471 101.077 82.6488 94.4024 78.2974 90.4644C74.4837 87.2478 66.1599 87.9278 62.0826 90.3431C58.8656 92.4979 58.3617 96.6832 56.3572 99.7783C55.8628 100.52 54.6883 102.308 54.0251 102.884C52.4107 104.49 46.7407 106.177 45.1033 106.487C35.8631 108.443 31.2557 109.651 23.9882 115.994C4.99886 136.021 7.69064 171.442 2.43624 197.63C2.22119 200.509 0.526989 204.416 3.54963 206.269C6.15294 207.558 9.21386 207.417 12.0248 207.879Z" fill="white"/>
<path fill-rule="evenodd" clip-rule="evenodd" d="M82.0269 99.311C82.0496 99.2429 82.1556 99.2312 82.1717 99.311C82.4308 100.535 82.9164 101.878 83.4086 103.026C83.9089 104.19 84.5925 105.258 85.4562 106.165C87.2657 108.066 89.5932 108.933 92.1458 108.935L92.207 108.937C92.2188 108.848 92.232 108.76 92.2443 108.671L92.2617 108.538C92.4949 106.717 94.5875 106.77 94.9961 108.144C95.2035 108.212 95.411 108.28 95.6169 108.352L95.6581 108.367C96.0047 108.503 97.1787 109.107 97.3943 108.947C97.8688 108.594 98.4108 108.998 98.591 109.449C98.8854 110.186 98.9346 111.097 99.0302 111.897L99.043 112.001L99.0574 112.125C105.773 113.928 109.541 120.869 111.465 127.263C112.507 130.729 113.189 134.305 113.875 137.861C114.608 141.664 115.284 145.478 115.999 149.283C117.41 156.781 118.745 164.297 119.905 171.841L120.241 174.032C121.304 180.968 122.338 187.901 123.209 194.869C123.678 198.626 124.119 202.386 124.544 206.15C124.62 206.821 124.695 207.493 124.77 208.164L124.882 209.172C124.981 210.076 125.15 210.97 124.717 211.816C123.78 213.65 120.939 213.637 120.778 211.288C120.746 210.821 120.899 210.464 121.151 210.214L121.148 210.175C121.145 210.151 121.143 210.134 121.142 210.126C121.058 209.659 121.036 209.166 120.984 208.694C120.872 207.687 120.762 206.68 120.651 205.671C120.437 203.75 120.222 201.83 119.998 199.911C119.546 196.017 119.068 192.129 118.562 188.244L118.06 184.403C116.381 171.599 114.63 158.798 112.327 146.096C111.7 142.638 111.055 139.185 110.394 135.734C109.767 132.465 109.062 129.212 108.01 126.056C106.292 120.902 103.289 116.075 99.1202 112.692C99.1845 113.338 99.2312 113.988 99.2907 114.634C99.4435 116.294 99.6059 117.953 99.77 119.611C100.367 125.619 101.176 131.618 102.556 137.493C103.239 140.405 104.073 143.278 105.088 146.084C105.588 147.466 106.133 148.831 106.731 150.17C107.323 151.494 108.361 152.91 108.424 154.385C108.453 155.068 107.761 155.675 107.121 155.602C107.42 158.32 107.589 161.067 107.767 163.779C108.028 167.707 108.235 171.641 108.539 175.566C109.083 182.596 109.765 189.617 110.479 196.631C110.621 198.021 110.775 199.41 110.927 200.8L111.054 201.966C111.14 202.722 111.27 203.628 110.881 204.299C111.229 205.165 111.467 206.054 111.605 206.981C111.78 208.134 111.142 209.427 109.839 209.377C109.691 209.372 109.543 209.358 109.395 209.342C108.187 209.631 106.982 209.885 105.728 209.894C104.126 209.905 102.52 209.872 100.918 209.86C97.8191 209.839 94.7194 209.817 91.6199 209.791C80.3992 209.698 69.1736 209.703 57.9546 209.516L53.4657 209.443C49.3506 209.374 45.235 209.296 41.1219 209.141C38.2894 209.035 35.457 208.927 32.6259 208.809L32.0496 208.786C29.5517 208.692 27.0508 208.644 24.5804 208.249C24.5184 208.238 24.4917 208.171 24.5013 208.113L24.5048 208.097L24.397 208.072C24.3343 208.352 23.0314 207.179 23.0411 206.399C22.5006 205.673 22.7531 204.513 22.8111 203.673C22.8674 202.853 22.9381 202.033 23.0009 201.213C23.1344 199.464 23.2486 197.712 23.3853 195.963C23.937 188.907 24.4131 181.834 24.7219 174.764C24.8779 171.199 25.0034 167.634 25.1353 164.069C25.1947 162.447 25.2774 160.822 25.4314 159.207L25.4715 158.804C25.6404 157.165 25.6243 155.404 26.2081 153.86C26.2162 153.839 26.2435 153.839 26.2516 153.86C26.8419 155.362 26.8982 157.109 27.0172 158.757C27.0381 158.751 27.059 158.747 27.0815 158.742C27.897 158.342 28.7206 157.981 29.4926 157.486C29.5972 157.42 29.6985 157.35 29.8015 157.282C31.0159 153.443 32.4233 149.668 33.7181 145.855C37.9017 133.524 40.2115 120.392 40.723 107.335C37.5318 109.46 34.0562 111.114 30.6777 112.889L30.3612 113.056C27.0333 114.814 23.8469 116.81 21.4776 119.859C19.4124 122.514 18.0628 125.749 16.8002 128.868C15.4443 132.219 14.2218 135.631 13.1039 139.074C10.836 146.059 9.07953 153.216 7.70911 160.445C6.35639 167.58 5.3897 174.768 4.74309 182.007C4.41335 185.699 4.11257 189.394 3.86004 193.095C3.73136 194.967 3.61716 196.842 3.511 198.718C3.45953 199.628 3.42093 200.54 3.36302 201.451C3.32764 201.976 3.3212 202.518 3.15392 203.016C3.01398 203.431 2.76628 203.779 2.53466 204.146C2.11163 204.816 1.04361 204.937 0.646314 204.146L0.474285 203.804C0.246577 203.347 0.0386332 202.888 0.00775058 202.361C-0.0212019 201.863 0.0383116 201.343 0.0656557 200.843C0.118735 199.831 0.179857 198.817 0.240979 197.805C0.369657 195.677 0.512811 193.548 0.673658 191.421C0.993744 187.161 1.40551 182.912 1.92344 178.672C3.74584 163.779 6.3773 148.964 11.3989 134.83C12.6407 131.335 14.0256 127.869 15.589 124.514C17.101 121.271 19.0135 118.209 21.7897 115.975C24.3452 113.919 27.3158 112.543 30.2674 111.207L30.6363 111.04C33.9449 109.547 37.2471 107.938 40.7021 106.828C40.6249 106.838 40.5493 106.848 40.4835 106.871C40.4077 106.896 40.3629 106.795 40.4095 106.74C40.6056 106.516 40.6876 106.285 40.913 106.064C41.0685 105.911 41.2304 105.767 41.3969 105.627L41.6364 105.43C42.0748 105.071 42.5356 104.704 43.0875 104.578C43.8677 104.402 44.2505 105.135 44.0316 105.708C44.1442 105.557 44.4466 105.602 44.5254 105.81C47.0925 112.649 48.7782 119.889 52.2332 126.351C54.7843 131.124 58.2071 135.533 62.7494 138.416C65.1895 139.964 67.9819 141.154 70.8658 141.342C73.4554 141.51 75.9469 140.83 78.1491 139.426C82.418 136.706 85.2054 131.93 87.1934 127.303C89.3793 122.208 90.9395 116.78 91.8563 111.276C88.9514 111.318 85.8857 109.949 83.9539 107.717C82.9373 106.542 82.1797 105.112 81.7953 103.586C81.4077 102.048 81.5315 100.783 82.0269 99.311ZM57.6569 95.3147C58.011 94.6617 58.7959 94.4457 59.4377 94.7116C60.1501 95.0073 60.3642 95.7218 60.2628 96.448C60.1452 97.2987 59.6161 98.2177 59.2044 98.9603C58.7734 99.738 58.2185 100.454 57.6441 101.124C56.5633 102.387 55.4067 103.525 54.0348 104.455C52.6692 105.381 51.1249 106.074 49.5375 106.461L49.1601 106.552C47.9253 106.844 46.1684 107.178 45.1398 106.484C45.0901 106.451 45.0916 106.383 45.1398 106.35C45.6963 105.949 46.4412 105.878 47.0812 105.688C47.7793 105.481 48.4792 105.245 49.1465 104.949C50.464 104.364 51.7251 103.593 52.8476 102.672C53.9753 101.749 55.0657 100.647 55.8202 99.3757C56.1998 98.7378 56.5231 98.068 56.8334 97.3936C57.1472 96.7171 57.3047 95.9661 57.6569 95.3147Z" fill="#1D1E1D"/>
<path fill-rule="evenodd" clip-rule="evenodd" d="M102.586 78.9407C99.8687 66.2141 99.3392 52.2379 92.1666 41.1256C89.0322 36.5945 83.996 30.6861 78.1127 32.5483C78.3551 29.8653 78.584 27.1811 78.7957 24.4953C78.9168 22.9589 79.4735 20.912 78.2149 19.7307C76.1369 17.9973 72.6968 20.6498 71.0908 22.1318C67.6113 25.5737 66.2374 28.9167 61.654 31.2154C59.8168 29.8628 58.0263 28.4436 56.1616 27.1276C54.2615 25.7867 51.5435 23.6085 49.5717 26.0839C47.9005 28.1822 48.968 31.4897 49.6307 33.7984C49.9696 34.9791 50.3064 36.2679 50.7774 37.4822C50.8171 38.4052 50.8863 39.3266 50.9878 40.2453C47.5926 40.8694 44.0984 41.3945 40.8546 42.6193C39.0856 43.6091 39.2416 45.8571 40.4965 47.2027C42.3746 49.0815 44.7511 50.5507 47.3455 51.5368C46.8744 53.2211 45.7451 54.6492 44.3252 55.5831C43.8489 55.895 43.5817 56.3524 43.485 56.8404C42.7572 57.2141 41.9779 57.4836 41.1547 57.6586C40.1394 57.8751 39.5528 59.113 39.8145 60.0969C40.5518 62.4879 43.1502 61.1213 44.8381 60.9524C44.8889 62.6222 44.9153 64.3621 45.6492 65.9089C41.7263 66.9723 38.328 70.8501 39.235 75.2191C40.0588 79.3958 44.4231 80.6721 47.8778 81.6212C48.1395 81.7804 48.1387 81.9367 48.2218 82.331C48.7919 85.0387 48.3119 88.0174 47.4133 90.588C47.1683 91.2887 47.5283 92.1655 48.0724 92.5857C50.8858 94.4363 51.8185 88.8009 55.0257 92.3878C54.7863 92.3508 54.1909 92.0432 54.2214 92.4889C58.3822 100.032 70.6674 100.496 78.1946 100.681C79.0979 101.135 80.1379 100.877 81.1712 100.587C82.1571 100.532 83.1418 100.456 84.1241 100.353C85.9173 100.018 89.0717 100.414 89.1843 97.8052C93.8159 95.9178 97.7982 92.6572 100.514 88.337C102.528 85.4702 103.324 82.4357 102.586 78.9407Z" fill="white"/>
<path fill-rule="evenodd" clip-rule="evenodd" d="M74.4976 18.7772L74.7679 18.6552C75.7002 18.2382 76.7181 17.8383 77.7387 18.0663C78.9142 18.3289 79.5937 19.3732 79.8847 20.5118C80.2215 21.8288 80.3721 23.2307 80.4644 24.5862C80.5598 25.9901 80.5229 27.391 80.4207 28.7928C80.3352 29.9651 80.1586 31.3236 79.7362 32.4598C79.7543 32.4432 79.7758 32.4309 79.8015 32.4281C81.4641 32.2521 82.9961 32.3546 84.5839 32.9078C86.0628 33.4231 87.4966 34.146 88.7837 35.0594C91.5638 37.0321 93.7148 40.0114 95.2134 43.0959C98.2578 49.3624 98.9 56.4513 99.7532 63.3041L99.7791 63.5117C100.238 67.1762 100.848 70.7853 101.826 74.3399L101.995 74.9459C102.893 78.1979 103.429 81.3614 102.713 84.7282C101.328 91.2384 96.4481 96.1525 90.8027 98.989C87.9203 100.437 84.8015 101.506 81.6515 102.122C78.4205 102.754 74.9237 102.86 71.9778 101.133C70.5173 100.277 71.8031 98.0909 73.2792 98.8332C76.3253 100.365 79.7776 99.8607 82.9395 99.0184C86.0846 98.1808 89.1691 97.008 91.9558 95.2662C96.7379 92.2772 100.762 87.1171 100.894 81.1246C100.968 77.7527 99.5729 74.5329 98.9004 71.2775C98.3077 68.4087 97.9398 65.4979 97.5927 62.5875L97.3354 60.4257C96.5885 54.2257 95.6534 47.8431 92.5714 42.3636C89.8506 37.5268 85.1645 33.6806 79.7713 32.6576C79.739 32.6516 79.7176 32.6355 79.7047 32.615C79.5397 33.5327 78.5606 34.3885 77.9341 34.9165C77.0464 35.6653 75.9708 36.2078 74.8008 36.1835C72.5448 36.1368 70.6075 34.3295 69.0611 32.8159C68.8868 32.6454 69.0756 32.4075 69.2739 32.4384C71.0687 32.7174 72.6073 34.2236 74.4469 34.2012C75.3937 34.1896 76.1191 33.6648 76.7372 32.9671C76.9681 32.7062 77.1711 32.3914 77.3906 32.1019C77.4448 31.3415 77.6533 30.596 77.7466 29.8391C77.8336 29.1329 77.9082 28.4159 77.9524 27.7044C78.0425 26.2525 78.0141 24.7898 77.8585 23.3433C77.7917 22.7225 77.7072 22.0959 77.576 21.4845L77.5146 21.2089C77.4333 20.8301 77.3801 20.485 76.9369 20.5239C75.9515 20.61 74.85 21.2309 73.9884 21.6995C70.6479 23.5168 68.2193 26.3268 66.4266 29.6279C66.5392 29.6861 66.6467 29.7627 66.7472 29.8624C66.9494 30.0629 67.0531 30.4162 66.9605 30.6958C66.6026 31.7766 65.3303 31.8081 64.4352 32.2313C63.4598 32.6923 62.5436 33.2848 61.676 33.9338C59.9681 35.2113 58.3991 36.7121 56.907 38.2472C54.5572 40.6646 52.3752 43.2373 50.2679 45.8768L49.8195 46.9115C49.3719 47.946 48.9341 48.9841 48.5718 50.0617C47.9821 51.8141 47.4882 53.6055 47.1084 55.4188C46.7262 57.2439 46.4771 59.1109 46.3827 60.9758C46.2984 62.6397 46.5121 64.3025 46.5031 65.9568C46.6463 66.2335 46.6981 66.5454 46.6307 66.8632C47.0814 66.995 47.5179 67.1959 47.9279 67.473C48.0278 67.5408 47.9644 67.7023 47.8465 67.6724C47.3267 67.5402 46.8066 67.5108 46.2974 67.5619C46.0272 67.9062 45.5897 68.1254 45.1652 68.1157L44.9841 68.1116C44.8514 68.1086 44.7198 68.0867 44.5927 68.0493C43.8763 68.3904 43.2172 68.8814 42.6592 69.4681C41.3176 70.8792 40.6697 72.7277 40.7649 74.7026C40.8592 76.6505 41.8635 78.4075 43.527 79.3432C44.269 79.7604 45.0935 79.9801 45.9369 79.9962C46.7484 80.0113 47.8134 79.7566 48.4801 80.3028C48.5551 80.3642 48.6044 80.446 48.6348 80.5364C48.6813 80.3335 48.7307 80.1311 48.7846 79.9296C48.8258 79.7755 49.0739 79.7576 49.1043 79.9296L49.1435 80.1538C49.7021 83.4072 49.8986 86.7567 52.1181 89.3606C53.1562 90.5786 54.4078 91.6771 55.6917 92.6096L55.9041 92.7627C56.4526 93.1539 57.0453 93.5338 57.6992 93.6753C58.4259 93.8327 59.0267 93.7895 59.695 94.2021C60.0091 94.3961 60.202 94.8245 60.0863 95.196C59.345 97.5808 56.4232 96.5096 54.9503 95.5668C54.1313 95.0425 53.3343 94.4091 52.5938 93.7114C51.948 94.1178 51.181 94.3799 50.5221 94.4817C49.5057 94.6389 48.4265 94.4206 47.6164 93.7425C46.7592 93.0253 46.466 91.9818 46.6115 90.874C46.684 90.3228 46.8224 89.785 46.9716 89.2512L47.0949 88.8151C47.2747 88.18 47.4153 87.5245 47.7778 86.97C47.9609 86.6904 48.3953 86.7168 48.4894 87.0662C48.7048 87.8659 48.6116 88.7686 48.5558 89.6017L48.5438 89.7926C48.5073 90.4192 48.2488 91.3803 48.7806 91.8446C49.4211 92.4035 50.122 92.1483 50.804 91.7631C50.7345 91.6756 50.6659 91.5875 50.5985 91.4993C48.3916 88.6017 47.8428 84.9947 48.4473 81.4689C47.8777 82.2407 46.3931 82.4077 45.6053 82.3477C44.3684 82.2537 43.1512 81.8652 42.0977 81.1823C39.891 79.7523 38.6499 77.2444 38.5972 74.5766C38.5457 71.9862 39.6676 69.3663 41.7364 67.8579C42.283 67.4594 42.891 67.1497 43.5257 66.946C43.2172 65.6805 43.1845 64.2824 43.2514 62.9144C42.5114 63.0184 41.7102 62.8833 41.0411 62.648L40.9372 62.6105C39.906 62.229 38.5963 61.4621 38.4032 60.2651C38.1655 58.7929 39.9242 57.9468 40.9446 57.3587C41.4218 57.0838 41.9099 56.8266 42.4166 56.6143L42.5691 56.552C43.0065 56.3782 43.5213 56.054 43.9653 56.3122C43.997 56.3307 44.0047 56.3657 44 56.4001C43.9122 57.039 42.8985 57.5827 42.4478 57.9857C42.1017 58.2949 41.7671 58.6186 41.4461 58.9557C41.238 59.1744 40.9249 59.7269 40.6579 59.8819C40.782 59.9489 40.9306 60.1137 41.0342 60.177C41.3259 60.3546 41.6336 60.4799 41.9629 60.561C42.4524 60.682 42.9426 60.6301 43.4327 60.6187C43.6317 58.6038 43.9929 56.6329 44.5746 54.6973C45.5501 51.4498 47.1491 48.0287 49.4302 45.4613C51.1029 42.2242 53.2632 39.2673 55.7306 36.6232C57.3132 34.9275 58.9849 33.2822 60.839 31.9043C61.6609 31.2936 62.5254 30.7433 63.443 30.2999L63.7479 30.1554C64.2573 29.9119 64.8768 29.5959 65.4677 29.5055C65.8498 27.9389 66.5307 26.4406 67.3568 25.0825C68.495 23.2114 69.9929 21.6332 71.7457 20.3722C72.6106 19.7497 73.5322 19.2145 74.4976 18.7772ZM44.0918 73.3403C45.5624 72.3199 47.366 71.9207 49.1234 72.0714C49.9952 72.1461 50.8575 72.3571 51.6745 72.6799L52.0113 72.8174C52.7916 73.1404 53.6291 73.539 53.6571 74.5139C53.6682 74.8989 53.3923 75.2055 53.0594 75.3251C52.2472 75.6168 51.5892 74.9184 50.9186 74.5468C50.2416 74.1713 49.522 73.9237 48.7807 73.7232C48.7096 73.7039 48.6383 73.6865 48.5672 73.669C48.6058 73.7489 48.6277 73.8373 48.6201 73.9325C48.6018 74.1605 48.5376 74.33 48.4752 74.5437C48.4564 74.6085 48.4105 75.0041 48.3636 75.053C48.3789 75.1876 48.3805 75.3148 48.3845 75.4504C48.3958 75.8507 48.348 76.1889 48.1501 76.5433C47.6573 77.4261 46.2484 77.5075 45.7767 76.5433C45.3049 75.5792 45.6736 74.6357 46.3905 73.9425C46.5859 73.7537 46.8465 73.5615 47.1296 73.4289C46.1355 73.3352 45.1304 73.3796 44.1373 73.5145C44.0405 73.5278 44.0257 73.3864 44.0918 73.3403ZM44.1797 40.9975C46.1968 40.6432 48.3032 40.5726 50.3389 40.7821C50.4499 40.7937 50.4914 40.9682 50.367 40.9963C47.2716 41.6983 44.0626 41.9356 41.3008 43.6943L41.1737 43.7765C40.9086 43.9507 40.2779 44.2795 40.1467 44.5892C39.9918 44.9548 40.4112 45.4247 40.6064 45.6885C41.045 46.2811 41.5899 46.7983 42.1915 47.2099C42.827 47.6446 43.5103 47.9801 44.2452 48.1919C44.5942 48.2926 44.9563 48.3438 45.3013 48.4585C45.6941 48.5887 45.8209 48.7966 46.1184 49.0683C46.4614 49.381 46.3462 49.9812 45.9764 50.2057L45.8726 50.268C45.3867 50.5553 45.1166 50.6399 44.4993 50.5275C44.0165 50.4395 43.5553 50.2652 43.1033 50.0714C42.2729 49.7152 41.515 49.2488 40.8157 48.6681L40.7112 48.5801C39.4624 47.5137 37.3465 45.1811 38.7402 43.4829C39.9704 41.9845 42.3877 41.3122 44.1797 40.9975ZM49.1473 24.8406C51.0818 22.4865 53.814 24.0939 55.7525 25.5015C57.8418 27.0182 59.6545 28.8073 61.1201 30.9689C61.2133 31.1063 61.0331 31.2735 60.9035 31.1927C59.2784 30.1806 57.6364 29.2117 55.9695 28.2737C55.2851 27.8886 54.5998 27.5127 53.8995 27.1607L53.5252 26.9747C52.9403 26.6765 52.1005 26.1322 51.4767 26.4871C50.1317 27.2529 50.9618 29.7613 51.239 30.9761L51.2642 31.0907L52.1094 35.0884L52.4946 36.8882C52.6314 37.0029 52.7453 37.1563 52.8259 37.354C53.044 37.8885 52.866 38.6107 52.3384 38.8912C50.7812 39.719 50.254 38.1022 49.9607 36.8872C49.7225 35.9002 49.4817 34.9138 49.2404 33.9276L48.8413 32.2978C48.23 29.8305 47.3622 27.0129 49.1473 24.8406Z" fill="#1D1E1D"/>
<path fill-rule="evenodd" clip-rule="evenodd" d="M81.8051 88.9393C80.7238 88.4836 79.7591 87.7235 79.0537 86.7526C78.8085 86.415 78.7449 86.0586 78.7964 85.7325C78.8542 85.3659 79.0642 85.0337 79.3505 84.8109C79.6377 84.5873 79.9969 84.4771 80.3442 84.5333C80.646 84.5821 80.9464 84.7528 81.1842 85.1068L81.2339 85.1776C81.6532 85.7637 82.1996 86.2445 82.8223 86.5544C83.4224 86.8532 84.0935 86.9926 84.788 86.9115C86.1108 86.7572 87.0225 86.0181 87.9916 85.0146C88.1117 84.8879 88.2319 84.7572 88.3527 84.6244C88.429 84.5041 88.5348 84.4267 88.6523 84.3861C88.7828 84.341 88.9304 84.3436 89.0656 84.3923C89.196 84.4393 89.3126 84.5284 89.3908 84.647C89.4651 84.7597 89.5072 84.8989 89.4935 85.059C89.4048 86.099 88.8785 87.0272 88.1308 87.756C87.3005 88.5655 86.1997 89.1255 85.1635 89.3219C84.0218 89.5382 82.8585 89.3832 81.8051 88.9393ZM85.702 72.8948C86.9167 73.6575 88.7674 75.4359 87.4607 77.3267C85.9227 78.9939 83.7082 77.0824 82.617 76.2178C81.6051 75.5478 80.4683 77.271 81.4071 78.0534C89.2924 84.0843 92.4924 73.0942 86.3164 71.998C85.6364 71.8772 85.3838 72.6588 85.702 72.8948ZM71.5715 65.8793C71.7057 64.1584 74.2426 63.7677 74.495 65.4705C74.721 66.9959 74.455 68.3971 73.7899 69.7705C73.1544 71.0825 71.5571 70.4704 71.4363 69.2757C71.2743 67.6742 71.488 66.9497 71.5715 65.8793ZM90.8834 65.1174C91.2371 64.6389 91.7478 64.3122 92.3596 64.4968C94.2713 65.0739 93.7078 67.8776 93.0365 69.2422C92.6717 69.9833 91.4925 70.1713 90.9596 69.5187C90.091 68.4546 89.6751 66.3296 90.7793 65.2814C90.8092 65.2273 90.8425 65.1726 90.8834 65.1174ZM73.7629 58.3495L74.0649 58.2949C74.9991 58.128 76.1606 57.9676 76.8214 58.7434C77.1719 59.1549 77.2926 59.9195 76.8214 60.3133C75.9928 61.0062 75.0766 60.7377 74.0835 60.7964C73.2651 60.8449 72.4786 60.9848 71.6903 61.2176C69.9608 61.7282 68.5516 62.6604 67.0746 63.684C66.8808 63.8182 66.6829 63.5622 66.7754 63.3749C67.6281 61.6496 69.2804 60.2324 70.9356 59.3685C71.8189 58.9074 72.7856 58.5249 73.7629 58.3495ZM89.1407 57.5766L89.3719 57.6255C91.8871 58.1686 95.1549 59.2535 96.346 61.8057C96.3914 62.1666 96.3434 62.2439 96.3044 62.2945L96.2914 62.3113C96.2593 62.3544 96.2336 62.4139 96.0822 62.463C96.0402 62.4527 95.9978 62.4417 95.9549 62.4301C95.4089 62.2823 94.977 62.0787 94.5588 61.8674L94.1053 61.6367C93.5793 61.3702 93.0486 61.1134 92.4862 60.9239C91.2859 60.5195 90.0513 60.2346 88.7976 60.0824C88.5259 60.0495 88.2642 59.9547 88.0578 59.7924C87.8619 59.6383 87.7122 59.4249 87.6439 59.1412C87.5555 58.7742 87.5809 58.4963 87.7715 58.1651C87.9149 57.9165 88.12 57.7441 88.3555 57.6451C88.5956 57.5442 88.869 57.5204 89.1407 57.5766Z" fill="#1D1E1D"/>
<path fill-rule="evenodd" clip-rule="evenodd" d="M215.341 128.007C213.105 117.071 205.177 108.584 194.514 104.357C192.465 103.16 190.478 98.0232 187.723 97.0825C187.282 96.9318 187.979 98.1318 187.723 98.2035C186.812 98.4591 185.792 98.4858 184.786 97.5627C182.988 95.9128 182.424 91.0928 181.331 88.9143C175.567 77.425 161.176 81.9204 159.248 94.6216C157.903 95.5264 156.003 96.3235 154.54 97.0527C153.033 97.8035 151.707 99.6221 150.154 100.272C148.769 100.852 146.486 100.441 145.089 100.947C138.668 103.273 133.229 106.208 128.965 112.155C128.066 113.41 127.053 114.952 126.236 116.219C122.021 121.23 119.093 126.846 116.396 132.872C108.852 150.558 106.8 170.141 104.959 189.198C105 192.532 102.858 201.777 106.027 203.376C105.837 203.579 105.906 203.986 106.257 203.982C114.293 203.899 122.309 204.641 130.219 206.085C134.036 206.781 137.832 207.737 141.72 207.894C149.79 207.836 157.832 206.44 165.891 207.761C175.58 207.761 187.355 207.47 198.134 207.042C208.208 206.642 218.336 207.545 228.285 205.776C229.073 205.647 229.457 204.655 229.292 203.945C228.125 199.553 227.552 195.032 226.897 190.537C227.027 187.653 226.794 184.643 225.761 181.957C223.062 163.827 219.602 145.815 215.341 128.007Z" fill="white"/>
<path fill-rule="evenodd" clip-rule="evenodd" d="M212.089 151.838C211.876 152.904 211.578 153.97 211.182 154.979C210.8 155.954 210.225 156.827 209.829 157.79C209.776 157.919 209.689 158.018 209.584 158.092L209.617 158.354L209.647 158.616C209.845 160.384 210.067 162.147 210.259 163.914L210.353 164.798C210.731 168.488 211.328 172.16 211.792 175.84C212.246 179.444 212.709 183.048 213.203 186.647C213.714 190.357 214.234 194.062 214.841 197.758C215.097 199.318 215.365 200.878 215.643 202.436L215.859 203.628C218.075 204.179 218.68 207.368 216.424 208.546C215.4 209.078 214.084 208.95 213.24 208.114C212.363 207.242 212.327 205.67 212.123 204.49L211.927 203.393C210.46 195.143 209.186 186.799 208.591 178.433C208.438 176.273 208.309 174.111 208.225 171.947C208.145 169.912 208.183 167.877 208.153 165.842L208.143 165.287C208.096 163.116 208.135 160.95 208.19 158.779C208.196 158.515 208.207 158.25 208.22 157.984C208.146 157.895 208.093 157.788 208.071 157.685L208.041 157.549C207.969 157.198 208.051 156.787 208.312 156.536C208.425 155.057 208.573 153.581 208.613 152.104C208.616 151.982 208.785 151.986 208.795 152.104C208.89 153.361 209.08 154.622 209.27 155.881C210.493 154.866 211.396 153.193 211.929 151.793C211.968 151.691 212.111 151.728 212.089 151.838ZM183.168 93.0623C183.37 94.0202 183.771 94.8802 184.309 95.6801C184.566 96.0626 184.857 96.4185 185.206 96.7162C185.506 96.9705 185.848 97.1368 186.166 97.3581C186.63 97.2831 187.115 97.4645 187.44 97.8169L187.389 97.3016C187.373 97.1353 187.64 97.102 187.671 97.2631C189.08 104.601 190.365 111.943 191.477 119.334L191.964 122.598L192.423 125.662C193.185 130.768 193.922 135.871 194.476 141.015C195.216 147.878 195.837 154.76 196.291 161.651C196.747 168.591 197.027 175.536 197.227 182.489C197.277 184.242 197.33 185.993 197.382 187.746L197.726 185.651C198.069 183.555 198.406 181.457 198.694 179.351C199.73 171.816 200.558 164.227 200.962 156.627C201.332 149.672 201.208 142.58 199.495 135.804C199.063 134.1 198.535 132.422 197.897 130.787C197.279 129.197 196.435 127.723 195.77 126.157C194.997 124.334 194.765 122.615 195.163 120.652C195.51 118.943 196.121 117.335 196.23 115.575C196.435 112.309 195.406 109.146 193.951 106.287C193.568 105.534 193.164 104.79 192.742 104.053C191.465 101.827 190.025 99.6812 188.531 97.6242C188.45 97.5144 188.621 97.393 188.708 97.4828C190.07 98.8731 191.56 100.24 192.785 101.759C193.381 102.497 193.963 103.25 194.513 104.024C200.556 105.066 205.748 108.953 209.298 114.085C213.325 119.909 215.363 126.919 216.87 133.822C218.547 141.494 219.961 149.235 221.466 156.945C223.025 164.923 224.576 172.9 226.145 180.876C226.924 184.836 227.704 188.796 228.482 192.757C228.876 194.763 229.29 196.763 229.723 198.762C229.946 199.787 230.184 200.809 230.39 201.837C230.622 202.996 230.406 203.738 229.646 204.59C229.366 204.906 228.923 204.901 228.575 204.733L228.466 204.68L228.361 204.627C227.931 204.409 227.593 204.182 227.325 203.696C227.031 203.163 226.984 202.571 226.883 201.977C226.696 200.884 226.511 199.792 226.324 198.697C226.045 197.061 225.741 195.429 225.432 193.798L223.882 185.645C223.469 183.471 223.055 181.298 222.639 179.125C221.152 171.355 219.664 163.587 218.176 155.819C216.748 148.36 215.483 140.85 213.857 133.434L213.765 133.017L213.67 132.599C212.216 126.207 210.184 120.023 206.497 114.606C203.659 110.44 199.719 106.719 195.077 104.837C195.404 105.322 195.718 105.818 196.018 106.324C197.899 109.497 199.272 113.263 198.95 117.042C198.793 118.888 198.113 120.702 198.177 122.563C198.237 124.216 199.227 125.668 199.912 127.106C201.466 130.366 202.59 133.83 203.315 137.384C204.769 144.52 204.764 151.863 204.263 159.107C203.719 166.981 202.685 174.854 201.508 182.652C200.904 186.652 200.1 190.618 199.485 194.611C199.181 196.58 198.767 198.544 198.404 200.503L198.232 201.439C198.135 201.959 198.035 202.477 197.919 202.989L197.847 203.296V203.35C197.844 203.728 197.744 204.041 197.583 204.29C197.362 205.02 197.089 205.732 196.725 206.416C196.538 206.765 196.267 206.961 195.972 207.033C195.676 207.733 195.005 208.271 194.203 208.268L183.656 208.227C177.529 208.201 171.403 208.16 165.277 208.125C163.731 208.117 162.186 208.087 160.642 208.045C159.194 208.004 157.806 207.824 156.374 207.638C154.757 207.428 153.881 206.246 154.123 204.578C154.176 204.21 154.234 203.844 154.289 203.479C153.967 203.588 153.583 203.537 153.324 203.276L153.081 203.03C152.744 202.686 152.443 202.348 152.229 201.889C152.008 201.416 151.829 200.918 151.634 200.435C151.214 199.398 150.805 198.356 150.407 197.31C149.61 195.218 148.813 193.118 148.072 191.004C146.605 186.818 145.307 182.569 144.178 178.272C142.165 170.605 140.709 162.791 139.791 154.906L139.571 153.027L139.508 152.472C139.16 149.416 138.867 146.313 139.005 143.263C139.091 141.354 139.377 139.43 140.068 137.647C140.706 136.002 141.69 134.595 142.625 133.125L142.732 132.956L142.84 132.782C143.658 131.446 144.31 130.05 144.342 128.429C144.375 126.783 143.911 125.182 143.392 123.641L143.262 123.261L143.176 123.01C142.071 119.826 140.815 116.687 141.229 113.222C141.841 108.12 144.837 104.007 148.605 100.836C145.254 101.521 141.936 102.874 139.008 104.591C135.551 106.62 132.437 109.297 129.753 112.319C124.68 118.03 121.058 124.881 118.093 131.956C114.99 139.36 112.688 147.118 110.954 154.978C109.21 162.882 108.042 170.913 107.245 178.975C106.847 182.988 106.535 187.011 106.275 191.036C106.143 193.098 106.044 195.163 105.889 197.222C105.734 199.279 105.665 201.368 105.179 203.371C104.951 204.303 103.42 204.398 103.256 203.371C102.892 201.075 102.993 198.702 103.095 196.377L103.104 196.166C103.204 193.851 103.335 191.538 103.489 189.225C103.805 184.497 104.227 179.775 104.778 175.069C106.709 158.548 110.269 142.114 117.254 127.033C120.543 119.931 124.764 113.029 130.636 107.9C133.431 105.46 136.583 103.513 139.979 102.103C143.017 100.841 146.103 100.243 149.33 100.245C150.948 98.9646 152.686 97.8487 154.422 96.8956C154.527 96.8376 154.636 96.9773 154.55 97.0671C154.504 97.112 154.461 97.1584 154.416 97.2018C154.612 97.2151 154.815 97.3099 154.997 97.5078C155.635 98.1978 156.173 99.0611 156.654 99.9573C157.387 100.902 158.086 101.878 158.817 102.813C159.988 104.309 161.186 105.785 162.399 107.248C164.436 109.708 166.539 112.121 168.732 114.436L169.099 114.822C170.235 116.011 171.387 117.434 172.732 118.375L172.803 118.425C173.371 118.806 173.773 118.876 174.257 118.306C174.697 117.787 175.063 117.185 175.439 116.613L175.526 116.481C177.447 113.599 179.228 110.611 180.841 107.534C181.575 106.134 182.274 104.714 182.938 103.277L183.136 102.846C183.496 102.055 183.888 101.278 184.185 100.463C184.255 100.272 184.322 100.081 184.388 99.8909C183.374 99.2041 182.588 97.7173 182.303 96.5532C182.007 95.3442 182.156 94.1034 182.684 92.9976C182.784 92.7897 183.119 92.8411 183.168 93.0623ZM133.116 142.194C132.975 146.79 132.89 151.392 132.681 155.985L132.608 157.554C132.935 157.93 133.127 158.363 132.974 158.959C132.914 159.187 132.739 159.393 132.52 159.47L132.451 160.927C132.141 167.487 131.776 174.034 131.11 180.577C130.278 188.766 129.315 196.941 128.354 205.115C128.217 206.273 127.437 207.19 126.224 207.021C124.997 206.849 124.5 205.747 124.661 204.598C125.294 200.089 125.902 195.577 126.435 191.054L127.043 185.9C127.804 179.458 128.583 173.017 129.481 166.595C129.856 163.912 130.246 161.229 130.637 158.546L130.5 158.363C129.941 157.614 129.363 156.88 128.791 156.142C127.693 154.718 126.609 153.306 125.603 151.816C125.553 151.741 125.654 151.631 125.727 151.688C127.137 152.764 128.473 153.915 129.816 155.084L130.991 156.112C131.668 151.477 132.338 146.84 132.935 142.194C132.95 142.077 133.119 142.069 133.116 142.194ZM153.409 98.2029C152.56 99.0293 151.693 99.8377 150.837 100.659L150.524 100.962L150.212 101.265C148.709 102.737 147.269 104.27 146.069 106.029C143.866 109.261 142.553 113.2 143.469 117.145C144.23 120.413 145.974 123.375 146.442 126.724C146.677 128.402 146.563 130.088 145.951 131.673C145.326 133.29 144.328 134.675 143.431 136.134C141.482 139.303 141.216 142.782 141.41 146.454C141.613 150.289 142.039 154.126 142.566 157.926C143.632 165.626 145.239 173.246 147.367 180.708C148.431 184.445 149.689 188.102 150.94 191.774C151.564 193.602 152.29 195.386 153.039 197.162C153.433 198.097 153.838 199.026 154.248 199.954C154.097 198.644 154.097 197.299 154.023 195.997C153.916 194.131 153.781 192.268 153.657 190.404C153.404 186.62 153.179 182.834 152.978 179.047C152.264 165.543 151.739 152.027 151.778 138.502C151.797 131.738 151.931 124.975 152.213 118.218C152.345 115.036 152.601 111.857 152.832 108.679L152.881 107.998C153.086 105.146 153.33 102.287 153.751 99.4602C153.626 99.1703 153.518 98.8767 153.438 98.5756L153.409 98.4624L153.43 98.4657C153.411 98.3774 153.404 98.2894 153.409 98.2029ZM160.75 86.5815C160.767 86.5034 160.875 86.51 160.895 86.5815C161.373 88.2446 161.204 90.0739 160.792 91.747C160.57 92.6533 160.254 93.5331 159.872 94.3812L159.739 94.678C159.412 95.4004 159.043 96.1446 158.406 96.5947C158.141 96.7827 157.666 96.7943 157.4 96.5947L157.264 96.4885C157.242 96.4706 157.22 96.4523 157.199 96.4334C156.951 96.2189 156.828 95.7449 156.943 95.4323C157.237 94.6257 157.906 94.0336 158.368 93.3152C158.777 92.6766 159.139 92.0031 159.44 91.3029C160.089 89.7879 160.381 88.1797 160.75 86.5815Z" fill="#1D1E1D"/>
<path fill-rule="evenodd" clip-rule="evenodd" d="M198.803 37.8756C198.445 36.9435 197.812 35.7719 196.755 35.7251C195.937 33.1433 193.904 30.5138 191.076 30.5837C182.774 21.8171 172.322 22.2304 161.395 24.0862C155.63 25.1903 149.777 27.3522 145.477 31.6186C140.328 36.6413 138.322 45.4054 142.355 51.7567C138.87 53.6854 138.802 58.2621 140.293 61.5647C138.501 62.8441 138.392 65.9493 140.41 66.9252C140.302 67.3789 140.378 67.8478 140.583 68.251C139.582 69.1108 138.28 69.7459 137.204 70.2919C136.728 70.5332 136.454 70.9273 136.34 71.3715C132.806 73.7656 123.994 79.6165 124.099 84.2732C124.047 86.7026 125.792 88.3015 127.913 88.9381C126.651 91.5429 125.693 94.5854 126.901 97.3953C127.235 98.2443 129.736 100.739 129.862 100.785C130.082 100.98 133.671 99.279 135.415 98.4113C135.753 100.683 138.106 101.873 140.134 101.095C142.056 100.496 143.238 98.8154 144.451 97.2864C146.061 100.912 150.796 100.954 153.857 99.3908C156.606 98.0795 158.696 95.6761 159.86 92.7799C166.041 95.9046 173.273 96.8154 179.989 95.5673C180.42 96.3549 181.374 96.8839 182.224 96.5793C185.795 95.4707 189.743 95.4085 192.77 92.8685C199.08 88.1919 199.611 79.57 199.171 72.2205C198.781 64.8926 199.123 57.5037 197.833 50.255C198.393 48.1208 199.324 46.2341 200.185 44.2291C201.121 42.1267 201.102 39.0013 198.803 37.8756Z" fill="white"/>
<path fill-rule="evenodd" clip-rule="evenodd" d="M140.139 68.9804C140.511 68.8839 140.711 69.4 140.395 69.6073C138.391 70.9236 136.321 72.0992 134.385 73.5315C132.544 74.893 130.843 76.4439 129.257 78.1113L129.081 78.2971C127.647 79.8203 126.059 81.758 126.043 84.005C126.031 85.7515 127.335 87.6579 129.154 87.4284C129.84 87.3419 130.47 88.2399 130.231 88.8873L129.979 89.5697C128.967 92.3312 127.937 95.46 128.736 98.3653L128.766 98.469C128.959 99.1342 129.163 99.7221 129.911 99.7088C130.605 99.6961 131.327 99.4545 131.977 99.2238C133.325 98.745 134.546 97.9466 135.583 96.9425C136.501 96.0544 137.672 96.9566 137.549 98.0853L137.545 98.1214C137.376 99.388 139.33 99.976 140.218 99.7949C141.972 99.4367 143.222 97.622 144.219 96.2385C144.697 95.5738 145.86 95.312 146.281 96.2385C147.115 98.0737 148.833 99.4453 150.843 99.5029C151.887 99.5327 152.889 99.2258 153.773 98.6567C154.134 98.4243 154.457 98.148 154.753 97.8348L154.826 97.7557C155.264 97.2762 155.566 97.0213 156.126 96.7081C156.677 96.3996 157.39 96.7821 157.387 97.4552C157.382 98.3269 157.135 98.9065 156.553 99.5388C156.071 100.062 155.499 100.522 154.897 100.89C153.688 101.627 152.251 102.042 150.843 101.994C148.624 101.918 146.506 100.776 145.133 99.0003C143.731 100.731 141.992 102.321 139.733 102.279C138.041 102.247 136.465 101.337 135.709 99.9283C134.643 100.687 133.473 101.281 132.221 101.669L132.109 101.703C130.337 102.235 128.298 102.447 127.157 100.63C126.086 98.9246 126.006 96.5626 126.251 94.613C126.471 92.8715 126.99 91.2176 127.585 89.5863C125.889 89.0633 124.573 87.418 124.12 85.6446C123.436 82.9627 124.764 80.3619 126.404 78.3692C128.187 76.2046 130.43 74.3738 132.69 72.7713C134.944 71.1733 137.469 69.6715 140.139 68.9804ZM198.096 48.004C198.1 47.9295 198.218 47.9034 198.229 47.9852C199.007 53.8188 199.458 59.6407 199.831 65.5144C200.021 68.4901 200.235 71.4627 200.471 74.4348C200.696 77.2847 201.072 80.2105 200.987 83.0721C200.854 87.553 198.747 91.1964 195.292 93.8184C191.981 96.3311 187.874 97.5734 183.845 98.0982C181.504 98.4031 179.132 98.4177 176.789 98.1313C175.572 97.9826 174.357 97.7846 173.165 97.4873L172.65 97.3542C171.711 97.1067 170.663 96.7707 170.53 95.6228C170.465 95.0668 170.751 94.6567 171.213 94.3777C171.815 94.0138 172.505 94.228 173.126 94.3938C174.171 94.6732 175.228 94.913 176.297 95.0788C178.592 95.4354 180.952 95.4565 183.259 95.2097C187.14 94.7943 191.234 93.4944 194.226 90.8099C195.527 89.6435 196.657 88.2221 197.252 86.5334C198.017 84.3625 197.904 81.9941 197.878 79.7208C197.818 74.4348 197.871 69.1488 197.8 63.8623C197.728 58.5597 197.79 53.2988 198.096 48.004ZM159.068 23.3004C163.603 22.0927 168.205 21.7789 172.863 22.1424C177.256 22.485 182.261 23.4999 185.848 26.29C186.023 26.4254 185.918 26.6817 185.703 26.6463C183.304 26.2514 180.966 25.5333 178.578 25.0582C176.281 24.6012 173.942 24.2581 171.603 24.1786C163.692 23.9094 154.889 25.7605 148.51 30.8536C145.519 33.2416 143.236 36.4526 142.328 40.2731C141.396 44.1917 141.9 48.4295 143.771 51.9743C144.041 52.4846 143.929 53.2921 143.367 53.5638C141.662 54.3883 140.447 56.215 140.474 58.1862C140.486 59.1423 140.805 60.0591 141.318 60.8494C141.861 61.6851 142.687 62.2698 143.293 63.0503C143.532 63.3576 143.541 63.7809 143.352 64.0639C143.707 64.2244 144.089 64.3106 144.439 64.5001C144.735 64.661 144.743 65.163 144.439 65.3214C143.669 65.7216 142.836 65.2967 142.317 64.6513C142.224 64.5361 142.144 64.4162 142.071 64.2938C141.449 64.1576 140.891 63.8351 140.404 63.3941C139.477 63.9676 139.349 65.2445 140.146 66.2202C140.553 66.7183 141.131 67.0258 141.716 67.2468L141.786 67.2729C142.355 67.4815 142.875 67.5979 143.245 68.0677C143.489 67.5432 143.768 67.0488 144.08 66.5982C145.214 64.9606 146.956 63.5078 149.024 63.6922C150.644 63.8364 152.047 65.0338 152.379 66.6859C152.403 66.8081 152.225 66.9036 152.172 66.776C151.395 64.9049 148.936 64.8362 147.471 65.8113C145.749 66.9581 144.808 69.1192 144.43 71.132C144.058 73.1147 144.273 75.5261 145.71 77.0342C146.298 77.6513 147.098 78.0781 147.933 78.1905C148.341 78.2457 148.701 78.1914 149.091 78.1103L149.35 78.0545C149.529 78.0161 149.708 77.9852 149.896 78.0024L150.176 78.0413L150.336 78.1183C150.474 78.1824 150.461 78.1648 150.298 78.0654C150.774 78.0252 151.021 78.3887 151.047 78.7874C151.062 78.7973 151.077 78.8081 151.089 78.8236C152.897 81.1083 154.239 83.7344 156.158 85.9443L156.719 86.5916C158.163 88.2502 159.811 90.0483 161.773 90.9087L162.006 91.0084C162.577 91.2573 163.15 91.598 163.223 92.3082C163.288 92.9445 162.802 93.4233 162.242 93.5718C160.967 93.9096 159.513 92.7393 158.58 91.9715C156.571 90.3209 154.883 88.2168 153.49 86.003L153.352 85.7825C152.206 83.9347 151.129 81.8272 150.794 79.634L150.734 79.7351C150.73 79.7423 150.726 79.7477 150.724 79.7509C150.655 79.8467 150.58 79.9275 150.493 80.005C150.258 80.2141 149.972 80.3362 149.675 80.419C149.118 80.5745 148.506 80.6051 147.933 80.5445C146.768 80.4216 145.68 79.964 144.759 79.2186C141.956 76.9487 141.625 72.7249 142.759 69.2982C141.829 69.5275 140.769 68.8811 140.043 68.3271C139.21 67.6915 138.523 66.774 138.359 65.6947C138.196 64.6237 138.857 63.2055 139.838 62.7922C138.82 61.5304 138.228 59.7398 138.167 58.3061C138.06 55.8122 139.343 53.455 141.313 52.0943C139.461 47.9948 139.104 43.2386 140.351 38.8858C142.826 30.2481 151.118 25.4178 159.068 23.3004ZM152.011 88.928L152.034 88.8521C152.232 88.1841 152.486 86.8554 153.453 87.3613C154.376 87.8444 153.787 89.2744 153.464 89.9706C153.077 90.8036 152.41 91.4715 151.514 91.6504C150.785 91.7959 149.985 91.609 149.475 91.0274C149.326 90.858 149.242 90.6721 149.154 90.4668C149.12 90.387 149.104 90.3323 149.098 90.2967C149.09 90.3358 149.066 90.394 149.005 90.4625C148.598 90.9215 148.214 91.4558 147.919 91.9988C147.849 92.1272 147.628 92.0372 147.684 91.8967C148.028 91.0283 147.97 89.6854 148.737 89.0572C149.412 88.5035 150.047 88.9393 150.404 89.5841L150.422 89.6177C150.945 90.5969 151.777 89.6669 152.011 88.928ZM144.663 85.7902L144.733 85.689C145.455 84.6696 146.674 83.4433 147.893 84.3914C148.28 84.6929 148.295 85.1961 147.893 85.4953L147.74 85.6075C147.208 85.9973 146.678 86.3654 146.287 86.9245C145.862 87.5324 145.48 88.176 144.909 88.6528C143.898 89.4959 142.265 89.6622 141.388 88.5255L141.302 88.4127C141.228 88.3152 141.144 88.1977 141.076 88.0805L141.022 88.1566C141.017 88.1643 141.012 88.1716 141.008 88.1784L140.996 88.1978C140.635 88.7925 140.18 89.2822 139.613 89.6687C138.535 90.403 137.321 90.5051 136.101 90.1164C135.982 90.0782 136.014 89.913 136.13 89.902C137.574 89.7627 138.982 88.7028 139.57 87.338L139.636 87.1848C139.874 86.6419 140.14 86.1259 140.728 85.9127C141.3 85.7052 141.9 85.9244 142.292 86.3711C142.62 86.7444 142.705 87.4866 143.296 87.323C143.944 87.1437 144.308 86.306 144.663 85.7902ZM140.524 76.7227C140.844 76.4716 141.346 76.741 141.434 77.1049C141.833 78.7523 140.175 80.6936 138.581 80.7446C138.171 80.7576 137.777 80.6551 137.413 80.4591C137.132 80.3071 136.798 79.9186 136.489 79.8542C136.089 79.7712 135.735 80.3207 135.454 80.6027C135.105 80.9528 134.759 81.2778 134.368 81.5761C134.212 81.6954 133.97 81.4951 134.036 81.312L134.168 80.948C134.647 79.6522 135.472 77.7606 137.015 78.2983C137.771 78.5617 138.34 79.4501 139.136 78.7466C139.774 78.1834 139.833 77.265 140.524 76.7227ZM147.333 70.0906C148.772 68.3853 152.154 69.286 152.795 71.3607C152.937 71.8189 152.789 72.4144 152.442 72.7387C151.986 73.1659 151.335 73.2953 150.78 72.9602C150.303 72.672 150.107 72.2004 149.757 71.7957C149.243 71.2029 148.543 70.8737 147.822 70.6379C147.642 70.7357 147.475 70.8643 147.324 71.0193C147.247 71.0986 147.102 70.9898 147.17 70.8964C147.263 70.7693 147.376 70.6497 147.505 70.5395L147.443 70.5207C147.253 70.4661 147.212 70.2343 147.333 70.0906ZM156.683 51.2626C157.006 51.2631 157.381 51.5757 157.34 51.9408L157.328 52.0421C157.235 52.7371 157.019 53.1306 156.345 53.4535C155.773 53.727 155.173 53.8782 154.547 53.9381C154.31 53.9607 154.059 53.962 153.804 53.9426L153.751 54.2616C153.644 54.8996 153.546 55.538 153.527 56.1883C153.493 57.3939 153.929 58.3874 154.396 59.4637C155.293 61.5312 155.394 63.595 154.417 65.6595C154.274 65.9614 153.87 66.2075 153.544 66.1769C153.12 66.1373 152.916 66.0109 152.67 65.6595C152.463 65.3645 152.511 64.9474 152.654 64.6388L152.67 64.605C153.162 63.6207 153.317 62.5086 153.066 61.4266C152.83 60.4096 152.295 59.4956 152.056 58.4818C151.667 56.8304 152.081 55.1923 152.891 53.7756C152.28 53.5938 151.715 53.2699 151.338 52.7758L151.339 52.7751C151.195 52.6163 151.274 52.2845 151.526 52.3045L151.812 52.3283C152.63 52.3989 153.382 52.4722 154.209 52.237C154.632 52.1162 154.998 51.9149 155.362 51.6712L155.44 51.6183C155.895 51.306 156.147 51.2619 156.683 51.2626ZM158.64 39.057C160.689 38.9368 162.438 40.3332 163.289 42.1922C164.213 44.2104 163.825 46.5261 163.01 48.5117L162.778 49.0675C162.372 50.0303 161.84 51.1754 161.01 51.692C160.077 52.2724 159.27 51.5994 159.546 50.5295C159.71 49.8924 160.153 49.401 160.512 48.8751C160.847 48.384 161.16 47.8758 161.434 47.3456C161.971 46.3059 162.372 45.1474 162.367 43.9562C162.36 41.7819 160.969 39.2902 158.64 39.3221C158.473 39.3241 158.476 39.0665 158.64 39.057ZM169.004 35.5487C168.876 35.4486 168.99 35.2259 169.133 35.3199C171.509 36.8805 173.283 39.8119 173.641 42.6918C173.839 44.2897 173.687 45.9973 173.028 47.4719C172.65 48.3181 172.002 49.1258 171.095 49.3578C170.261 49.5709 169.401 49.0791 169.143 48.2386C169.042 47.9125 169.215 47.5714 169.476 47.3933C170.321 46.816 171.002 46.0876 171.4 45.1077C171.814 44.089 171.98 43.0078 171.985 41.9089C171.997 39.3353 171.002 37.1173 169.004 35.5487ZM198.031 36.6642C197.921 36.5383 198.059 36.3527 198.205 36.4315C199.923 37.3645 201.014 39.1516 201.327 41.1088C201.634 43.025 201.221 45.6336 199.785 47.0194C198.974 47.8017 197.522 46.7613 198.196 45.7537C198.671 45.0431 199.185 44.4578 199.457 43.6182C199.699 42.869 199.785 42.1134 199.772 41.3262C199.743 39.6086 199.149 37.9447 198.031 36.6642ZM177.027 34.2647C179.963 34.1203 181.741 37.5803 182.149 40.1592C182.4 41.7525 182.211 43.3936 181.359 44.7756L181.309 44.8561C180.606 45.9601 179.328 47.2312 177.951 46.7084C177.368 46.4874 177.213 45.8426 177.604 45.3535C178.204 44.6048 179.13 44.2997 179.693 43.5002C180.325 42.6037 180.532 41.4805 180.495 40.3902L180.49 40.2697C180.393 38.2642 179.466 34.4149 177.027 34.483C176.891 34.4867 176.892 34.2712 177.027 34.2647ZM186.208 33.6898C189.047 33.3151 190.776 36.7639 191.309 39.1398C191.642 40.625 191.715 42.2819 191.289 43.756L191.257 43.861C190.911 44.9612 189.888 46.8463 188.552 46.284C188.186 46.13 187.813 45.7104 187.988 45.2581C188.212 44.6799 188.535 44.5299 188.965 44.1598C189.296 43.8749 189.528 43.466 189.698 43.0632C190.152 41.9897 190.253 40.7356 190.191 39.5788L190.183 39.4419C190.022 37.1823 188.836 33.815 186.208 33.8769C186.088 33.8797 186.096 33.7044 186.208 33.6898ZM191.406 30.4475C192.986 29.8262 194.28 31.3863 195.189 32.4997C196.326 33.8948 197.359 35.3977 197.942 37.1344C198.462 38.6819 198.553 40.4025 198.085 41.9777C197.853 42.7577 197.492 43.4809 196.999 44.1176L196.937 44.1978C196.424 44.8436 195.928 45.2405 195.088 45.0093C194.746 44.915 194.602 44.5659 194.661 44.2323C194.788 43.5195 195.143 43.3344 195.604 42.8368C196.01 42.398 196.312 41.8575 196.515 41.2892C196.933 40.1169 196.954 38.8469 196.674 37.6392C196.36 36.2872 195.742 35.0387 195.026 33.8687L194.872 33.6181C194.115 32.3812 193.034 30.4764 191.436 30.6772C191.299 30.6945 191.297 30.4901 191.406 30.4475Z" fill="#1D1E1D"/>
<path fill-rule="evenodd" clip-rule="evenodd" d="M179.038 77.4277C179.939 75.8973 181.86 79.6462 182.064 80.2908C182.244 80.8618 182.364 81.4467 182.424 82.0384C183.123 82.2001 183.848 82.2004 184.564 82.0587C185.627 81.848 186.277 81.2575 187.202 80.7505C187.84 80.4001 188.645 80.811 188.977 81.392C189.368 82.076 189.119 82.7858 188.605 83.2957C187.631 84.2626 185.714 84.4847 184.443 84.2279C183.714 84.0809 183.046 83.7987 182.457 83.3887C182.453 83.4652 182.45 83.5417 182.444 83.6181L182.433 83.7507C182.335 84.823 182.05 86.1714 181.243 86.8691C179.92 88.0137 178.288 85.8125 179.573 84.6692L179.613 84.6349C180.412 83.9683 180.586 82.1796 180.543 81.1945C180.515 80.5515 180.402 79.9003 180.205 79.2879L180.165 79.1659C180.106 78.9929 179.46 77.3519 179.227 77.5609L179.216 77.5727C179.12 77.6913 178.964 77.5532 179.038 77.4277ZM186.231 68.7923C187.448 69.5557 189.301 71.3356 187.992 73.2281C186.452 74.8967 184.235 72.9835 183.142 72.1182C182.129 71.4477 180.991 73.1723 181.931 73.9553C189.826 79.9914 193.03 68.9919 186.847 67.8948C186.166 67.7739 185.913 68.5562 186.231 68.7923ZM173.245 61.7365C174.434 61.5188 175.651 61.824 176.635 62.5421L176.709 62.5975C177.657 63.3131 178.717 64.5696 178.173 65.803C177.955 66.2983 177.302 66.3759 176.887 66.1514C176.196 65.7776 176.071 64.8577 175.455 64.3487C174.95 63.9314 174.27 63.6783 173.619 63.7393C172.091 63.8827 171.15 65.4395 170.676 66.781C170.615 66.9527 170.371 67.0194 170.276 66.8351C169.156 64.6745 171.138 62.1227 173.245 61.7365ZM192.283 60.9211C194.56 60.7274 197.224 63.1648 196.625 65.6464C196.337 66.8371 194.627 66.803 194.323 65.6464C194.156 65.0099 194.172 64.4468 193.729 63.9183C193.362 63.4819 192.842 63.2285 192.283 63.2674C191.666 63.3103 191.098 63.6284 190.666 64.0756C190.275 64.4794 190.042 65.0703 189.638 65.4277C189.538 65.5155 189.405 65.5211 189.307 65.4277C188.611 64.7653 189.029 63.3863 189.47 62.6948C190.101 61.7053 191.129 61.0194 192.283 60.9211ZM168.91 57.3353C170.37 56.0002 173.024 54.7108 174.994 55.3679C176.126 55.7456 176.62 57.6296 175.355 58.2268C173.892 58.9183 172.204 58.6369 170.714 59.3537C170.089 59.6549 169.5 60.0312 169.064 60.5832C168.721 61.0182 168.372 61.5907 167.876 61.8414C167.745 61.9075 167.569 61.9091 167.464 61.7867C166.376 60.5158 167.96 58.2035 168.91 57.3353ZM189.772 55.3016C190.675 55.04 191.676 55.0453 192.593 55.2096C193.51 55.3739 194.441 55.7663 195.189 56.3385L195.276 56.4055C196.093 57.0413 197.068 57.9663 197.016 59.0925C196.972 60.033 196.014 60.6691 195.187 60.1762C194.513 59.7742 194.195 58.9689 193.625 58.4328C193.153 57.9902 192.6 57.6413 192.01 57.3969C191.354 57.1253 190.697 56.9981 189.993 56.9859C189.451 56.9766 188.906 57.1602 188.374 57.2189C188.418 57.3117 187.998 57.2685 187.757 57.1862C187.578 57.1077 187.577 56.8747 187.639 56.7235C187.946 55.9746 189.062 55.5072 189.772 55.3016Z" fill="#1D1E1D"/>
<path fill-rule="evenodd" clip-rule="evenodd" d="M359.994 205.729C336.815 209.366 313.215 209.549 289.843 208.229C280.593 207.513 271.315 207.384 262.073 208.299C256.611 208.719 232.666 210.609 230.71 205.556C231.941 178.649 234.435 151.513 242.085 125.634C245.232 116.446 247.934 108.819 254.075 101.215C256.01 99.1393 260.184 94.7851 262.575 93.365C264.647 92.135 265.513 92.5738 266.703 90.496C267.885 88.2008 268.757 84.3676 270.436 82.748C272.145 81.099 274.678 81.6889 277.817 82.2201C277.24 74.1682 280.838 72.1175 285.795 70.5864C294.507 67.1514 303.111 68.877 305.304 79.8333C309.37 79.8333 311.654 81.6408 314.123 83.3776C315.132 84.0875 314.43 85.8963 315.636 86.4543C317.866 87.2747 321.808 87.0737 323.955 88.0834C333.721 92.6747 342.42 99.3327 348.132 109.056C360.938 129.816 369.735 173.548 368.213 198.153C368.88 199.234 367.958 200.783 367.723 201.945C367.428 202.955 366.469 203.628 365.469 203.513C364.074 205.063 361.915 205.408 359.994 205.729Z" fill="white"/>
<path fill-rule="evenodd" clip-rule="evenodd" d="M264.051 92.756C264.193 92.674 264.068 92.464 263.925 92.5334C257.051 95.8649 251.777 101.71 248.066 108.463C244.224 115.455 242.034 123.395 240.146 131.154L240.078 131.435C238.065 139.736 236.353 148.123 234.812 156.53C233.251 165.044 231.998 173.61 230.991 182.212C230.492 186.466 230.048 190.726 229.701 194.996C229.528 197.129 229.37 199.264 229.229 201.4C229.173 202.254 229.119 203.109 229.074 203.964L229.041 204.605C229.013 205.187 228.946 205.77 229.085 206.344C229.205 206.839 229.459 207.287 229.682 207.741C230.123 208.638 231.332 208.491 231.807 207.741L231.945 207.522C232.26 207.019 232.522 206.551 232.621 205.925C232.717 205.319 232.72 204.683 232.763 204.071C232.842 202.944 232.91 201.815 232.986 200.688C233.147 198.315 233.328 195.943 233.528 193.573C233.924 188.895 234.348 184.22 234.87 179.555C235.796 171.263 236.959 162.993 238.33 154.767C239.669 146.731 241.362 138.777 243.128 130.833L243.311 130.011C246.403 116.141 251.169 100.168 264.051 92.756ZM337.271 147.068C337.221 146.929 337.003 146.897 336.966 147.068C336.503 149.222 336.458 151.44 336.387 153.645C336.317 155.82 336.32 158.005 336.351 160.182C336.464 168.181 336.676 176.173 336.86 184.171C336.952 188.172 337.038 192.173 337.104 196.174C337.13 197.675 337.151 199.175 337.168 200.676L337.189 202.655C337.2 203.531 337.222 204.395 337.326 205.269C337.394 205.844 337.539 206.393 337.846 206.885C338.064 207.235 338.375 207.413 338.678 207.651L338.735 207.696C339.121 208.011 339.528 208.014 339.911 207.696L340.022 207.605C340.388 207.31 340.703 207.079 340.937 206.612C341.262 205.963 341.314 205.257 341.369 204.542C341.452 203.456 341.397 202.355 341.386 201.267C341.364 199.084 341.335 196.902 341.298 194.719C341.162 186.715 340.893 178.709 340.403 170.719C340.172 166.955 339.859 163.18 339.439 159.431L339.359 158.729C339.231 157.626 339.115 156.504 338.984 155.378C340.939 153.957 342.657 152.234 344.122 150.279C344.23 150.135 344.052 149.933 343.922 150.073C342.425 151.674 340.708 152.951 338.808 153.955C338.497 151.597 338.069 149.253 337.271 147.068ZM304.616 75.717C304.589 75.6956 304.547 75.6862 304.522 75.717C304.102 76.223 304.187 76.9967 304.173 77.6379L304.172 77.6976C304.142 78.6351 304.136 79.5697 304.139 80.5077L304.148 83.4937C304.15 83.9042 304.182 84.3316 304.161 84.7446L304.151 84.9044C303.93 85.1379 303.828 85.4753 303.902 85.8142C303.916 86.249 304.136 86.6117 304.457 86.8397L303.769 87.8479L303.08 88.8555C301.661 90.9349 300.226 92.9958 298.731 95.018C297.206 97.0797 295.58 99.0638 293.878 100.971C293.046 101.904 292.2 102.823 291.335 103.721C290.983 104.087 290.622 104.443 290.266 104.803L289.911 105.165C289.702 105.382 289.438 105.596 289.299 105.87C289.217 106.032 289.199 106.431 289.169 106.497C288.907 107.093 289.355 108.044 290.099 107.746L290.065 107.723C289.93 107.625 290.017 107.624 290.326 107.719C290.521 107.718 290.704 107.672 290.875 107.58L290.926 107.551C291.167 107.425 291.382 107.18 291.577 106.984L291.626 106.937C292.073 106.504 292.5 106.044 292.928 105.592C293.823 104.648 294.698 103.684 295.544 102.693C297.233 100.718 298.835 98.6624 300.351 96.5431C301.896 94.3845 303.331 92.1151 304.566 89.7525C305.035 88.8559 305.464 87.942 305.876 87.0175C306.678 86.7518 306.864 85.8711 306.808 84.8789C307.104 84.1674 307.37 83.4412 307.528 82.6993C307.549 82.5976 307.423 82.5017 307.347 82.5906C307.09 82.8916 306.853 83.2119 306.625 83.5406C306.487 82.845 306.313 82.2048 306.231 81.7966L305.876 79.9953C307.878 79.8875 310.073 80.7374 311.453 82.2253C311.527 82.6128 311.816 82.8901 312.097 83.2523C312.419 83.6663 312.699 84.1309 312.908 84.6168C313.372 85.6938 313.111 87.2809 314.011 88.071C314.105 88.1533 314.21 88.2105 314.318 88.2459C313.891 90.4101 314.085 92.7948 314.094 94.9904L314.094 95.1837C314.092 97.641 314.172 100.1 314.263 102.556L314.357 104.986C314.478 108.226 314.557 111.469 314.252 114.692C312.86 113.418 311.421 112.203 309.932 111.045C308.953 110.284 307.955 109.549 306.938 108.843L306.112 108.272C305.122 107.587 304.108 106.881 303.024 106.39C301.607 105.748 300.259 105.969 298.89 106.627C297.527 107.283 296.205 108.045 294.868 108.756C293.508 109.479 292.145 110.196 290.784 110.914C289.882 111.391 288.56 111.82 287.898 112.697C287.856 112.503 287.807 112.31 287.749 112.117C287.815 111.823 287.79 111.506 287.63 111.203C285.407 106.983 283.35 102.663 281.308 98.3474C280.274 96.1635 279.291 93.9538 278.255 91.7712L277.248 89.6455C277.08 89.2914 276.911 88.9376 276.741 88.5843C276.487 88.0553 276.223 87.5315 275.966 87.0038C275.857 86.7808 275.721 86.5594 275.616 86.3344L275.565 86.2215C275.563 86.2156 275.319 85.4231 275.508 85.4986L275.524 85.5067C275.62 85.563 275.697 85.438 275.635 85.3582C275.368 85.0179 274.997 85.3194 274.845 85.6344C274.426 86.5015 275.194 87.8626 275.489 88.6929L275.505 88.7393C276.422 91.4188 277.459 94.048 278.522 96.6681C280.561 101.691 282.75 106.638 284.935 111.592L284.961 111.678C284.495 111.309 283.998 110.974 283.572 110.648C282.497 109.825 281.391 109.044 280.287 108.264C278.262 106.835 276.182 105.5 274.067 104.218L273.644 103.962C272.588 103.326 271.542 102.811 270.288 103.002C269.123 103.179 268.04 103.825 266.988 104.35L266.879 104.404L263.628 106.001C263.976 104.569 264.352 103.144 264.745 101.725C265.51 98.9557 266.353 96.2101 267.267 93.489C268.12 90.9466 269.043 88.4321 270.018 85.9374L270.312 85.1887C270.71 84.1616 271.106 83.0416 272.243 82.7253C273.379 82.4092 274.683 82.878 275.721 82.2088C275.816 82.148 275.804 81.9872 275.69 81.9575L275.049 81.7907C273.845 81.4814 272.435 81.1704 271.297 81.4711C270.059 81.7988 269.034 82.8723 268.433 83.9883C267.765 85.2298 267.295 86.6192 266.788 87.9431L266.707 88.1515C266.125 89.6497 265.566 91.1569 265.03 92.6735C263.96 95.7051 262.985 98.7731 262.103 101.869C261.678 103.361 261.275 104.86 260.887 106.363C260.776 106.795 260.592 107.319 260.441 107.865C260.268 108.04 260.105 108.234 259.951 108.455C259.697 108.823 259.879 109.254 260.196 109.474C260.208 109.85 260.289 110.204 260.482 110.507C261.237 111.691 263.233 111.386 263.152 109.795C263.14 109.551 263.048 109.319 262.909 109.122L262.913 109.09L262.928 109.032C263.275 108.86 263.623 108.669 263.99 108.482L267.402 106.74C268.39 106.236 269.486 105.456 270.584 105.264C271.609 105.085 272.69 105.873 273.57 106.349L273.627 106.38C275.756 107.506 277.868 108.671 279.972 109.844C280.999 110.417 282.013 111.014 283.036 111.594C283.892 112.079 284.815 112.775 285.777 113.049C286.187 113.379 286.675 113.335 287.067 113.085C286.888 114.232 286.899 115.408 286.844 116.58C286.77 118.147 286.759 119.719 286.735 121.288L286.725 121.876C286.66 125.345 286.626 128.815 286.613 132.284C286.567 144.639 286.699 156.998 286.73 169.353C286.746 175.561 286.865 181.773 287.021 187.979C287.087 190.608 287.226 193.234 287.375 195.86L287.457 197.291C287.631 200.313 287.734 203.368 288.276 206.349C288.346 206.737 288.983 206.747 289.046 206.349C289.544 203.155 289.572 199.891 289.668 196.659L289.688 196.013C289.803 192.544 289.858 189.076 289.846 185.605C289.803 173.245 289.492 160.893 289.238 148.536C289.11 142.328 289.024 136.117 288.825 129.911C288.726 126.805 288.613 123.702 288.48 120.598C288.42 119.212 288.363 117.827 288.274 116.443L288.234 115.85C288.206 115.463 288.184 115.081 288.156 114.703C289.367 115.159 290.474 114.314 291.563 113.735C292.818 113.068 294.073 112.4 295.328 111.734L296.585 111.07L299.1 109.744C300.232 109.147 301.105 108.553 302.312 109.253C306.663 111.775 310.662 115.13 314.285 118.651C314.98 119.326 316.448 119.145 316.624 118.013C317.376 113.179 316.918 108.275 316.535 103.426L316.393 101.625C316.222 99.4752 316.035 97.325 315.786 95.1837C315.675 94.2257 315.564 93.2684 315.441 92.3123L315.347 91.5955C315.194 90.4622 315.094 89.3357 314.767 88.2488C314.87 88.2144 314.969 88.1579 315.058 88.071C316.04 87.1081 315.567 85.437 315.118 84.2915C314.676 83.1608 314.001 82.174 313.155 81.3247C312.971 81.1392 312.711 81.0198 312.45 81.0136C310.4 79.6107 308.151 78.9106 305.811 79.6764C305.745 79.3517 305.678 79.0275 305.607 78.7041L305.536 78.3811C305.354 77.5788 305.286 76.2537 304.616 75.717ZM283.608 202.408C282.972 202.227 282.276 202.418 281.81 202.899C281.344 203.381 281.159 204.1 281.334 204.757C281.422 205.08 281.581 205.361 281.81 205.6C282.024 205.819 282.274 205.976 282.559 206.07L282.625 206.091L282.729 206.135C283.048 206.224 283.367 206.224 283.686 206.135C283.991 206.047 284.255 205.888 284.48 205.658C284.703 205.425 284.857 205.152 284.943 204.837C285.028 204.508 285.028 204.178 284.943 203.849L284.899 203.742C284.811 203.418 284.653 203.137 284.424 202.899C284.193 202.662 283.921 202.499 283.608 202.408ZM245.84 136.931C245.736 136.807 245.566 136.966 245.631 137.098C246.622 139.104 247.726 141.096 248.811 143.052C248.725 143.594 248.638 144.131 248.539 144.655C248.116 146.889 247.598 149.082 247.261 151.337C246.047 159.441 245.417 167.634 244.877 175.812C244.334 184.018 244.265 192.229 244.184 200.452C244.176 201.165 244.707 201.993 245.418 202.127C245.744 202.189 245.987 202.177 246.312 202.127C247.052 202.015 247.515 201.139 247.547 200.452C247.759 195.856 248.045 191.266 248.375 186.678C248.962 178.543 249.32 170.387 249.793 162.243L249.96 159.397C250.139 156.313 250.303 153.227 250.356 150.138C250.392 148.092 250.286 146.047 250.351 144.003C250.411 142.116 250.596 140.064 250.193 138.21C250.178 138.141 250.072 138.123 250.042 138.19C249.623 139.1 249.358 140.09 249.153 141.1C248.074 139.69 246.975 138.277 245.84 136.931ZM316.525 87.0867C316.373 87.0754 316.38 87.3106 316.525 87.328C318.643 87.5818 320.688 88.472 322.688 89.2287L322.859 89.2932C324.88 90.0504 326.849 90.9309 328.745 91.9804C332.45 94.0324 335.853 96.6784 338.862 99.7073C350.875 111.799 356.349 129.236 360.36 145.622C362.589 154.726 364.174 163.984 365.201 173.313C365.709 177.927 366.068 182.558 366.278 187.196C366.385 189.573 366.452 191.953 366.481 194.333C366.495 195.551 366.499 196.771 366.498 197.989C366.497 198.548 366.401 199.251 366.545 199.794C366.68 200.296 367.058 200.739 367.338 201.157C367.669 201.654 368.265 201.628 368.601 201.157L368.725 200.986C369.084 200.495 369.435 200.025 369.486 199.383C369.541 198.694 369.502 197.984 369.505 197.293C369.51 195.9 369.494 194.506 369.467 193.114C369.415 190.444 369.313 187.775 369.162 185.11C368.854 179.7 368.348 174.301 367.624 168.934C366.337 159.394 364.407 149.945 361.88 140.674C359.495 131.927 356.67 123.207 352.646 115.105C348.909 107.583 344.007 100.586 337.539 95.3286C334.531 92.884 331.257 90.8466 327.727 89.3123C325.946 88.5384 324.077 87.9066 322.175 87.5465C320.295 87.1904 318.423 87.24 316.525 87.0867ZM283.244 186.948C282.908 186.946 282.533 187.022 282.245 187.214L281.86 187.521C281.756 187.66 281.652 187.799 281.548 187.938C281.308 188.262 281.276 188.786 281.326 189.173C281.337 189.43 281.412 189.67 281.548 189.892L281.842 190.285C282.123 190.522 282.358 190.691 282.699 190.805C282.878 190.865 283.05 190.877 283.221 190.868L283.278 190.865L283.244 190.869L283.304 190.862C283.359 190.857 283.415 190.851 283.471 190.843C283.509 190.838 283.548 190.835 283.586 190.83C283.623 190.827 283.658 190.825 283.695 190.829C284.129 190.871 284.565 190.617 284.873 190.325C285.15 190.062 285.399 189.504 285.36 189.109L285.344 188.944C285.314 188.665 285.29 188.555 285.176 188.276C285.065 188.003 284.91 187.763 284.698 187.56C284.294 187.171 283.799 186.952 283.244 186.948ZM284.586 166.552C284.01 165.904 283.022 165.856 282.308 166.248C282.134 166.344 281.975 166.497 281.821 166.625C281.435 166.948 281.283 167.53 281.262 168.02C281.241 168.505 281.488 169.08 281.821 169.415L281.902 169.496C282.101 169.696 282.386 169.869 282.664 169.922C283.113 170.007 283.49 170.005 283.907 169.823C284.266 169.666 284.576 169.415 284.786 169.073L284.82 169.016C284.835 168.992 284.848 168.967 284.861 168.942L284.88 168.905C285.28 168.11 285.172 167.211 284.586 166.552ZM284.288 146.048C284.028 145.963 283.769 145.951 283.509 146.012C283.333 146.012 283.169 146.058 283.017 146.149C282.851 146.197 282.707 146.283 282.586 146.409C282.439 146.498 282.322 146.619 282.235 146.77C282.063 146.965 281.946 147.194 281.886 147.456L281.816 147.992L281.886 148.528L282.083 149.01C282.137 149.083 282.191 149.156 282.246 149.229C282.333 149.381 282.451 149.502 282.598 149.592C282.693 149.69 282.803 149.763 282.925 149.814C283.36 150.136 283.939 150.241 284.454 150.095C284.76 150.006 285.026 149.846 285.251 149.615C285.475 149.382 285.63 149.108 285.715 148.792L285.75 148.54C285.796 148.202 285.803 148.014 285.71 147.584C285.67 147.395 285.552 147.128 285.49 147.016C285.226 146.537 284.795 146.208 284.288 146.048ZM261.749 131.296C261.004 131.291 260.259 131.292 259.513 131.301L258.954 131.309C258.019 131.324 257.217 131.224 256.481 131.895C255.947 132.382 256.182 133.198 256.689 133.565C257.457 134.121 258.421 133.841 259.304 133.78C260.235 133.715 261.167 133.662 262.099 133.619C263.904 133.535 265.709 133.482 267.516 133.474C269.319 133.466 271.124 133.484 272.927 133.514C274.761 133.544 276.671 133.721 278.495 133.525C278.745 133.498 278.802 133.158 278.554 133.069C276.836 132.455 274.902 132.256 273.101 132.021C271.243 131.779 269.385 131.607 267.516 131.496C265.596 131.382 263.673 131.31 261.749 131.296ZM284.291 125.264L284.23 125.265C283.902 125.266 283.595 125.345 283.308 125.504L283.247 125.539L282.853 125.853C282.612 126.104 282.445 126.4 282.353 126.741L282.283 127.275C282.273 127.552 282.329 127.81 282.451 128.05C282.53 128.299 282.664 128.515 282.853 128.697C283.03 128.893 283.239 129.031 283.48 129.112C283.694 129.228 283.923 129.287 284.168 129.287L284.23 129.286C284.581 129.284 284.908 129.193 285.212 129.011L285.606 128.697C285.847 128.446 286.014 128.15 286.106 127.81L286.176 127.275C286.186 126.998 286.13 126.74 286.008 126.501C285.93 126.251 285.795 126.036 285.606 125.853C285.429 125.657 285.221 125.519 284.979 125.438C284.765 125.322 284.536 125.263 284.291 125.264ZM278.522 78.0362C278.102 77.4088 277.342 77.9667 277.451 78.4711C277.422 79.8877 277.352 81.2626 277.04 82.6502C276.897 83.2855 276.71 83.9215 276.422 84.5034L276.3 84.7485C275.927 85.5111 275.637 86.2303 276.14 87.0669C276.377 87.4613 276.806 87.7575 277.27 87.7368C279.331 87.6449 279.614 84.6818 279.74 83.0276C279.869 81.324 279.467 79.4517 278.522 78.0362Z" fill="#1D1E1D"/>
<path fill-rule="evenodd" clip-rule="evenodd" d="M290.42 1.4126C282.476 1.4126 272.946 5.39075 272.135 5.47031L272.114 5.47152C271.687 5.47152 270.021 6.7826 267.116 9.40478L270.263 15.7454L270.008 15.9966C268.789 17.2036 267.749 18.3037 266.928 19.171C260.223 26.2521 259.018 54.0547 260.598 63.7504C262.178 73.4461 265.105 82.9335 278.731 82.9335C292.356 82.9335 307.516 74.4698 309.851 71.8341C311.407 70.077 313.156 69.2352 315.097 69.3087C315.176 69.2047 315.256 69.1011 315.334 68.9977L315.62 68.9559C318.305 68.5541 320.23 68.0133 321.393 67.3336C323.664 66.006 326.161 59.0266 326.161 57.4891C326.161 55.967 329.889 44.8943 329.964 43.7225L329.965 43.6901C329.965 42.7105 334.835 38.2076 334.835 36.7776C334.835 35.3476 335.817 35.4343 334.835 30.3951L334.55 28.9147C333.505 23.5495 331.46 14.6654 323.664 10.8049C315.097 6.56274 298.444 1.4126 290.42 1.4126Z" fill="white"/>
<path fill-rule="evenodd" clip-rule="evenodd" d="M324.986 10.6056C320.714 5.92045 296.456 -1.32632 284.183 0.209819L283.815 0.259069C282.836 0.38737 281.871 0.581653 280.918 0.845585C277.839 1.58844 274.659 2.71327 272.114 4.59214C269.99 6.12918 263.29 8.63928 265.265 12.6602C264.533 14.0933 264.26 15.8639 264.755 17.2754C264.817 17.7629 264.962 18.212 265.148 18.6775C263.584 21.0622 262.345 23.7591 261.343 26.3242C259.591 32.7797 258.501 39.4979 258.341 46.0843C257.81 58.5976 259.138 73.5448 269.688 81.6365C276.061 86.7639 286.044 86.9362 293.206 80.5788C293.613 80.0819 295.524 78.7409 294.886 78.5058C294.697 78.7129 294.501 78.9145 294.303 79.1125C294.312 79.0905 294.313 79.0685 294.31 79.0446L294.497 78.8698C294.849 78.5334 295.305 78.0456 294.785 78.141C294.762 78.1685 294.737 78.1924 294.713 78.2199C294.603 78.288 294.52 78.3471 294.455 78.3992L294.422 78.4267L294.432 78.4157C294.731 78.0861 294.91 77.75 294.463 77.9647L294.404 77.9944C294.205 78.2107 294.003 78.4178 293.797 78.6194C293.801 78.5956 293.797 78.5718 293.785 78.5461L293.976 78.3546C294.164 78.165 294.135 78.1642 294.044 78.0109C294.442 77.4345 293.699 77.7769 293.646 78.0017C293.181 77.8881 292.773 78.7899 292.474 78.8998C279.344 89.327 260.291 80.0749 260.6 51.0195L260.605 50.451C260.695 41.1603 261.452 31.6112 265.172 23.201C265.533 22.3909 265.938 21.6027 266.383 20.8403C266.69 20.2684 267.018 19.7112 267.372 19.1687C268.36 19.0862 269.336 18.8993 270.297 18.6097C270.627 18.5235 270.954 18.4282 271.28 18.3164C276.049 18.5851 280.712 18.8775 285.495 19.1546L286.988 19.2507C291.04 19.5198 295.23 19.9507 298.499 22.5393C301.707 24.896 301.721 29.5433 304.467 32.1307C308.383 34.8761 308.412 37.3518 309.166 41.3977C309.11 44.4475 307.063 48.8789 310.819 50.1624C310.185 51.0959 311.069 50.6474 311.138 50.32C311.145 50.3219 311.153 50.3237 311.158 50.3237C310.593 51.4082 311.423 50.7253 311.497 50.3768C311.541 50.364 311.585 50.331 311.63 50.2852C311.061 51.2354 311.981 50.57 311.926 50.397C313.026 48.6512 315.288 48.3801 316.883 48.8427C316.903 48.9051 316.974 48.9106 317.018 48.8776C323.801 50.3959 322.051 64.9005 315.1 63.4983C314.803 63.4356 314.81 63.5832 314.751 63.5973C314.911 63.1618 314.459 63.339 314.463 63.4305L314.436 63.4291C314.414 63.4271 314.423 63.4246 314.407 63.4305C314.562 62.5399 313.688 63.8302 313.757 63.8832C313.73 63.8667 313.7 63.8576 313.674 63.8539L313.704 63.7693C313.849 63.3703 313.836 63.5362 313.835 63.3077C313.944 63.0252 313.952 63.1488 313.927 62.9648C313.544 62.6583 313.431 63.5879 313.303 63.6559C313.522 63.3407 313.348 63.0832 313.141 63.2544C311.576 66.6558 309.554 69.8517 306.941 72.3694C306.655 72.6021 306.366 72.8312 306.066 73.0475C304.954 74.0477 303.249 74.6909 302.209 75.5769C302.209 75.5915 302.216 75.6099 302.226 75.6282L302.203 75.6504L302.178 75.674L301.817 75.8536C301.71 75.9471 301.614 76.0516 301.529 76.1671C301.439 76.2752 301.359 76.3943 301.291 76.5208C301.258 76.6748 301.332 76.7389 301.474 76.6729C301.536 76.6509 301.598 76.6253 301.66 76.6014C301.657 76.6069 301.655 76.6106 301.652 76.6143C301.631 76.6461 301.493 76.9762 301.652 76.9224L301.671 76.9149C301.758 76.8819 301.845 76.8452 301.93 76.8104C301.829 76.9405 301.737 77.0816 301.655 77.2008C301.568 77.2943 301.515 77.4042 301.494 77.5289C301.497 77.5985 301.534 77.6278 301.602 77.6187C301.705 77.5839 301.806 77.5472 301.907 77.5087L301.878 77.5655C301.807 77.7109 301.705 77.9549 301.886 77.8734C302.04 77.824 302.189 77.7671 302.338 77.7048C302.351 77.7305 302.375 77.7396 302.425 77.7158C302.899 77.5417 303.357 77.3291 303.795 77.078C304.18 76.7884 304.569 76.5043 304.955 76.2165C305.319 75.9911 305.67 75.74 306.005 75.4577C308.249 73.9606 310.213 72.0589 311.772 69.9408C314.378 72.2724 319.589 70.0449 322.812 68.2198C325.663 66.5885 326.784 63.5724 327.073 60.3205C327.676 55.9425 331.139 54.444 330.898 44.8379C330.903 44.8398 330.909 44.8398 330.916 44.8398C331.042 44.8013 331.164 44.75 331.279 44.684C331.398 44.6253 331.51 44.5557 331.615 44.4714L331.744 44.2862C331.812 44.2478 331.872 44.2074 331.918 44.1671L331.942 44.199C332.018 44.2934 331.967 44.1513 331.963 44.1231L332.188 43.807C332.721 43.0546 333.306 42.2103 333.783 41.5351L333.798 41.5626C333.809 41.5833 333.815 41.5982 333.809 41.6048C334.944 39.9207 336.011 37.8866 336.308 35.9174C336.658 34.4005 336.521 32.8375 336.216 31.4324C334.906 26.5121 330.618 15.3778 324.986 10.6056ZM294.195 78.6511L294.266 78.5857L294.204 78.6666C294.171 78.7085 294.137 78.746 294.083 78.7844C294.086 78.7716 294.086 78.7587 294.085 78.7441C294.121 78.7155 294.158 78.6842 294.195 78.6511ZM284.238 2.68211C292.56 1.94292 300.746 3.837 308.688 6.12973L309.236 6.2924C313.751 7.62352 318.526 8.82132 322.343 11.6705C327.674 15.8892 330.428 22.6004 332.83 28.7967C334.928 33.4005 333.856 38.5917 330.694 41.8064C330.365 38.6119 329.804 35.5109 328.928 32.4348C328.745 31.9542 328.883 31.7968 328.489 31.7341C327.894 40.0237 330.826 46.1484 325.023 55.9729C322.505 60.6086 325.42 64.0005 318.309 66.4399L318.116 66.5158C316.635 67.0933 315.017 67.5492 313.566 67.2264L313.696 67.0079C313.828 66.7829 313.868 66.6737 313.676 66.5775C313.681 66.5665 313.688 66.5555 313.695 66.5427C313.851 66.2384 314.002 65.9305 314.146 65.6189C314.204 65.6391 314.263 65.6538 314.323 65.6702C314.284 65.7454 314.279 65.8205 314.389 65.8462C314.78 65.9848 315.181 66.0403 315.592 66.0143L315.68 66.0075C316.145 65.9782 316.437 65.8907 316.699 65.8096C316.786 65.7949 316.873 65.7802 316.958 65.7619C317.8 65.5691 318.691 65.0786 319.268 64.5925C325.843 60.7347 325.163 47.6024 317.059 46.361C316.893 38.0926 313.086 24.1431 306.768 16.2642C301.057 9.01685 285.466 5.87569 274.619 6.98329C274.461 7.03736 274.303 7.09198 274.145 7.14715C272.471 7.30074 270.876 8.07091 269.202 8.42869C270.404 7.49777 271.768 6.87772 273.173 6.35077C275.972 4.58187 279.182 3.62475 282.282 2.94971C282.924 2.78659 283.576 2.69677 284.238 2.68211ZM317.43 53.0033C316.994 52.7588 317.044 52.9949 316.944 52.9263C313.809 52.6622 310.43 55.4971 308.678 57.8604C308.816 58.0089 309.19 57.569 309.256 57.4993C309.265 57.5085 309.276 57.5158 309.286 57.5195L309.237 57.5906C308.527 58.6434 309.935 57.4046 310.067 57.1493C310.09 57.1621 310.113 57.1694 310.14 57.1639C310.028 57.277 309.687 57.5719 309.629 57.7816L309.538 57.8593C308.686 58.613 308.757 59.18 309.724 58.1097C309.701 58.1592 309.692 58.205 309.708 58.2416L309.675 58.2646C309.199 58.608 308.808 59.5652 309.802 58.5826C309.699 59.3003 310.788 57.913 310.823 57.9227C312.707 56.395 315.48 54.9093 317.843 54.7097L317.925 54.7001C318.358 54.6425 318.563 54.5096 318.411 54.2167C318.945 54.0854 318.82 53.8138 318.567 53.8226C318.944 53.5667 318.605 53.3221 318.386 53.4175C318.536 52.9877 317.934 53.274 317.879 53.2141C317.566 52.7157 317.482 53.1314 317.43 53.0033ZM324 26.3627C322.494 25.793 318.048 27.4983 318.403 29.7568C318.615 30.2753 319.313 30.5724 319.804 30.2797L320.444 29.8354C321.558 29.0645 322.563 28.3886 323.76 27.7162C324.411 27.3825 324.691 26.6739 324 26.3627ZM315.435 23.0065L316.016 22.6156C319.154 20.4943 323.589 17.2801 315.723 20.6056C314.827 21.0028 313.635 21.2378 313.146 22.1197C312.378 23.7453 314.4 23.8545 315.435 23.0065ZM315.082 13.4886C315.334 12.5016 312.201 13.6598 311.289 13.9652L311.15 14.0194C310.263 14.3608 309.246 14.6776 308.716 15.4685C308.094 16.5612 309.352 16.7876 310.132 16.294C311.73 15.2152 313.482 14.4012 315.082 13.4886ZM307.116 8.89089C308.879 6.90162 304.16 8.80728 303.453 9.33626L303.433 9.35186C302.905 9.73548 303.012 10.5617 303.508 10.8044C304.918 10.8321 305.955 9.61799 307.116 8.89089ZM299.092 6.7114C301.895 4.63019 298.202 5.62012 296.92 6.43574C296.046 7.23212 296.946 8.57652 299.092 6.7114Z" fill="#1D1E1D"/>
<path fill-rule="evenodd" clip-rule="evenodd" d="M289.082 58.9228C286.04 58.5415 283.092 59.5033 280.119 59.9882C278.549 60.2441 276.977 60.4351 275.389 60.5061C275.069 60.5206 274.75 60.529 274.43 60.5357C274.4 60.245 274.242 59.978 273.901 59.818C273.201 59.4904 272.641 59.3426 271.873 59.3742C271.17 59.4029 270.464 59.4776 269.772 59.6085C268.515 59.8467 267.252 60.3871 266.332 61.326C264.203 63.4985 264.527 66.9881 266.172 69.3544C269.57 74.244 275.772 74.4709 281.084 74.4071L281.574 74.4005C286.41 74.3291 293.33 75.074 295.527 69.3896C296.335 67.2993 296.223 64.8764 295.233 62.8715C294.053 60.4802 291.57 59.2347 289.082 58.9228ZM273.974 67.0641L274.018 67.0659C276.248 67.1546 278.477 67.2171 280.708 67.2578C280.641 67.8497 280.573 68.4418 280.495 69.0324C280.434 69.4972 280.369 69.9614 280.301 70.4251C280.272 70.6214 280.166 70.9262 280.196 71.1207L280.207 71.1976C280.092 71.2511 279.988 71.3373 279.911 71.4624C279.884 71.5057 279.864 71.5494 279.845 71.5928C278.113 71.6069 276.249 71.5722 274.483 71.2469L274.479 71.2073C274.447 70.9743 274.353 70.8174 274.229 70.7098C274.105 69.9667 274.116 69.1749 274.068 68.4376C274.038 67.9796 274.006 67.5219 273.974 67.0641ZM282.412 67.2892C284.019 67.3175 285.627 67.3392 287.234 67.319L287.964 67.3073C287.81 68.1611 287.642 69.012 287.503 69.8714C287.357 70.7672 288.121 71.3366 288.781 71.3136C288.707 71.3262 288.633 71.3392 288.559 71.3499C286.495 71.6514 284.352 71.5715 282.258 71.5691C282.37 70.8897 282.325 70.1231 282.342 69.556L282.345 69.4682C282.377 68.7415 282.399 68.0154 282.412 67.2892ZM293.329 67.1325C293.274 67.5765 293.165 68.011 293.003 68.4155C292.317 70.1245 290.744 70.922 289.08 71.2579C289.368 71.1549 289.598 70.9074 289.656 70.4836C289.8 69.4296 289.852 68.3582 289.856 67.288C291.015 67.2768 292.183 67.2513 293.329 67.1325ZM267.926 66.7677C268.752 66.9689 269.711 66.8767 270.522 66.9147C271.281 66.9503 272.04 66.9813 272.799 67.0131C272.763 67.5484 272.728 68.0835 272.69 68.6184C272.641 69.3098 272.637 70.0405 272.509 70.729C270.981 70.1904 269.612 69.3268 268.586 67.9458C268.33 67.6017 268.101 67.1979 267.926 66.7677ZM289.431 61.7268C290.805 62.063 292.106 62.7733 292.805 64.0726C293.22 64.8437 293.403 65.7576 293.368 66.6581C292.206 66.5184 291.024 66.4654 289.848 66.4216C289.844 66.2028 289.839 65.9843 289.833 65.7662L289.815 65.2072C289.783 64.1412 289.767 62.8024 289.431 61.7268ZM282.316 61.8568L282.921 61.7866C284.602 61.5888 286.282 61.3811 287.963 61.5002C288.206 61.5175 288.453 61.5449 288.7 61.5824C288.403 62.6898 288.428 63.9905 288.304 65.0868C288.256 65.5106 288.196 65.931 288.128 66.3498L287.837 66.3358C286.033 66.2348 284.228 66.1727 282.423 66.0987C282.423 65.7486 282.421 65.3983 282.416 65.0479L282.409 64.6974C282.389 63.8024 282.445 62.7941 282.316 61.8568ZM273.876 61.7148C275.636 62.0082 277.456 62.0707 279.185 62.0729C279.876 62.0738 280.566 62.03 281.256 61.9668C281.211 62.3463 281.187 62.7302 281.154 63.1044C281.086 63.8606 281.008 64.6156 280.923 65.37L280.848 66.03C278.629 65.9261 276.411 65.8138 274.193 65.6975L273.88 65.6801L273.792 64.4116C273.732 63.5657 273.667 62.7201 273.574 61.878L273.643 61.8521C273.725 61.8174 273.803 61.7696 273.876 61.7148ZM273.112 62.0296C273.015 63.2256 272.961 64.4266 272.89 65.6246L271.428 65.5439C271.184 65.5302 270.94 65.5162 270.696 65.5017C269.749 65.4453 268.531 65.1489 267.595 65.4254C267.523 64.5456 267.767 63.6886 268.535 63.0976C269.884 62.0596 271.602 62.4292 273.112 62.0296ZM278.107 51.3379C275.93 50.0497 270.467 48.7332 270.121 52.7811C269.962 54.6438 271.302 56.1872 272.868 56.8759L272.927 56.9013C274.395 57.5249 276.997 58.2291 278.268 56.877C279.325 55.7516 277.923 53.7338 276.609 54.6557C275.933 55.1293 274.512 54.7804 273.758 54.555L273.711 54.5408C272.898 54.2939 271.814 53.5038 272.15 52.4695C272.448 51.5545 273.714 51.3874 274.507 51.3577C275.69 51.3139 276.842 51.5978 278.015 51.6902C278.201 51.7048 278.258 51.427 278.107 51.3379ZM269.088 44.8289C266.133 44.6859 264.295 48.0192 264.974 50.7503C265.092 51.2215 265.602 51.6842 266.094 51.6312L266.219 51.6194C266.282 51.6131 266.345 51.6049 266.403 51.5883C266.871 51.4545 267.29 50.9519 267.256 50.431L267.247 50.2793C267.178 48.9891 267.313 47.5026 268.798 47.1902C270.056 46.9251 270.759 48.1768 270.774 49.3289C270.777 49.5335 270.999 49.6763 271.175 49.5663C272.085 48.9943 272.242 47.8562 271.895 46.8762C271.454 45.6344 270.352 44.8899 269.088 44.8289ZM291.018 45.5438C288.868 44.8026 286.547 45.9868 285.506 47.9509C285.141 48.0601 284.776 48.351 284.827 48.7964C284.9 49.4371 285.01 49.8411 285.44 50.327C286.113 51.0871 287.373 50.6985 287.653 49.7628L287.664 49.7205C287.982 48.511 289.271 47.713 290.445 48.1364C291.816 48.6309 291.777 50.1272 292.739 50.9989C292.852 51.1014 292.987 51.1177 293.123 51.0501C294.145 50.54 293.961 49.0048 293.597 48.1261C293.119 46.973 292.19 45.9476 291.018 45.5438ZM293.947 38.7975C292.204 36.9606 287.66 35.1831 286.468 38.5752C286.241 39.2213 286.724 40.0924 287.376 40.2264C288.442 40.4456 289.388 39.9674 290.447 40.0532C291.305 40.123 292.199 40.419 292.885 40.9678C294.783 42.4876 295.201 45.0582 296.524 46.9926C296.588 47.0868 296.714 47.0472 296.725 46.9362C297.027 44.12 295.856 40.8093 293.947 38.7975ZM271.22 36.9892C270.063 36.5673 268.754 36.6034 267.591 36.9777C266.42 37.3549 265.345 38.0712 264.517 39.007C264.141 39.4319 263.794 39.9007 263.515 40.3998C263.367 40.6643 263.211 41.2107 263.042 41.536C262.131 42.0793 261.742 43.3175 262.558 44.1983L262.594 44.2369L262.704 44.3487C263.142 44.797 263.803 44.9913 264.401 44.8122C265.741 44.412 265.903 43.3223 266.367 42.1658C266.673 41.4018 267.198 40.7259 267.834 40.2294C269.337 39.0563 271.802 38.6826 273.612 39.2354C273.708 39.2649 273.822 39.1381 273.753 39.0461C273.41 38.5871 273.212 38.2105 272.753 37.8402C272.287 37.4645 271.778 37.193 271.22 36.9892Z" fill="#1D1E1D"/>
</svg>
